<mxfile host="Electron" modified="2024-04-17T05:52:57.417Z" agent="Mozilla/5.0 (Windows NT 10.0; Win64; x64) AppleWebKit/537.36 (KHTML, like Gecko) draw.io/24.2.5 Chrome/120.0.6099.109 Electron/28.1.0 Safari/537.36" etag="60hKl3yqRmtPMbxYviJe" version="24.2.5" type="device">
  <diagram id="C5RBs43oDa-KdzZeNtuy" name="Page-1">
    <mxGraphModel dx="1195" dy="1872" grid="1" gridSize="10" guides="1" tooltips="1" connect="1" arrows="1" fold="1" page="1" pageScale="1" pageWidth="827" pageHeight="1169" math="0" shadow="0">
      <root>
        <mxCell id="WIyWlLk6GJQsqaUBKTNV-0" />
        <mxCell id="WIyWlLk6GJQsqaUBKTNV-1" parent="WIyWlLk6GJQsqaUBKTNV-0" />
        <mxCell id="zkfFHV4jXpPFQw0GAbJ--6" value="Handshake" style="swimlane;fontStyle=0;align=center;verticalAlign=top;childLayout=stackLayout;horizontal=1;startSize=26;horizontalStack=0;resizeParent=1;resizeLast=0;collapsible=1;marginBottom=0;rounded=0;shadow=0;strokeWidth=1;" parent="WIyWlLk6GJQsqaUBKTNV-1" vertex="1">
          <mxGeometry x="650" y="810" width="420" height="554" as="geometry">
            <mxRectangle x="130" y="380" width="160" height="26" as="alternateBounds" />
          </mxGeometry>
        </mxCell>
        <mxCell id="zkfFHV4jXpPFQw0GAbJ--7" value="-jack_client_t *client" style="text;align=left;verticalAlign=top;spacingLeft=4;spacingRight=4;overflow=hidden;rotatable=0;points=[[0,0.5],[1,0.5]];portConstraint=eastwest;" parent="zkfFHV4jXpPFQw0GAbJ--6" vertex="1">
          <mxGeometry y="26" width="420" height="26" as="geometry" />
        </mxCell>
        <mxCell id="8tcFqLYshYYFTFdqs2hX-18" value="-const char* client_name" style="text;align=left;verticalAlign=top;spacingLeft=4;spacingRight=4;overflow=hidden;rotatable=0;points=[[0,0.5],[1,0.5]];portConstraint=eastwest;" parent="zkfFHV4jXpPFQw0GAbJ--6" vertex="1">
          <mxGeometry y="52" width="420" height="26" as="geometry" />
        </mxCell>
        <mxCell id="8tcFqLYshYYFTFdqs2hX-19" value="-const char **from_device" style="text;align=left;verticalAlign=top;spacingLeft=4;spacingRight=4;overflow=hidden;rotatable=0;points=[[0,0.5],[1,0.5]];portConstraint=eastwest;" parent="zkfFHV4jXpPFQw0GAbJ--6" vertex="1">
          <mxGeometry y="78" width="420" height="26" as="geometry" />
        </mxCell>
        <mxCell id="8tcFqLYshYYFTFdqs2hX-41" value="-const char **to_device" style="text;align=left;verticalAlign=top;spacingLeft=4;spacingRight=4;overflow=hidden;rotatable=0;points=[[0,0.5],[1,0.5]];portConstraint=eastwest;" parent="zkfFHV4jXpPFQw0GAbJ--6" vertex="1">
          <mxGeometry y="104" width="420" height="26" as="geometry" />
        </mxCell>
        <mxCell id="zkfFHV4jXpPFQw0GAbJ--9" value="" style="line;html=1;strokeWidth=1;align=left;verticalAlign=middle;spacingTop=-1;spacingLeft=3;spacingRight=3;rotatable=0;labelPosition=right;points=[];portConstraint=eastwest;" parent="zkfFHV4jXpPFQw0GAbJ--6" vertex="1">
          <mxGeometry y="130" width="420" height="8" as="geometry" />
        </mxCell>
        <mxCell id="zkfFHV4jXpPFQw0GAbJ--10" value="+jack_client_t * get_client ()" style="text;align=left;verticalAlign=top;spacingLeft=4;spacingRight=4;overflow=hidden;rotatable=0;points=[[0,0.5],[1,0.5]];portConstraint=eastwest;fontStyle=4" parent="zkfFHV4jXpPFQw0GAbJ--6" vertex="1">
          <mxGeometry y="138" width="420" height="26" as="geometry" />
        </mxCell>
        <mxCell id="zkfFHV4jXpPFQw0GAbJ--11" value="jack_port_t * add_input_port (jack_port_t *_port, const char *inport_name)" style="text;align=left;verticalAlign=top;spacingLeft=4;spacingRight=4;overflow=hidden;rotatable=0;points=[[0,0.5],[1,0.5]];portConstraint=eastwest;" parent="zkfFHV4jXpPFQw0GAbJ--6" vertex="1">
          <mxGeometry y="164" width="420" height="26" as="geometry" />
        </mxCell>
        <mxCell id="8tcFqLYshYYFTFdqs2hX-42" style="edgeStyle=orthogonalEdgeStyle;rounded=0;orthogonalLoop=1;jettySize=auto;html=1;exitX=1;exitY=0.5;exitDx=0;exitDy=0;" parent="zkfFHV4jXpPFQw0GAbJ--6" source="8tcFqLYshYYFTFdqs2hX-1" edge="1">
          <mxGeometry relative="1" as="geometry">
            <mxPoint x="410" y="210" as="targetPoint" />
          </mxGeometry>
        </mxCell>
        <mxCell id="8tcFqLYshYYFTFdqs2hX-1" value="jack_port_t * add_output_port (jack_port_t *_port, const char *outport_name)&#xa; " style="text;align=left;verticalAlign=top;spacingLeft=4;spacingRight=4;overflow=hidden;rotatable=0;points=[[0,0.5],[1,0.5]];portConstraint=eastwest;rounded=0;shadow=0;html=0;" parent="zkfFHV4jXpPFQw0GAbJ--6" vertex="1">
          <mxGeometry y="190" width="420" height="26" as="geometry" />
        </mxCell>
        <mxCell id="8tcFqLYshYYFTFdqs2hX-2" value="void disconnect_port (jack_port_t *_port)&#xa; " style="text;align=left;verticalAlign=top;spacingLeft=4;spacingRight=4;overflow=hidden;rotatable=0;points=[[0,0.5],[1,0.5]];portConstraint=eastwest;rounded=0;shadow=0;html=0;" parent="zkfFHV4jXpPFQw0GAbJ--6" vertex="1">
          <mxGeometry y="216" width="420" height="26" as="geometry" />
        </mxCell>
        <mxCell id="8tcFqLYshYYFTFdqs2hX-3" value="void name_port (jack_port_t *_port, const char *name)" style="text;align=left;verticalAlign=top;spacingLeft=4;spacingRight=4;overflow=hidden;rotatable=0;points=[[0,0.5],[1,0.5]];portConstraint=eastwest;rounded=0;shadow=0;html=0;" parent="zkfFHV4jXpPFQw0GAbJ--6" vertex="1">
          <mxGeometry y="242" width="420" height="26" as="geometry" />
        </mxCell>
        <mxCell id="8tcFqLYshYYFTFdqs2hX-4" value=" void connect_input_device (int input_device, jack_port_t *_port)" style="text;align=left;verticalAlign=top;spacingLeft=4;spacingRight=4;overflow=hidden;rotatable=0;points=[[0,0.5],[1,0.5]];portConstraint=eastwest;rounded=0;shadow=0;html=0;" parent="zkfFHV4jXpPFQw0GAbJ--6" vertex="1">
          <mxGeometry y="268" width="420" height="26" as="geometry" />
        </mxCell>
        <mxCell id="8tcFqLYshYYFTFdqs2hX-5" value="void connect_output_device (int output_device, jack_port_t *_port)" style="text;align=left;verticalAlign=top;spacingLeft=4;spacingRight=4;overflow=hidden;rotatable=0;points=[[0,0.5],[1,0.5]];portConstraint=eastwest;rounded=0;shadow=0;html=0;" parent="zkfFHV4jXpPFQw0GAbJ--6" vertex="1">
          <mxGeometry y="294" width="420" height="26" as="geometry" />
        </mxCell>
        <mxCell id="8tcFqLYshYYFTFdqs2hX-6" value="void activate ()" style="text;align=left;verticalAlign=top;spacingLeft=4;spacingRight=4;overflow=hidden;rotatable=0;points=[[0,0.5],[1,0.5]];portConstraint=eastwest;rounded=0;shadow=0;html=0;" parent="zkfFHV4jXpPFQw0GAbJ--6" vertex="1">
          <mxGeometry y="320" width="420" height="26" as="geometry" />
        </mxCell>
        <mxCell id="8tcFqLYshYYFTFdqs2hX-7" value="void disconnect_client ()" style="text;align=left;verticalAlign=top;spacingLeft=4;spacingRight=4;overflow=hidden;rotatable=0;points=[[0,0.5],[1,0.5]];portConstraint=eastwest;rounded=0;shadow=0;html=0;" parent="zkfFHV4jXpPFQw0GAbJ--6" vertex="1">
          <mxGeometry y="346" width="420" height="26" as="geometry" />
        </mxCell>
        <mxCell id="8tcFqLYshYYFTFdqs2hX-8" value="void prevent_failure ()" style="text;align=left;verticalAlign=top;spacingLeft=4;spacingRight=4;overflow=hidden;rotatable=0;points=[[0,0.5],[1,0.5]];portConstraint=eastwest;rounded=0;shadow=0;html=0;" parent="zkfFHV4jXpPFQw0GAbJ--6" vertex="1">
          <mxGeometry y="372" width="420" height="26" as="geometry" />
        </mxCell>
        <mxCell id="8tcFqLYshYYFTFdqs2hX-9" value="void callback (int(*process)(jack_nframes_t nframes, void *arg), void *arg)" style="text;align=left;verticalAlign=top;spacingLeft=4;spacingRight=4;overflow=hidden;rotatable=0;points=[[0,0.5],[1,0.5]];portConstraint=eastwest;rounded=0;shadow=0;html=0;" parent="zkfFHV4jXpPFQw0GAbJ--6" vertex="1">
          <mxGeometry y="398" width="420" height="26" as="geometry" />
        </mxCell>
        <mxCell id="8tcFqLYshYYFTFdqs2hX-10" value="void info_control ()" style="text;align=left;verticalAlign=top;spacingLeft=4;spacingRight=4;overflow=hidden;rotatable=0;points=[[0,0.5],[1,0.5]];portConstraint=eastwest;rounded=0;shadow=0;html=0;" parent="zkfFHV4jXpPFQw0GAbJ--6" vertex="1">
          <mxGeometry y="424" width="420" height="26" as="geometry" />
        </mxCell>
        <mxCell id="8tcFqLYshYYFTFdqs2hX-11" value="uint32_t get_sample_rate ()" style="text;align=left;verticalAlign=top;spacingLeft=4;spacingRight=4;overflow=hidden;rotatable=0;points=[[0,0.5],[1,0.5]];portConstraint=eastwest;rounded=0;shadow=0;html=0;" parent="zkfFHV4jXpPFQw0GAbJ--6" vertex="1">
          <mxGeometry y="450" width="420" height="26" as="geometry" />
        </mxCell>
        <mxCell id="8tcFqLYshYYFTFdqs2hX-12" value="uint32_t get_buffer_size ()" style="text;align=left;verticalAlign=top;spacingLeft=4;spacingRight=4;overflow=hidden;rotatable=0;points=[[0,0.5],[1,0.5]];portConstraint=eastwest;rounded=0;shadow=0;html=0;" parent="zkfFHV4jXpPFQw0GAbJ--6" vertex="1">
          <mxGeometry y="476" width="420" height="26" as="geometry" />
        </mxCell>
        <mxCell id="8tcFqLYshYYFTFdqs2hX-13" value="float get_cpu_load ()" style="text;align=left;verticalAlign=top;spacingLeft=4;spacingRight=4;overflow=hidden;rotatable=0;points=[[0,0.5],[1,0.5]];portConstraint=eastwest;rounded=0;shadow=0;html=0;" parent="zkfFHV4jXpPFQw0GAbJ--6" vertex="1">
          <mxGeometry y="502" width="420" height="26" as="geometry" />
        </mxCell>
        <mxCell id="8tcFqLYshYYFTFdqs2hX-14" value="const char * get_name ()" style="text;align=left;verticalAlign=top;spacingLeft=4;spacingRight=4;overflow=hidden;rotatable=0;points=[[0,0.5],[1,0.5]];portConstraint=eastwest;rounded=0;shadow=0;html=0;" parent="zkfFHV4jXpPFQw0GAbJ--6" vertex="1">
          <mxGeometry y="528" width="420" height="26" as="geometry" />
        </mxCell>
        <mxCell id="lcD3C4ZG9IXcU6QK0os8-2" value="" style="shape=image;verticalLabelPosition=bottom;labelBackgroundColor=default;verticalAlign=top;aspect=fixed;imageAspect=0;image=data:image/png,iVBORw0KGgoAAAANSUhEUgAAAtYAAAFfCAIAAADlJRwcAAAACXBIWXMAAA7EAAAOxAGVKw4bAAAgAElEQVR4nOydd1wTyRfA36aShE7oJSCIKCCKgA3P3ntvZ/cnWLCdvWDHinr23nsXe1dELKCoFEF67y2BNFJ+f6yXyyUxjQCW/X74Izs78968mclmmJ15DxGLxYCBgYGBgYGBUb/gGroCGBgYGBgYGL8jBO2KFRYW6unpSS5FIhEA4HA4mRQEQSQp6HKLdAqCIEZGRt9TwWKx+Hw+gUCQFEclyGhRrgIAjI2NlRtCJpMlRbQzRLkWNpvNZrOJRKKMTN0aUlpaisPhJDLR5tKtITwej8lkkkikOjWkoqJCJBLh8fi6M0QoFJaWlpLJZOWGyGvRyBCFA1i3hoC230QZFYaGhtJFZFA4gH9MQ/T19SUNLg+fz6+srJQZwD+mIVQqVbqeMigcwNIqJE/L2gxgnRhCJpMpFIpGWhAEkQhR0xDlA1gnv1ZEIpFGo9W1IcoHsE4MwePxBgYGWhvyPS0yhlAoFOnx+T0VeDxeyykImUyWnj0IhUJUnHQKDoeTrpZQKEQQRMlAkYFAIBCJRElbiMVitC2kJQiFQmmlIpFILBZLp6hpiPQUREaCfLXljVUOHo+nUqlUKlXaEFDaXFoYQiKRqFSqpEhdGILD4SgUir6+vhIJMoagxmpkCJFIJBKJkuevvASFSjUyBEEQPT09Q0PDOjVE4QBWXm2tB7ByQ6T7XQtDFA7gBjcE5L7+KlE4gJVXW4vmUscQ+RSNVCAIIq9F/gFSywGsnSEyj30ttMhXu5YD+Mc0BDTvd5WGqPPY10KLfPtD7ZpLWgX2IgYDAwMDAwOjAcCmIBgYGBgYGBgNgJYvYjAwMHQOk8msqanRaG22srISXRdFqYsXMXw+XyAQcLnc70nQyYsYiSH6+vpKtkFgYGD8Smg5BRGLxehzR3IJ/zyJJCnST0b4Zz+OzBlgJQ8pNLOMTBkJKquhXIVEgvQbO3lD5JVqqkUkEmnUXFobolxF/RsiXzF1DJHXolKpRoYoVKFzQ0BRcylXOmLEiISEL8pl/tpUV1cdP368f//+ag5gmR5R/kJai6GlUEvtv4nyKRoZolCL/AOk9t9ELQyRUapyI4JyQ0C9fv9lDFE5gLUwREapFoao/OGQN1ZNQxAEwVZBMOoQmRknhnK4XO6DyKSGrkVDMm3cAIFA0NC1wMDAqCe0nIIgCKLpjmJNt+aiB4GkD2fWxYkYVEWdnogBABwOJ2MIKG0urQ2p0xMxMoYolFD7gyRoJWWaS+cnYurBEFDU78qVarQD/1cFbbS6OBGjsN91fiJGnWejfIqmQ0tei85PxGhniKYHSZQbIv/Y/2UMAa0GsKYvQLU4ESOvRecnYqRVYNtRMTB+JlKSEgZ19/l7y+o/h3Tt28mrTnV9iIr0YNB6d/A4d2I/AIwf3t2DQeve1q1OlWJgYPw+YC9iMDB+JlK+JuTnZldWlK3ZvIdZWYkmzg0YXVpSBAAjx03rN2jk31tW5eVm5+VkAkDI9sOvXjy+c/MiAITuO2Nhac3n8aaM6QMAeDxhy+4TFpbWMycPa+bZIiH2I7OyfNveU5ZWthJ1VJo+m10d/zkGANKSk0xM6Wh60pfY9Svmop9PXn6YmZ4avGh6154DnjwIa/dHt36DRrHZVetXzA0JPVxVxbx++fTUGQssLK3rr5kwMDB+BrBVEAyMnwk8gcDhcp49uuPcuGlLnzZoIo/HGzVuWseuvQ/8vTHqzcv01K/PHt4OnL00cPbSl88ePn9yt90f3QyNTBbOmiCoqfmaGOvk3CRw9lKavsHCWRMAIO7T+5jo1736DeXzeRlpydLqLK1sLK1sCgtyU74m4AkE16YeAFBSVLB6ySwXV/fA2UsNjUyYlRVsdnVM9JuY6Nc2tg73b19NTPhUXcWKiX7D4VSzWMyUpAQ+j1v/bYWBgfGDg52IwU7E/HCG/LYnYtTZvevt227C1KDjB3d6MGh/LdswKWDuvbDLA4eN7dilF4VKmzpjAQCcPb7P2ta+fcduAHDu5AEDQ6ORY6e0btdx/LDud29eSkqMmzZroZ2DE5FEmjyq972wywDQpGnzNv6dP354y66ullZHN7e0sXPIzsoIf/rAzMzcp7V/Vnpq2LXzsR+jt+05aWvvSKFSH9y+1silCQB4ebemUGmfP0ZXsZhmdAuVtihpNDUHMHYiRto0GRXYiZifzhDsRAyGuvCFMPeBmjuJyADf9ZavOwxVZ6ktRACi6ly1RV9h6pQWolY22PkaMKNbzFm0uluvAWMHd9m+cYWXt19+Xo6NnYNMNmMTM8nne2FX7oVdQT+XlBQBQK8OHpK7+Xk50gVLiwvZ1VVU2r+9YGVtx2JWvo187t68pXTOnv7u6IdpQYsdHJ2lb5WXljCcXLS2EePHZ+3atWvXrm3oWtQKPB7PZrM13QiMoVu0nIJoeqAAtDoRI3+gQOcnYlAVWpyIweHxNgZgrSzcD4bOyGehPQXw85yI0eJojzpbyh/evf4l7mPv/sMCghYf2rMFj8d37dn/8N6trXzbMZmVR/Zu7dKjv3R+SyubVn7tZ8xbXlZa/OHdq979h0W+fLJ60+5hoyffDbscExU5ZMT4k4d3KdHo2KgxDofs/3tT6L7TaSlJANDU3QsA1m3dP3jE+Hu3rjRv4VNWWiJTysDAEAAqKsqYlRXFRQUq7ZLws5+IUWdoyafU5rAV1M2JGOWGIAgy66+VgbOXaFTtHwcul3PswA70FKFOTsQo7xF1fr+0UAF1cCJGXovOT8RIq8BWQX50WOXFyTHhGfFRANBxaKCZjWNtpFVXlsW/vu/erhcAPDi5RZLe2PsPz/Z9VBYXCgRF2cmFmUktOg2qTTUwtAZBkOh3r9JTv1ZWlPcZOKKRi5uBoVH85w/7/95Yw+enpSb1HzpGOn/Hrr3LykpOHNpZXFTo1dJX38DQx6/9X7MmZGWmv3n51LOFD/77kTlRDI2Mbe0dAaCRSxN0CuLh1Wrkn1MvnD6cnpYcGf5kz5GLIPfwsbKx9/L2O3fioKGRMYFYD4tnGA1DUsLnO2GXAaB7r4GeLXy0kFCQl3Pr+oU/Ovdo0qy5mkUqK8qOHtghuZwSOM/I2FQ+G4/L+ZoYr12tMOoHbAryo/P27unoR5f6TFn+/NLeZQOcDkbX6mUEp6ri04ubjTzbAMDjs9sHzljfc/yi63uWHl0+dsXZ93TbRsqLi4SC4uyUhDcPsSlIQ9G996DuvWUb//rDKOnLnQfPSz537Nq7Y9fe0ncNDI2u3I0EAFiyDk158T4d/bBy/U7pnN6+7Y5fvI9+HjR8HAA0buI+fc5SAFi54W80ff6SdQBgZWMfl/ltE8no8dPQD2evP9PCQIyfi6G9276JL9i2Yen//uz/Ji5fCwlWNnb/m7lAoyIsZuWZY3uD/gqeFDB3wazxXVu7RifJrsMBwPGDO69dOvXw1W/tcfgHBzsR86NTkpteUZybn5Ywe/d9dP4hrOEH+CABPsiMNqSUjxEAsLCH1aMzodWVpec2zXh5/XDWl/f75g88t2lGgA8SGtAp4e0jAHhwakuAD7J5cnt5FU6ebUh6lPT4dwCwalhTVPiDU1sA4ExIwNpRzbcHdgnwQd4/uSJdaueMboG+eLQCGBgYvxtikfhDVCQA8Hnc1Rv3oPOP1OTE/43t78GgeTBoOVnpAJCVkbp+xVwPBm3UgD+SvsQCwL2wy2gGDwbtQ1Rk7Mfobm2boNuiJ43sJUkHgDVLgwb39Js8qrcHg/bw7g2F1Rg/JcjQyBgt3reTF1r82IEdAHD62N68nKzef3gCwPK/AqRvYfwgaLkKot2BApmNtaDq2IJQKKzrEzGoIVqciBGJhAD1sY/JzrV5bMSda7uXUA1NnNxbm9k6fXhyZdi80O5j5z+/tHfr1A7z9j1WWFDA5x6MFq8d7fXx2Q0rhuu1XYsXHH6hRzU8uGjoP4aI0uPevrx+KObZdVNrhm+PUVUVxQOnrxOJRAmvH1zbtbjj0EDU0jZ9xukb0yPDjjf37wcA+ekJoQGdxGJYcvKNYzPfemgE+NZTYvh5TsRofbTnN+dnPxGjztCST9H0RIy8Fp2fiFFuiFgsRhBwcnb1bOH7h7fjzHnL2/h3aenTZtWiGR4tWq3auPvJg7BeHTzuhcfevXnpxdP7+09c+xL/KeL5o0YuTRYGTezee+DgEeOzMlPDrp0fOnICKvNNxDMHR+dVG3cXF+WPH9b9yNnbACASCvsPGW1sanb90qkefRQsvtLNLXF4fPS7V238O89bvFYgqIl48Xj7xhUj/5w6bvLMa5dO3QuPLS8rcXBsdOTs7bjP79Fb6PtH1BydnIhR3iOgiwGs3dDS9ESMvBadn4iRqND+RAzqPV06RSwWS6egtZRJkS+lXIW0BIlAeZlKqqGmIUpkyldbU0NqSRPfrmxWRdSDC2c2BPj2HN136or8tHi/nmMAoGnrbgDwNSZcYUFLRzcAIOvRhIIaVnkJAFjYN67hcRjNfCSGlOSmfX3/gs9lm1ja5acn6Bub5yR/LivMLsxMAoCqihIAoBqYGNKt9I3pnKrKGh4HAL6+fwEAXUbNrrf5B3zrqW/VVjn81BAl26cgN1xB0fDTvM7flaBQZkV5mUYqfjEENTVoo6nzANH5l10+RYt+V2do1dIQhVrkDYHaDWCVhgCCmJjSA2YvXjBj3N4dG2Lev9m08yiLVVlZUf7u9YuqKiYAFOTnmtIt+Hzejs3B0+cstbV3xCE4hpPzo3s3c3OyJvxvdp8BnhJ5CXEfXd3cTc3oRkYmABD97hUAGBqZ0C2sTEzpVaw0Lpejp0f5XoXFYvGX+E+F+bnpaV8BoLysRPqWoaHxw7vX0Z3R5WUldAsraRtV9rvKplPeXGr+ftVGhUKZWvxaqfy909U3EWo5BZHZ2SuTIv7vfmxJLTXdmiuzEVehFsklOhHT1B++zE5yGQny1f7W8ZpoqQ3mto06DZ9lxWhyYducqAfnfXuMBACi1PeQz6n+fmkAgBoem1vNBAChgC+djsPhfXuO7jl+UdL758dW/hn96JKDm/fn8FsjFuwsK8hK+/xaRo6ghs9mlQOAgYmFJaNxbMSdzqOCLOzq6ewlgiA43LeHBfy3j7TY9a2wT5UMYHT4aaoCkdtJfvv2bUtLSzc3NyMjI3mlCII8fXhLfRW/HqWlxWijKewR5V9/ddD0AaJdv6scWvIptTdE+ldBYkgtB7CSaiMIAiAGgE5de/fqN/RTzLvoNy+TEmIB4Ev8p4ryMgKB0Ll7X2MTM2/ftsNGTfr04d2KBYGduvZeHLxl/NTZEc8fVlexFs+e1NTDa8W6f9+MEEkkHB4vFAgBgMP+z5Oths9nVVbIT0H4fB6IxcbGpp8+vAt/en/pmm3ZmemfPryTzvPpw7t9O0MGDhu7dPW2Z4/uSNLRnxh1fr+0aC6VJ2I07XeVQ0ud3y8ttMg8x1CjlAw/jVRg21F/dPbM61/DZQ+csb7jsOnXdi22dfEkkinPLu4Zs2Tf47M7AKDT8BlRD85nJkR7dx2a8OahfZOW8kIMTMwBIC3urYmFXfSjS4NnbZS+S9ajIgjOytGtICOxWduedBunN7dPKamSd9ehY5bs2zmjW/CQJgfeCZXkxJDByclpzJgxX79+bd269bNnCnZrDvlnUfr35P7tqw1dBQx1EQmFxw7s2L5xRVRi8b2wK/t2brBnOJlbWAMC/5u58M7NixdPHw76a+WNq+eiXodfuvPq7y2rnj++m5GevG75nPlL10/43+yHd64tDJooWdLv0WdQyKoFHl4+qV+/AMDo8dOO7t+ushp7tq+rKC8LWhB87MAO/07dbe0YV84fl8mTnvrV2tb+j8490TgGGD8O2BTkR6fbmLl3jqzbPKkdAEwNOU+3bWRiYff3rJ4vruzHE4gbbqbSbRu16z/p+ZV9UQ8vdBw2XaEQA1OLIbM3H14y0tDMyqf7CDRRKKi5tmvxtV2LAaBxS3/fHqMAIMif9uDkZltnDwCoKM5TUrHh87avG9PiwaktPccv0q3JvzCenp5RUVGRkZELFixo1arVnj17/P39G7pSGBjagMPjJwfOy83J9HUzB4DZC4LtHJyWrtm2afXC8cO6AcCpK49cm3qO/HMqj8vxYNAYTi7T5y7z9m23dfeJhUETt29cAQDzl64nEkmoQDsHJw67ekTf9gBw/2WcnYOTEu18Hi80ZHloyHI0MwBMDpzn04R+eO+2xm7uAFBUmN+suXdE+GMPBi0us/rU0T2TR/fRNzBEb6EvYjAaHESjHXAFBQWr16y99VDx5oNfDB6nyqeFx51bN+XfOgGAAPCbXmKuyeqJfBb0bQw+tgC6cE0mEomqqqoMDf/1J1sXrsm4XC6CIGQyWaEEoVA4ZsyY9+/fGxoaLliwoH///jQarXPnzvtO31Nfxa/HtHED/pozY8iQIXXhmkwgEHC5XH39fx2/1oVrssrKSiMjI2kV8obIp2ikQuEA1rlrMuWGrF69urRK9LO7Jtu1dY2uXJPJN5fOXZOpHFo6cU0mr0X+hTLUrrmkVWi8CmJoarnqUpympX5GEl4/5GREKryFIAhgZxfqFx6Py2TyEQShUqkAwOfzuVwukUikUCgIgvD5/OrqagKBQCaT8Xg8ehePx5NIJCKRiF7icDgikUgmk3k8XlVVFYIgBgYGAFBTU1NdXQ0AhoaGOBwOzQwAFApFUhZBEAKBQKFQJJdEIlFPT6+mpobL5YrFYgMDAwRBBAIBm80GALSSQqGQyWTicDi0GqgiSdmTJ09++vRp6dKlQUFBbDa7Y8eOPB6vIZv4N0DTXZ91pKL21fhBDPk1QBDN/hX/nhCdVKZhVaipRT6PpvtmJJ+13FOZ8jEiwAeZ3pogEgkB4MXVA6gzicR3T7ZO9b+wNUhJ2ZLctJDxfuHXDs1sqwfqdXxJbtq9YyHaVVV9KopzL26bI5OIx+NlppDyKRj1wOoFAQwGw93dHY/Hs1isNWvWMBiMIUOGsNlsHA4XGhrKYDC6d+/+4cMHANi6dSuDwWjbtu3Zs2cll56enitWrACAlStXuru7Ozl9W+bdu3evk5OTk5NTUlKSJHOnTp1u3rwpufT29t6yZYvksnHjxuPHjweA0NBQV1dXBoORnZ0NABcvXmQwGAwG49GjR3p6elFRUQwGw8fHZ9euXQiCoJV0c3ObPn06WrZ3794xMTF+fn6HDx/28PB4+/at/LvqKhbz2P7tqEsD1MOBmgSMH+jBoI3o5z9ryvCMtK+1afyykmIPBo3L5Ty8e12jOmgN6jlbJkX+m6iRTAKBQKPRlEiQcU0NAAiCaKpFenEC6sYQHA6Hzp6lJfznsf7fuBNQN4b8Msj3u0zrqYN8c8m3fy37XWWPKDRE018reS0yW+Z1a4jGL2K27z7oMmRVyseIrVM7IAhu72senkA4Hjz+zd3TALD1YYGhqaVyISkfI56e/9utdfeLW2fvjeSAGj0d4IMMmrGh9+Rl6ldVCzZOaA1i8dJT37ZSo6sgB7etVpiZJ4T1L8CCpvAmho4pqoaBTb69iPnFuHXr1sKFC42NjXfs2DF//vwjF5/IZNi0ZlFWRurCFSFOzk2OHdgRE/1695FL6khGX4HrpJJlJcV/tHLUlTQlSF7E1LUijFqyevXqtOyS0RMCG7oiWsLn8a5cOHbi0K5fdV71s6D9dlQEhzOzdizJTbWwb5wcE25u26g4Ny0vNf7w0pH2ri1G/LXzzIZpkbdOAMCgWSE9/vzX/25a7Gsnzzbo59TPkbvn9G3ZZcjbu2cAYENYmomFXern16HTOgKA/6CpPScs3jWrJwDcP7k5P+OLV4f+r++cSnjzkGpgMmzuNgKJ7N1l6M39Kx+d2bb2atKBRUPMrB1jI+4AgKd/3/KinJyvn1DtVeXFkbdO3Ni3HABCwtL0jc2Top/FRtx5eeOwWCQaNCvka/Tz3JTPAj5v1VC3NVcT1WmBMg4wsYXzekEgUp3np+P27dtLlixJSkry9/e/f/8+iUQikUjy2fJyskaN+59jI1cAmDhtzqvwxwlxMc08WrZwNkYzHL94z9rGfvrEwU4uTZ4+uA0AV++/vnjmCAC0cDbuN3gUi1U5b/Ha8rKSSSN7W1nb9ug7eOTYqQAwsIfvzYdRtg6O3du5rd28V9/QaNyQbqZm9IUrNjo4Oo8d3AUAmjTznBQwt6aGDwCLZk/q0Xvg31vX3HoagwpHKxCVWFRWUtTT32P4n1MunznaZ+CISQFzGzdpduLQ3zs3rwIAnzb+qJspjF+J2zcuRLx49P37P/S7arFYzGJWwiFlARox6gHtpyB4ArFZ6+4ZCVHM0sIaHrdllyEvruwHsVgkFKBvZ/LS4meE3jCzdVo9rJmJhR164AIAEt896TVxSUHmV/jmHk5Qmpu+7w1/V1Cvktw0PJ5w7+j6gTPW61ENHp7eRjUwWXM1McAH6TVhcdcxcz+Hh8VG3DkYLRbU8L9GP6tmlQOAWCQUCmoAxCKBoLwwZ98b/oNTW2Jf3hk8M0QoqNk9p6935yGfwsMib53Y94Z/btOMnTN7rjj7QSwWFWUn7wqvOrp89NWdCw9Gi2VWQVRiQcO2o9YT+ayGroFOYbPZN2/eHDt2bMeOHR8/fmxl9d3N+TlZ6QQCnuHkIjmLf/TcHQAoLSmavXDVpIC5929dGTe02/2XcQKBQCgUfkytuBd2Of5zzLI1oedOHDh24W7E80cV5aUA4nFDu23dfcLLu/WOzSvFIAYAgaAG/SAUCMRiMYjFAkHNhbBwCyub1UuDjl246+3bbvHsSc8f35064y8AWLtlX/jT+wKBAAB6/+E5f+m68VOD7oVdToiNMaNbCAQ1IqHwyNnbOzatjPsUTaFQtm1YFpdZXcViXjpzpH4aFqM+GTtpxs++HbWha4FRixgxOBzezMYx5WNE6udIQQ2vsfcf0nejHl5waOJt4+xh7dj0YLRYMv8AgKLsFIP/vqxxbtEeAKRjpF3btdjY3GbDzdRBMzfI6HVv21NJreybeAGAqZWDhYOLsaUdxeDbP2rpce+MzK0BwK/XGE515afwMABo4tsFwSGm1o4aG4+BoS2HDh3y8PCYOHFiXl7es2fPlMw/UChUmqGhsXSKQFCTk5Xeo88gBEF6Dxhuz2jE5/MAoO/AEQDg2cKnrLQY9U0poay0BAB6DxhOt7AcPHycEnUGRsZlJUULl4d4+7YDACsbO/k8OVnp2ZlpXXv2R2UmJ8bzeFwAmDRtjqNzYyNjk/LSb44pKyvK9Q0MJ0+fr6JRMDAwfktqta0SweFe3z515+j6dgMmydwSCmq4bBZPznFnNbPMzMrB1MpeocDK4jw9muGU9WfXXPkSeevEzLbkY8Gyj0vl0VwNTCzQD1R9Yz3qf9Yo+Bx2QUaivjH9r4PPG7f8Q6agsIYPGBh1zIQJE7y8vCIiIthstsrJBwDYOTjhcLikxH/PoG3bsCzqdbhQKCQQiWgKkUhUuaNLLBYRiURAd5MRVKx9cjjsDcF/vX75ND31a2WFAofxQoEAACQVEAqF8ovudg5O0UklZaXF8Z8/7AldV5Cfo1wpBgbGb0jtpiAITiQU8DnV9q6yHjk9/fvmpsQWZiSyyopCxvm+vnPqVdixI8tHJ8eEN/JSEKxVQklu2rU9S9Pj33UYMq1R87ZikeJdADgcTt+YnpUYIxaLMhPfq6yqrbM7m1lm5ej28fmNq7sWCfhc9c3EwNAVa9eubdWqlY2Njfqb4ChU2u3rF/JyMgEg7Oq57Mw0d69WNrYOEc8fgVgcGf44JyuDRCIrF2JkbFpTUxMZ/ri8tOTx/TAAsLCyEYvFKV8TAABdw5BQU8NnVpa3at3eydk16YuCE/jWdg6W1raR4U8BIDL8sZOzq/wulsjwx4uCJjk5uzKcXKhUmqmZuZr2YmBg/D7UzjsqAsbmNmUF2Q5u3rmpsdJ3aIamdNtGN/Ytp+gbG1vYNmnV6e3d03lpCRXFeY3+2YuqEEMzS5cW/mEHgmmGJgamll4dBwCAV8eBETePMEsLnL3afdOMw5vZOr27dyY97o3KMzioBGZZUWhA56Ksr0OCNkte0Ejj6v3Hh6dXQwM6/3VQgedsLeBWs/bOHzAj9AZF30h1bs0pL8w+Fjx+6oazRnQbNYvwuezkmJd2jT3VL4KhQxgMhqZF+g0adfvGhb9mjNejUIRC4coNOw0NjSkU2pF9oXduXCwrLf5r+QaCqoUNAoGwdM22zWsXW9s6GBgaAgCJRJ46ff6OTcEnD++WiXJpZW3fzLNlwLiBAGDPaCQWibkcDgCEbljm2/YPtOyO/WcXz5kcdvVsWWnxycuPZMJ5AIBbMy8SmTxpZC+hUGhtY6dykoSBgfEbouWh3Lqr0I+DykO5Kr2jVjPL5ncx2/6khGZkVhc1LMxMCh7qhvpoV7MIt5oZ8+x645Yd1C/yIyDtHfUXpmPHjnXtHbWivOzOjQtjJ82oUy1agx3K/Vn4lbyjNnRdfmuwGDHKEAlFqN9MefgiBIAqn35x21wAMUmPSiTpoVt0X4UdIxDJabFvpm44BwDnN88SCvguLfxf3zk1df05A1OLi9vm2rk2L8pKzkuNH7/yCAA8vbjLxtmDVVYU9fDC4mORqZ8j39w55dqqU9rn1zg8Yfi8UGmNV/9e5ODWMun9i/7TVjl7tT+/eaadqxervPj1rROLjr56fHb754jbrboOr2aWCWr4Q2dvRku9unks5WOEd5chnh366bbR6ggen89mC+Cf+JAqkXFCJY1IJGKxWMR/tjJIZMoHwtZaBQBwuVyBQCAfT1KJCkm8Lp0jFAge3ruBfrZj/NCzTz6fz2aztesRPT09Jb8oqO9a6RUjlT2iEOX9XllZWfuhRSaTlaxsKRzA9WxITU0NgIKmPn5wZ0JsDPp5656T6lSjAWGz2Xg8Xp3mQj0vK8mgk35XPoB1ogKHw1EostGGdbvld68AACAASURBVK5F+QCWqMDhcNgURBmob3x5x/4IghAUuZwrL8qJvHV8xbkYAoFYlJ1C0qMAgHvbXoZmVjx2VVVFMQCkfno1Zuk+x2a+V3YuyE2NtcM1j7x1fNvDgqrK0hOrJuSmxtJtnIzo1i06DhQKBCQ9KptVkRITwSov9u0xytHd70Tw+NyUWFuXfz1Uurbq5NtjZOqnyIyEKEuGa4ch0ywdmlSW5t/ct4LHqQIAU0uH5n/0Fwpqru1ewmZVAED86we5KbEdhkxT/lLshwKPw6FjWj7qgXxkBOWgYQ6kvyF1ESMGfbsh0SIvQV5p3TlgxhMIvfsPqyPhugWHwxEIBO1ixChvQIX9rvMYMQKBQPoRr6YhMiE2VI4EoVAoo0W+2rUcwMoN+Z7PzZSvCc6uTc0trCJePFq1eOaazXvV11j/EAgEPB6vMLSKTI+o9DEq31xaxIhR3u8qh5Y6MWJUDi3lhiiUqekAlqhAEETjKYhYLKqqKNG01M8Ip7pSJBKQSCSFYeoQRf8BsJll3GqmuW0jANA3NmezygHA2NwGTyTp6Rtyq1mcqkoxiG2dPXB4At22UWHWV5qhKbeaSSCSTSzszO2cCzO/Mpr65Hz9dHnHfDyB3LbfeD63uqqyJC81/uK2uQDArqrMS4v/7xSko76JubGFbVVFCZ5Aio24+6r0eA2PI8lAMzI1sbTjsatEQgGfywaA3JTYlI+vxizZV1dtVwcQCAR0y2Ptw9ShPoald1DWxRQEDSsj0aLOFARz/A/fOppUF2HqZHpEXoJOpiDqDC35FE1fB8hr0XmYOuWG4PF4ANmzAhXlpY5OjQeNGGduYeXm7jWyn//MecuJJFLU6/AP0a8NDI19Wvu7uDYtKshr6tEi9lP0nRsXl6zauid0HXqGPHD2EmOTOnln/T1IJJKuwtQp7xGdhKlTObR0EqZOXotMmDpUfm2aS1qFxlMQVnnxqUltNS31M8Lnsv28vbQuTiTrEXiyC3cUfSORUMBmVZCpBlUVJVQDE3SnqkgkxONwbFYF1dCEom/05/JDAFCSm7Z8oHPwhU8UmqFH+94j5it2pMOpqgSAsoIsC4ZrbkqsvjG9y8igGj7n5fVD36tbj3ELzGwcL4bOHfnXTq0NxMDAwJDG2MTs9LG9xUUF46bMdPdsiXr0v3D60LNHdw+euvH3llWhG5at2LAz+k1EU48WNy6fQUshONz0ucsiXzz2b+FQD0EAMH4otImUu+56cl1U5UdDSaTc72Hr0hwAUj5GcNms8KsHndx9ZTLQbRuRKfrxr++37v1ncU6qk7sf3baRuZ0zn1OdFvcm5+unIUGboh5eIBLJLToPlsjMS0vISvyASj6zYdrkdWcc3LwlMt/dP0cgkQsyk/4YGgAAhmaWZKr+q7Cjyqvac/yiWe0orboOc2nhr5GNDcbvErYTA+MnZseBszs3B6OxDLfuPuHfqUfPvkNHjZsGAE7Orq9ePKZSaLk5mQAQ9frl6k27P0RFDh8z2cjIpPeA4bu2rS0uzDe3tG5gGzDqEWwviFLEAABisVh+A45YJFb4qxj6uPj24bUA0G3sPMdmvpWlhQSSHh6Pt3NprkczBICAzZcfnNqak7x4/Y1vJ1nW30i5sHU2AIwPPkq3bUS3bXTn6PrE6GcAsP5GKgD49hhlYe+C5gnces3K0Q3VRTUw7jwyyKWF/5s7p6dtumTn0pxAIt/Yu+zL28fOzdv2D1jDZpU38mrHYVWQyFQEwXl3HUo1NLFydENr8tfhF2/vnvlppiD/7QQFPfLfFJXbAlRKkL5EP2ukQkYL+mHfvn0mJiYtWrRwc3P7nhYZQkNWpKd+tbGz/xL3sXf/4WMm1jYwWGpyYmVFmYWldb8uLW8/jbFzcFKzILOy4t6tK2eO7UVjxNQR8o2GUlhYGBkZWV5ePnXqVOnM0mXV6XSNelnrftc0BV2lr42WhjJEmsz0FIaTy+mrTwAgOzN9eN92x87fzUxPeXTvJt3CMj3lKwBQabSHd6537dHfxs7B27fdh6jIPaHr9CgUAOjQuQdRUZikuuN7g03+EnTUI8q11LJHFPayvFItDJFvpVo2lyQ/NgVRAdpS0o4T/ulmkcIN4frG9FEL/w19JPkscWBvYmkvnUEmG0rfKStkMjCa+jCa+sgkGphaogV9uo+QJA6aGSKdx8GtFfqBTNXvOnouAEjcqDi5+zm5+8mb8GMiFotFon+/YPI9IuPcQslLVvQbpVyCwoe4+ioUFhGLxR8+fIiPj/f09OzWrRt69FT0Hed7KNXVrLyczMDZiz28Wr189nD6xMHdeg2wsLLhctj3b18FQDp07mFGt3hw51oL79bmFlYcLvvR3Rvd+wz6EveJSCSmp341o1s0aeppYWVTXc16dPcGmawnFotRt+tisTg5KSH6bUTzln72jEZEIjEnKyP67UsAMDO37NCpR3U1611kOIFALC0pdG/ubWn176noyJdPOGw26qNdt6CNJtMjz549e/Xq1ePHj42NjSdPniydU7qsyhfS8j2iciBp2u9qDi3lg03ly3uFWpT/TujWEIVzEWZFeULcx45de1OpNARBSCRydRUr7vMHBIcsWxO6Y9PK1y+f4vEEIol09cKJ9h27AYAZ3WLEn1PdmnlWVpS/fPaASqvXsFvozE+dHkEQRNOhBXLtL69FowGs9dCSTtHOEN0OYIkKbbaj/obI9JkYPf9WZ4cXMBSDfJtWo+0vf0hM/c1QyD8okSCToqkKaUXSEg4dOrRp06b3799v3ryZTCY3adLE1dVViQQuh8PjcUuKCyrKSzt07tGj7+DyshIDQ+MXT+6FP3tQmJdbkJ8zYWrQ1vVLV4XsMjE1Ky8tWbEg0Ke1/5Xzx2n6BuVlJdVVVT37DhkycvyjuzdPHdnj1qw5hUZDo8mIRaJH925wuZy4Tx8mBcyxtnU4e3xfTnYGu7pKJBb7+LUvLy3Zu2ODW7PmpSVFb149X7bm22nwhLiPl84etbVl1MUUBG00SYPn5eVFRkbu27ePSCR26tSpX79+0k1amx5RKEGs6HSrFlqUSFA4gOvCENDFAP6eQIV4tvS9fvl0ZUW5qSk9Jvq1e/OWdg6Opmb0zPSUh3eup6UkEYjEKhazdbuOt66dD1oQDAAMJ5fNaxalJSfm5WaFP73fo+8QhfGi6whJM6rsd3WaTp0HSO37XUklFRqics6hUos6T0vtVGh1IkZHIZiFgpqvH164+XRBvjNdenx2e7sBk6mK3JhqR3Vl2fyuZgejNak/8m3QyHh3AOzwQr0j6QT59teiR1T2qVjRgQJNO11mJzkqYdmyZWjKqFGjrl+/bmpqumzZsqCgIFD0mDOjWyxcHnLyyO5ZU0YAwNbdJ5xcmsRERW5cveDF+3SxSNSnkxfD0Vmh9knT5tg5OO3auuZ1xBO/th1WLAi4/zLOzsEJfRGD2jts9CRv33ZL5029cflMp259Fq/aAgBlJUUb1ywsLSkCAE+vVrMXriaTyX7NLKfNWggA5WUlVy+c2HngnEZNoT5oo6E90rx58+zs7G3btj1//lx+bz/aRxpJVi4B/c9MJoOm/a7O0JJP0eJ5Iu9yRjJ+JIbUZgArNwRBEFD0WxAc8m1Bt0ffb7vZpkz/SyZl444jG3f8GzwZHXUAUP+OznA4HA6H+97Q0uhnVbkEsaITMVoMYOUDSeEARjQ8ESOvReY5hvwTtVsmj0b/BEqK63gVJCf5M5FE5nGqeZwqum0jbhWzqrKEbuNkYmlfWZLPKiuycmoqFolykj9ZMlxzU2L1qAaMZj44HD45JhwArByb6huZIThcztdPBiYWVRUlVRUlFvYuNTxucU6KuZ0Ll83iVFVWluThcAQza4axhW3Kp1cmFrZlBVkAYGHfuLI4j8etpts4GZpZleZlIDicuZ1zDY9bnJuKxxMBICM+ytHdV8Dnpce/BQBGUx8SmYItaWCglJaWlpaWAoCDgwOZTK6srCwsLEQviURiVlYWl8slEomWlpZUKhW9BABbW1sajVZQUFBVVSUSidDLysrK8vJyPB7PYDDIZDKHw8nKysLhcPb29hQKRSgUrl69evXq1ceOHbt+/XpsbOzAgQOZTKZMfcpKi6n6BsEhu4JDdn1NjBs9sCPd3LKysuLbFxhBLK1sSkuKVdqFhtJFN/pJOcZATEzMAIDH4xIIREMj47XL5yQnxotEwuzMNFioWBSBQHz1/FFWRqrDd6Y+tSQnJ+fdu3fLli3Lzc318fFZv379oEGDAKC6ujovLw+Hw6HrRkKhMDk5GYfDOTs7oy8Uvn79CgA2Njb6+vqSS1NTUzqdjl6inuLc3NxqamrS09MBwNn5mwloZltbWz09PcklnU43MTGRXNJoNFtbW8klDodzcXEBgNTUVPR4JFqx1NRUAwMDCwsLY2NjAEhOTgYAIyMja2trtCzqmwQtm5ycjP44oXuDcnJy2Gy2RBQ6Go2NjS0sLCR6yWSyvb295FKSOSsri8fjSS6Li4srKysRBEEvWSyWdOsJBIK0tDRJ5vT09JqaGsllQUEBk8lksVitWrUCAPRbIBKJGjduDAB8Pj8jI6O0tBTIJnXQ/xi/FzqeglzaPs+Ibs1jswrSE1t1H8EqK0z59KqpX7eRC/7++PzGu/vn/rfxooDPPbRk+IxtN15c3p8U/ex/IRfKC7OPLBtjaGbZps84v15jDEwtMhKiDEzMH5/dDgBjluyrLMm7tmvxqEW7M+Lfff0Qnvo5UsDneXUcMCRo898ze3QZFZTw5hGPXeU/+H8pHyNykz83/6N/36krH57ZRiCSRy3cVVmSd2PPMp8eIwHg7tH10zZdSv0ceXzVeDyeOHx+qKd/PzyBqMoyjF8WFouVnp5ubW1tbm7+4MGDsLAwANi5c6elpeX79+8PHToEACEhIQwGY//+/enp6WZmZoGBgZ6enuglACxYsMDHx+fatWvv3r3jcrno5du3b2/fvs1isbZs2eLg4JCWlrZu3ToEQYKDg5s1a8bhcFatWgUACxcu3LJli6mp6ZkzZ9CfEGm+xH36Ev9x7KQZFArVytrW2MRMKBTSzS3RtcPKivLsrHQ7ewaCIDwuRyQSMZkVCm3U06OQSOTE+E8eXq0qyr8FvxWDOCMjxcmlSV5Odlv/LgX5OZfOHHn/tTQ3O2N7iOxuJAkGhkZTZyzYuWXVhm0HKVRl7jW149SpU9u2bSMQCGvWrLlz586FCxfQKUhiYmJoaCiCIBcuXAAAtAERBDly5Ag65wgODgaAhQsXoj+c6GX//v3Hjh2LXopEIhcXl5CQkPLycvTumTPfzoWilytXrkSnAujlqFGjBg4cKLls0aLFkiVLJJcUCuX48eMAsHnzZnTuiFZsw4YNJBJp8uTJPXr0AAC0l/39/dGFruDgYLFYTKfT9+7dCwBr1qwRCARisfjixYsAcPz48fj4eImoJ0+eXLt2rXv37lOmTJHodXBw2LRpk+RSknn//v0ZGRmSy7t37z548EDSXPHx8Tt37pRcslis4OBgBEHOnz8PADt27CgqKpKUvXr16suXL/l8/rVr1wAgOjr68OHDYrH43LlzAFBUVBQcHBwXF9e5F+ZHH6O26H4vSA2P03/aGpFIeHXXoj6TlvUYv3DlYNdhc7fJZNOjGY5Zus/Np4ughn90xZ/9A1b5D/rfujEtTa0dmncYkPIxotNwxWEsqIYmi45ERD++dCl03pCgzQDA41QvP/M+88v7J+d2Dp2zNT8tfv+CwX2mLJcpaN+kBQDM2H4zNyXu4rbZg2ZsoBmZHVo8fM3VRFMrB43t1M37KIyGQbJzqqio6P79+yEhIevWrRs+fHhaWhq6ClJTUyMWi6urq9FLdLWjuLi4tLQUQRDUbX9xcXFZWRmaDQDKy8tLS0u5XC56WV1dXVJSUlVVhU4seDxeWVkZAKD/5opEIvQyKyvLxMTExMQEh8Pl5eXJ1LN9x25Xzh97+eyBq5tn+NN7BAKhcZNmAoHA1c0jIy0l/MldBEHc3L3MLaziY2MsrGyj30YotFdPj+Lt1+7siQMT/hf0+uUTv3YdAUAsEkU8f+TUqAmPx2nk0kTfwJBCoebn5jy6dzM9LZnH45LJegqlDRw2dufm4PCn93v2G1rbnpADj8ebmZnh8XgDA4Pk5GRDQ0M0vaamBm0xFEkDSrbFoT3F5/OlL9HWRi/FYjE6VxAKhehddGMygiCSTpcuy+Fw0HGCXrJYLOm7Eu/m5eXlFRX/zvzKy8sJBAI6YAAArWRVVZV0WclCVGlpqUDwLewAgiBMJhPNgMLhcEpLS6VNAAAjIyPpSwmVlZXSKWw2W7q5+Hy+TOuVlpZKFsMrKiqky6LDHq0YAHC5XOm7aOtxOJyffvFY6ekeLfY3qJQgvzu1LrT8XGgcpi5094HGQ1ZLJ17ZuTD82gEeu6rjsOkFmUnNWndvP3CKgYn5hS1BPcYvpNAM53Y22XAzNf71A8kqSGhAp/n7n5bkZ7j5dEmPf7t33gCJx9V2Aya16zfx5NrJS0++vbl/JQCMWbKvJDftwpYgdBXE0d3PxNI+80v0zpk9doWzgvxp/9t4oXmH/gDw4uoB3x6j2Myy5QOdN9xMvX9yM7oKUpKbdil03uCgjauHux+MFr+9e+ZY8DhJ/ftNW9V/2n8sQkl4/ZCTHrl38wpQtAmoRoRsicQrD1OHoSvyWdDHReRt/e++a5XbspTs9hcKhSwWy8DAAACSk5N5PJ67u7u8TOX7vJSrgH9+wKTjSshIWLt27d69e9ls9tixYw8cOAAAnTt33n/mvhKZvzzTxg2YFxQ4ePBgsVj87t27oUOHisXiu3fvenl5qbMJTvn7+5qaGg6HIx0YRZ3Np5r2e3l5uWTapFBm7Q0RiURMJhMdwA1lyNq1a8vYEBi0WImEHxkul3Ns//Ydm1dJYsQo7xGVOyrkm0v5BmGFeZT3u3ZDSyZFC0PU0aKdIQiC6GBP5bC5W3eFsw5Gi7V2+G1mzTgYLUb/JgQfwxHwzdr0qH3FvgeeSHJp2UGiUeH84xvItw7DS/FtU5t6jnVLctMOLh5elNVgztyOrhhbnJOq8JZYLC7JTQvwQQQ1fCUSnl7YtWduv5LctM2T2uamfP63uEhUnJMS4IMIBTWSxL9n9bx3bAOrrEhlxbITP8xoQyrJSZ3byeTD06sq8yP/9ALa/vI9gv8vykRJ9ambm5uXl5dCmdL9jn6j1FcB/7iBVyiByWQuX75869atgwYNYrPZhw8flihV2Q6/PGizIwjSunXr6Ojo2bNnt2rVqm3bthkZGfLfRJkeUd6ACr/L3+sjrftd4eNCZYpGhijUIj9cazmAlRvya4xVJT0iY77KHZ2a9ogW/a5yaMn3ch0ZolKLmobg6vNYh6GZFbeamZcW9/7JFTQFAUQsFjXybEsg6b17cF4sEq0f0/LR6W3JH1429v6DZmRGNTSpLMkXi0SSIuqjb0ynGhhXFOfKFBeLRA5u3jVczoenV5Njwme0Jce90mV4dLFIJBaLxf84NpC9hf5J3xKLZVbnZPJIUqRzSASqKCUt+VsGkWT5EUEQum2jA++EBCJJLFZQ7W/5AQCAbtto0bFXts6e31LEYgAwt3M58E6I7qT5p5JiSVlJTb5Xyf80zjdFYoV3dQ6fzw8LC5OsltcbIpEoKCjI2dn58OHDLBbr4MGD9VyBnwtbW9tly5a9efNGJBL5+flNmDAhKSmpoSuFoYy9Ozbk5WRpXfz4wZ3lZb9FDDIMlPqbgji6+3r69/17Zk/0Ek8gNmrednprIreauehoxNHlYwL98F6dBvr1HlNRnIe6zPLpPpJAIgf6aRbASYJvzzE4HF5SnGZoCgCBfngLe5fArVcPLhq27X8dJwQfdfPrqgv7AAAqS/IC/fAPT28N9MOfXDMpPz1BcqusICvQDx/oh1/Qw/L24TWssqKUjxEgFkc9unh+80xJNrRsoB/+9PpvLiCfnNuBpqR8jACAjy9uBA9pAgAluWkz2+mV5KaV5KadWDVhfjc6qhoAWGVFaHtKJOelxqNCVg1tGv/mAZqIroIE+uGLspNXDHQ5v3lmoB/+1LopBRmJqPxAP3zION/3jy+jl1smt38VdmzbtE4AEPXo4pxORsU5KYF+eKGgprzwm3X56YkAwCovCvTDl+SmsVnlYftXluSmAcDVXYvQPNL2Slg52DXlY0RS9POwA8EZCVG66pHvUVFRMXfuXPT4Q31ibm5+9erVwMBAmRf5GEpAl0M2btz45s2b9u3bN3R1MDAwdIaOt6PO3/9E8nnUot3oB4krjkEzQ1DfnT3HL5K5Je2uQ+Iq1K5x8/+FXPhfyAVJEdSjOQA08my7K5wFALsj/g1r1HFoIABQDYxRafauXtM2Xfp2b/x/tJhaOWjmIEQT7F1b7H8reH557/NLe7v/+RcA8DhVJD3Kvjd8PIH48fn1y9v/at1r7IOTm52337x9eO3Ks9/cXVcU513btXjjrQwTK3seuxoAyvIzc1PjttzPMzC1WDHIZdicrQpfALXpO37cisPMssKl/Ri+3UdeDJ3r4OZ9MFos4PNOrp3MrWYmRj3deCvD1MpBUMNHg+XK02n4jDFL9oVO65QY9ZREpqwc7LrmcoKFg+vTC38nRj1F85haM1r3GgMAtw+vnbn9JppYXpi9fXrXNZcTrJya7pzRXaHwsvzMPpOXD5m1USgQzGpP6TFugUyGcSsOPzi5Wd+Y7ttztHQEnDqCTqdHRdX5REeevLw86d0hGOozderUqVOn1s8iGYauCLt2/tnD2917D2RXVz15cGvdtgMV5aW52ZmeLXwf3L6yLWT5rScxa5bNdnFtOmX6X69ePGzo+mLUN5h3VKWIv71HQM/9f0v71z2t4jUkuo0TDo/HE4iShyVJj8rjcrYOaQIAfC6bpEfFE0mJ756UF2Qb060JpG+/SYamltM2Xdoy1R+PJ7bqPnxI0OaKkjwKzcjA1AKHw5vbNiotyDK3VRDRg0jWk2xPqaos5XPZ+ibmAEAgkakGxmSKfsvOg1GxZrZO/f4X7OrdUV4ISY8KAIAgYrGomlUuEgnN7Rvj8HiqoSnNyBTNo0c1MLVyKCvIEtbwnTzbVhbnAgCztFBYwze3bwwAhmZWRFTOfzEyt72+d2nMk6vfc23XqHnbxDlP2g+crEfVx+EUTLPEYpFQ+O92VPkekU4BVVvtEAQxNjaWFFEoU95Rt0YqUAkyMgkEgnKlSgT+JqCN9r3GQRBEugFlekQd/9YyMlUOJE37XV6FQkOUVEOlIQq1qPQrr1tD1ByrmWnJJBKplV97QyPjh3dvfP0S5+Ts2sa/M5ms16JVGx6XKxIJk5Pix04MMDWjd+s18MLpw+qI1RWoOep8/VXu4lSnR8Ryr9016nfthpZMihaGqKNFI0/zEhUI5qBdHb5z6um738BqZilAYzarHP7ZSFHNLM+IfzdmyV5jC7uv7188PrsdQaD5HwMibh51bvHvwjIOj/ds38fK0Y3NLIu4cbS8KIdmaMrnVnOrmVQDk8qSfAMTc5W11aMaEIgkblUlesllsxAcztTKIejvuwI+Nz3u7e1Da+YfeKpcCJlCAwBmWYGJhR2fU835RxqRpKdvbB4Xec+5eTsi8dvMiWpoguDwaGY2s0zAV7DBIjflc15q3PjgIxSa0YZxssFuUMnN/xhANTKlGpoqrpPufp3RU4VlZWUODpofxq53Bvf8Txyf7ftOGxqZ7NwcbOfgVJCf+/H9m179hgZ8/2BCWUnx7RsXSkuK5i1ZV/eVxfgh+HHmskxmBU3fgG5hiccTDIyMKirKSGTyqAF/AAD/Hy84NXyejZ0jAFCoNHK9vxv95fnBz/1iUxClKHLQjk7flJyIeX37FM3QLCsxhm7jiKaIhAJOVYV7u94AcDYkAE1s0XnQ0eVjFxx+ISn45d3jsyGB62+ksMqLxGKRiYUdALDKi9Pj3lk5uuWnf3Hxal9VUcLncQDge1t0jS1sze1dUj696gkQ9fCCSCgsyk5+ef3QkKDNfB6nND+zqlL1LgRDMytzO+d7x0I6j5yVkRAl+mfCi+AQqqHJ2ZDAhUdeSjKb2zlb2DnfOxYyZsm+sqIcsUhkYGIBAOnx70ytHLKTPwEAn8smEEhNfLoUZn53O2GLzoNYZUVoWXkQ3LcmR9tf+h84+RTllJaWLlu2LCkpKSYm5nsShEKhvH9l9VWA1PmL70mQV6rwe+7UqPGcRWsYTi6SlIy0lFcvHj99l9LcyeBzOkt5NQSCmuKigqICWY8jPyxooynsEflvYm16RF4CGh5POkWLfpdXIW+IfIpGKhRqkR6uqCG1HMDKDUG+46BdBiqVVliQV1lRbmpmXsVikkikiOcPdx++aOfglPr1y8DuPgCAw+FLiwtcXJsCAK9+d4ij5zJUfv3VQXmPiBU5aNe031UOLfkBLP+t0UIL8l8H7eiCR22aS1oFFuikTlg5xNXEwrbLqNnopaGppWurTgE+SIAP4t11mIGpRVbSRyd3P3M7Z5cW/pJSTf26NWvTI8AHWdDdUhLPtnHLDruCei3r77jwyEu6bSNzO+duY+YF+Cjr7BHzdxiZWQf4IK9vnbBkuFrYN27ZeUiADxLUnnr70JqJq0+oY8L6GykvruzfM7c/s7TAxtldkq5HMwAA6WoDwPyDz15c2R/ggxjTrQ1MLQFgasj5I8tGhx345sDRpYV/eVF2gA+ye05fczvn9Ph38hqd3P0c3X0lL30wFPIl7mO/zl5FhfkeDJpIJPJg0D5ERfbq4OHBoHkwaDlZ6Wi29Svmoin3b189fnDns8d3AeDYgR1o4r2wyw1qBMbvgr1DoyoWK+7T+3thlzlstnNjNwCwc3ACgE1rv4UAsGc43bx2HgCwYfkbogPXZL8qCa8fcjIi921eqXAVRAD4TS9BxjVZZUneol62G26mSrbN78Z61QAAIABJREFUfg9BDX/rFP+BM9bXqQeUn4iUjxGXt8+fvfu+wilIPgv6uoKPDYAuVkG4XO6HDx+EQmGHDh2+J6H2qyBcLhdBEMnmU3VWQTp27LjvtOwR8S5+Ls6uTalUfQCgm1uu3LAzIy3lzyFdIj5meTrqn7z80NjEtKS4qEWrNlWsyiE9W2/ff+bsif3unt6TA+dlpqcU5OdEPH9UVJAXtCC4VwePV5+yDQyNnz263bXnAPVtqTemjRvw15wZQ4YMqYtVEIFAwOVyUW/uCiXoZBWksrJS4sAU6mYVRCQSVVVVSfuPqotVEOWGrF69urRaLO+a7Pnju0LhN7eqtvaObs2a52RlJH35DACt23fW1zfgcNiR4Y8BwN3TOy01ydnFzdLa9vXLp2x2lSndwsrKlm5uSaz7YLmoa7Jd29bqahVEvrl0vgqicmjpZBVEXovOV0GkVWAvYnQJRd9k0tpT33uVIA0Oh+88Ksi5ebt6qNVPgYmlXedRQRR9I9VZaw2JRPLw8JB+gv/IWFjZtOvQlW5uCQBUqZ9PCRXlZWeP77t+6RQAcNjVSQmxVSwWlUYDAIaTi+RJYWpmHjB78eolQXoUyqhx0+rRAozfiE7d+sik2Dk42jk4Si4pFKpk+mtlY4d+aNuhS73UDuOHA5uC6BKSHqVNn3Gq8wHg8Hg1c/4mmFk7mlk71o8u1L81j8czN1e9vVdrdLUl0MbWvkuPftJ7QeTx8PIxMjIGgJat2jT39nv+5N+lFNI/562oNP3R46Y9fXhbKBLuDl27dfcJE1O6TmqIIc2PsxW0lvwyhtQP9dBc9dMj9WwINgVRgfxCGZoiECrKjVH3fK9H1AfdjhobGyvZjqpSJuqQWCMtFApFuQRNBX4Pb992X7/E9R4wPC83a2ivNqeuPDKjm2dnpgPAsQM78nKzKBQqANwLu7xr29p74bE1NTUbVs7/wecf6vSypg1IIBD0/7uMJCNBfr1ai343NjZWokLNFOXgcDiZNbwGMeSXofY9AqqaS2H767xH5Pv9xzdE4ykIt5p169AaTUv9jBTnpNgZY1O0XxAEQfT09OrfNap2uLg2u3PjouSy/5DRxiamkwPnAcCMucusbewBQCAQnD66BwCuP3zXuIl7U3evV+GP9+3YAAAr1u1IiI15/vhu7wHDqfoGaOKjyMSGMQYDAwNDCs1+Ymk02h/t2+i9U3Cc4dfDrZmVs7NzQ9cCQ/fQaLQ+ffp4e9e5D1adMGPecvlEdAoyfe4y9PLPyTOk71KotG69BnbrNRC9bObZsplnSwDo2KVXxy696ra6GBgYGGqj2RTEwMBg+PDhw4cPr6PaYGDUAzQabdCgQQ1dCwyMX5BLZ45IPju7Nm3lpyCmT3UV686Ni1169kc3WUvz5EGYq5unPUOBD2iMXxLMLwjGT4JOvaPm5+enpKToTCIGBgYAAGRnpvl36jHiz6kj/py6YkHgkwdh8nnKy0rWLp8j8WEjzbEDOxJiY+q+mhg/CtheB+3JY0GeCteUGD8iJSUlixcvlt6OioGBoXM2hB68de28t297E1MzDwYNAJp5tNh95JJMNvTW/Zdxdg5Onz68C8legOCQHn0Go+kDh41dsCzExOyH3j2NoTXYFERLyHg42L+hK4GhLQQCgUDABj8GRh3i7dvu0tmjRYV54c/ub9t7qq1/l3u3Ls+aMnzHgbMAIBYDk1kxsJvP+6TSpC+xg7r73o+I9/L2Gz8l6I/OPTv7uWzbe8qrpe/po3u3blgWsv1QQ1uDUSdgT2GM3w4ymezh4UGlKojo+wNSUlSYm5OBfvbybq2dEJFIGPsx2sW1GU3fQHVuDAwdgcfhiwryM9NTOnbplZH2VY9CRf71sylKSUooLsxPTPgEAEbGJq9ePEZvFRbkFRfmW9vYFRXmU2n62Ype2WD8GvziU5CioqLCwkIAMDY2tre3b+jqYPwQGBsbz58/v6FroS7XL5+6cu44VV+/vLTk8Jlbjd3cVZeRg8/jrV4aFBJ6qKlHC53XEANDIRwOGxAwNjHF4fCrlwahiSYm/3mlQiSS0FuGxibSAd8l6QDg4tqsvqqMUd/8yttRN2/ePGvWLE9PT09Pz8WLFw8cOLCha4TxQ/ATbUfNyUrPSEu+EBZ+/cG759Fpg3v6of8pomHqPJ0M0D19l88d6+TrLB2C7vXLp+jljIlD4j69F4lEyYnxHA4bAFKTE9FbMdGvURVL501t19zOg0E7dmBHg5qL8UsxpGfrQcPHebbwaerefNrMhScvPRw1blp+XjZ6F4fDefu2s7Kxu3DzxfptB5MT4xlO35wgMJxcrGzsps1cuP/EtdbtOlVXYXvuflm0XAUpLCyUdv6Izl6lXbOhIXmki6A+WaUTEQRREqeDxWLV1NRIXtiLxWKxWIwgiLQEGS3SKsrLy1NSUmg0Go/HI5PJw4YN279/PwCUlZU5OjqSyWQikZidnR0TE9O1a9eXL18SicQRI0bMnj3b3t6+d+/e7u7uU6dOHT16tKurKx6P79OnT2hoKJvN9vT01NPTMzU1PXr0aPPmzSWqpeP6yMBmszkcDpFI1LS5ZFKUqACA0tJSPB4vHUwIjVMlo/R7zaWOFh6Px2KxSFIRpOrCkIqKCulIS3VhSFFR0Zw5cxITEyMiIurOkKqqKj6fL73jRCQSKTdEIBDICLFzcEpP/bowaML4qUEeXj4fksuIRFJmesqcgNFxmdWP793s08krOrH44O7NB05eb9LUMz83e2T/Dq3bd7p59ezndCYOhz+8d+u9W1dm/uNc5Ev8p1WLZ8ZlVj+5HzZ1TL+r998QCAQyWe/W0w8pSQlTxvSdFDBXo+hcOofD4TCZTIU9AnL9LlNVGo2mZIsPn8+vrKyUBA4EuR6RPGSkS2na7+o8G1UaQqFQSN8P1SYUCktLS6V969W/IXw+H4AoX+rGlbM3rpxFP0+fs9S3TQcA6NpzQIeWDACwZzit3rgbh8ObmNIJBCIA3AuPRW/9ffC8t287WzvG+pXzBEKBJL11u45Bf61UUs/awGQy8Xi8Oj1CJBKVv7qVby7pXyu0R1RqUT6AVQ4t+X6XV4HH4/UVhZpS0xDQxQCWqMDj8VpOQchkskycRlAVOk/TkH0EAoFIJEq+ZupEGpSOE2hkZNS+ffutW7devHhx+PDhffv2HTRokFgs9vX13bVr14gRIy5evJienk4gEBAE0dfXJxKJeDxeT08PHWdhYWFOTk47d+48dOiQq6vrrVu3bt26tXHjxrVr106cOPHs2bPDhw8vKChQxxA8Hk+hUCTDV51Ig/IBD1VCIpGoVKqkiDohEzUNMIvD4fT09GQCjSo3RIv4nEQikUgkSoavOgFmNTUE9TFMIBAkY7guDMHj8VQqVWYAK6+2wqfPpp1HzxzbN2/6n2KRaPWm3V17Doj//KGyvIzL5bTv1N3G1uHxvZtEIik/J8vG1sGUbv48Oo1ZWU4gENJTv9raO0783xw8gcDlsFFpedkZVSwmAHTtNcDGziEhNqZ5S98BQ8cYGpk4ObsCAJfLQR26NxQUCsXQ0LAuIuXicDgKhVLXkXLVeTbKp2ikAo3AXNeRcpUbQiKRoEbBQfmXMZkKpcmkS19Kf96y+4RKUTrE0NBQV5FylfeITiLlqhxaOomUK69F55FypVX8yi9iJk6ceOnSpQkTJlCp1K5du7569So9PT0tLa1r165UKnXw4MHR0dHfC8lDp9MzMjI+f/48bNgwLy+vefPmtWvXLi0tbf78+UZGRv3797e0lHWqg/GzgIbYUP4v4I+Dg6PzsrWh75NKjpy7vWz+tKQvsQBQXFTg04Tu62aek5VekJ+7bc/JLeuXtmtu69OE/vDONRNTekDQ4oHdfHya0OdMGyXtaKG8vEyyIGdrzyjIz20YqzAwMDB+4SlITEzMihUrYmNj0bWpBQsWbNq0CZ1woBM6BEGkdz8px8DAwNLS0snJiclkMplMY2NjyRo+xk8HnU7funXrs2fPGroiqhEIamZOHhb/+QMAlBYX4XA4axt7jxY+Td294jKrT197oq9v0Mqv3bYNyw6cvB6XWX3/ZdzCoIlxn6IP790Wl1kdl1nt5u515fxxyVTbo3krsh4FAB7dvfEuMrxbT+xkOQYGRoPxy56I8fDwOH/+/K1bt0aNGgUAERERfD7f0dGRwWA8e/Zs6NCht2/fbtWqFZ1Ox+FwMTExHA6noqJCWoKDg4ONjU1UVBSVSj116hSBQMDhcM+ePevSpcvTp0+XLl2akJDQQMZh1AqhUFhUVITuCmrouqiAQCD6tG4fOGEwkUjkcjmnrz7+P3vnHR9F8f7xz15PLr33TgmBEJIQpEOQLqDUiKDAD4koiop8QbEgChZEEb+KgF8LIl+UIiJNihTlC0jokNBCD5BGei65XPn9sbAst5e9271LLmXeL168bmdn53memdnZye7zzPgHBhmNWPDZitSUmJqamldmv9emXYe2CckvTBpZWVGu1+s/X7GmVZv4xJQuqSkxADp27sF274hpFfv6u5+kpsRUVWkWffVjcFjk7ZzrDjWRQCA0X0ROQYxGI/0hijnE/U9TTIrJOwbjfZgU/m9UZss0KYFHDYlEMmPGjM8//7xVq1YA2rZtu3DhQqlUumfPns6dO7/77rtGozErK6u8vHzevHkvvvji008/TStMF0L/njhxYmpqKkVRvXr1+vDDD5999tnu3bur1WqlUjlt2jS2aP5PeuKqi51BqAizQrm1Z6JGAzHEYDCYlGlRqCBDiouLP/vssytXrvz+++91ZwgAcYaYMOLJib373ntXERIWLpFIAUTFtPp2zXaKgo+vv1yu+L/nXhk9dpJebwAQGBQslyv6DhiWkPgIALWLi4ent1Qq3bznZGBQsEwmbxuf+O2a7QACg0KkUmlAUIivX4BMJvP28du856TDNxCma0nE7Q+A/4O0iK5lVort9wg3RZAhZqVwu6t9hxQTtWv7hN24oM2x5va36FFhTYvY3oFFdC2TFBGGWCPFxFgrDaEoypFvQSx2Yht7uY+Pz3vvvbdgwQJ2YmRkpIkb6XPPPTd16lQA8+fPpyUygQmRkZGXL18Gy/v3xo0bRnPxF/wINcT227uOBoj6N6QuoAMKbt++7WhFrMLNzcPNzcMkUSqVRUTFMIcent4ent7sDGoXV5NVyJj8crmCfa1MJqdjE6Syh8p0FA2zzzQuSB0SGIyccJX6L4EHkVMQOqaAOayLiBg6EIgdnCkoIkaQITyhKLYHkgCQSCQmhsDeETG0IXUaEWNiiNkSbA8koZU0qS77RsRIJBJ3d3cPDw/mkrowBObanV9tx0bDNhDoSquLiBiTrsUtwS4RMdaMjdwUoV2LK8XuETH8hlAUZc+tIx0EPWbaJSKGv0WseX6JEIE6iIjhSrF7RAxbRJP1BSEQaoN2R+VZk4ZAIFjk9/WrTx497GgtRGIw6G/dvIZP5jlakeYOmYIQmh16vb64uLiysjIgIMDRuhAIjZJRo0bFxsaCs+qaoD+4AVRWVrKX/KptjTWTpbEESeGKwH1nBaHaEuwOmYIQmh2FhYX/+te/zp8/f/z4ccu5CQQCh7i4uNatW8Pm7xfFxcUeHg9cnSx+vxDxRYkrAgI/QBPqDkdGxIC3H9CZRUfEWCOCKYHd47mGcIUKlcL1w+dKYVeXaEP4RTQWQ+o6IobBxL2/YUbENDfoSrOyA5OIGLZpJiLqNCKmthSHBJI0GUPqIiLGRKgIQyw+OLjG1nlEjIkZtW2xwV1YXqg7KnvyS/8wSWFLESqCMSQyMvLq1au1GWIxxSISiYTHEHCqS7QhzCUNxBC67wo1hNvu9jXExcUlLS2toqKCv7pMDBEkgrFFkCEE3K80i61stkX4H9tmuxb/fSei3a0ZG7kpJqOlCClcQ2zswA3BkNqG/SZjiIkUix2YqzZ/Bxb9KKmtBGuGfUEixE9BuPJMUrh5RDQqO7/x4Y+CFEXRb+3Y+Y0Cw4foAq9fv05fZbYEa4y1KMLEEG4JJqYJNcSaEuxrCF3//IZAeEAX3TstlmCLIc7OzqmpqVx3VLsbYk0J1g9AzQSTPsZziv3+Ulzh1gwg4tqdm8ifImJ2a80AYnsH5lebm2L2KkFSzKrd9Azhdj8RIvBwzzHbgevCENhWXezMxBeE0OwwGAyVlZUGg4H9hbiBUF1d7WgVHIn1eyYQCIQmAJmCEJodBQUFL7/8cgN0R3V1de3TKVrQJSLelomgHqTc+xsRFM8e3wQCoYlBpiAEQkNh06ZNRoFL0pWUlLC3/LW4opdReECBVqvV6XRMWCO3BGuWSBJqCIFAaA6InIIIjYyAqIgYvV5f1xExjCE8mwVY9AcWYQhXSsOPiKkfQ+gWMXEJtG9EjEql6tSpU0RERJ1GxBjrJbTHmjuR/65pSoY0hIgYawzhpgiNiOFKsXtEjDhDhAaS8BsCe3TgRmQIf7uLM8REqAhDLD44uMZaaQhlyx4x/P4pZlOEeqywS2AK5PdL4qZYlMIVZNEZCua8mayRwlwO66rLehGwVDl2N6Q2te1riJUiBBni5uY2adIkV9cHW6hYLFNEXYkwBGKri6dMk3ZvMoaIFiFoABFdXTwl2N6BIfxOdJQh1ki0Rm2HG2KjFCufX7aIMFum0MeuWSkinl/WixA5BWEHZzIamKSYjWuwJQSUu8a+8eGAT1sCkOj/zUblcYUKkkI9HC7LTBh5qqsugnLtbojZEozmdqYQ0egm1WVRqCBDdDpdXl5efn5+TExM3RlC37eCDLExTLo2Q/jVaKSGgHP7CzWEW4LZu0ZcB+Y3hJsiYo8YawYQ2+9EoYZYfH9jUQpXbRs7cMM0BMI7sEVDrBn2RUjh1j9XiqDqYosgaxIQmh1379596623Ro0a5WhFCAQCoVlDpiCE5ojJTJ9AIBAI9Q+JiCE0LNh+T3WEVCr18/MrKyura0EEAoFA4EH8HjH21cOBUuoaE3fixku9GVLXUry9vefNm8ddHdW+NI26qh8R9SalHiCGNDQpxJCGJoUtgmoyN4wtUBSph2aEXq/Pz8+vqKiIjha2DhiBwEOvXr0OHTrkaC0cQFVVlaNVIDRWyIcYQrOjsLBw7ty5mZmZ+/fvd7QuhKZDTU3NqlU9evcOdLQi9YqPz0pHq0BoxJApCKHZYTQaKysriS8Iwe64ucm9vVWO1oJAaDSQoABCs0MikXh4eDTAPeoIzYFVqy5S1HK1+lv6cMmSMxS1fNGiU4WFZnYovHy59N//Plu/ChII9Qd5C0Jodvj6+i5ZssTRWhCaL1Ip5empzMmpCApSf/bZ6eBgNZ2enV361FN/AnjuudiRI6M2b77+5JO74+I8KypqWrRw37//9qFDeeHhLp9+2rmkRDtp0j4Ay5Z1b9/ee9iwP+LiPE+dultQUPXCC3Hjx7coKdEuW5a1YcOV1NSgqVPbuLoqBgzYOnx45IYNV2QySWio+sqVMorC88/HjR/fIiur+M03j+TkVABYv74vow+BUNeQtyCEZoder797925OTo6jFSE0U5RKaUqK78mThWfO3C0qqu7WLQBAYaFm/vzj8fHe8+d3/PHHi5s3X+/a1R9A374h/fqF5OZqVq26OH9+x2nT2t64UZ6e/tf8+R39/Z3+7//23b5defx44cGDuWlp0QaD8d13jxYXa7/44szOnTcXLEg5fDjvyy/P5udrDh/OO3gwd+bM9qGh6p07cxYsSPHzc3r33aO3b1e+9tohZ2fZq6/G+/s7jRq1y9HVQ2hGkCkIodlRWlq6fPnyuXPnOloRQjNFLpe0auVx8GDeoUN5Op2he/cAAP/8k3/4cN7TT7fo0yeYoqi//75DR+lFR7vFxLgDCAtz6dMnuG1bz//9L/fUqbt9+gRPmxZ39GjBrl05AMLCXLt2DWjTxjM7uzQrq+ivv+74+KhSU4Nat/Y4eDDv9Om7AFq0cO/VKzA+3lunM6SmBiUk+GRnl2o0uoyM/EcfDR4wIOTJJ2MOHszNzdU4snYIzQnyIYbQ7NBqtZmZmadPn3a0IoRmCkXB3V3xzTfnoqPdunUL8PZW5eRUFBRUV1fru3ffROdxcpLdvFnBvuqRR/wB6HTGvLwquVwCIDraDcDBg7kAPDwUMpnE2VkG4MaNiooKXXy8FwAfH1VenubChRIAiYk+EgmlUknpy+nMAHQ6w4QJeydMuCeooKDK39+p7quBQCBTEELzg7ijEhyOTCbJzi7Nzi59550kdnp2dlpUlOVF8wyGB+sYRUS4ms1TWlpD/3Bxkfv6WphSbNkyIDU1WKUStlsegWAjIqcgZWVlcrmcOaxts2OLODnVemNUV1fr9Xr2Bn30D6FSeEQAKCsrk8lkuL+6Tl0YotVqa2pqmJ0w68iQiooKk40ZRYjgl6LT6aqqqujqskUKvyEajYa9gWRdGOLt7b1gwQKZTMYsqVQXhlRXV+t0OpN2t68hsNOdqFKpeHa5rKmp0Wq1jcIQpVLJs/WP2Q5sd0OsRC6XeHurCgurRo2Kor+SPPFEhNFoHD58Z58+Qdevl0+c2KpPn+AuXfw3bLiiUDwwystLOXVqG73eMGPGwd27b82Z0yE9PdYkaqZXr0CZjFq9+tKMGQezs8tmzIjv0sWfR5lp0+Lmzz++fv2Vo0cLuncPWLSoM1uiRTSaWj/cyGQydrNy4W93K1uEvwPbpWtJpVKFQsGTwS6G8HdguxgikUiUSiVPBrsYIpfL2TdabSIoihI5Bamurma3B3f3XnpjYnbtcFP40el0BoOBvYe1SQn0euEmWwYL3f5Yq9UydWG2BLOGQMhG5AaDQafTsdvDbHXZaEhNTY1CoWA/uevCkJqaGqZ3Muu180gRZ4hEImE/8CzuqC7UENodVSaTeXt785RpoyF0BzZpd4s7awuVIu5OFCRCr9dzO3BjNMRoNHI7sN2HFIu0b+/9+usdOnf2mzs3qaioOirKFUB4uIufn+qpp2LKymoApKeHderkp1RK58zpkJFR4OGhjIpyDQ93ASCVUqGh6ldeaffNN+eHD4988cU4d3fFjBntWrf2dHeXP/ZYWECAs4eHYsCAUJVKmpFRMHFiYN++IQDefTe5XTsvJydZ587+s2YlAOjWLeDdd5M9PZXp6W18fZ3u3q0OD3edMKGloPkHWM8nbhtZHPC57W7yp5RJG0F4u1vTtbgpthti8QloF0P4O3AdGQLe55dFKYwISvTC5MXFxez32Hq9HgB7ukC/wGDrodfrKYqyvsY1Gg1FUSrVvXV+jEYjXRfsEvR6vckcxWg0slOsMcTd3V0ikdD1wC2BqzbXWH7o1znOzs5sQ8BbXSIMKSsrc3Z2Zi6pC0Nqamqqq6tdXFx4SjAxhDZWkCEVFRVyuZy5B7glmBUqyJDS0tJ169YVFRXNmDGj7gwx24H51RbXgS3eiex2F2GI2Q7scEPAuf0tQr8FMenA/GoLqq6uXbu+845Hv34h1qvUBKCo5cxDhDvsW4Tb7tz7zsYObE3X4qbUtSEQ3oEtGmLNsC9CCrf+YVt1sUWQiBhCs6OysnLHjh2rVq1ytCIEAoHQrCHuqIRmh5OTU58+fRISEhytCKGpodHo6C8pBALBGsRPQbhfcExSzGYwSbT46obJT//glsA+ZPKIEMH936It4gyxPkWQCON9+Au00RBrSrC9RWCu3fmFCpLi6uo6evRoNzc3i9Vl8ltEowsyxJYOLCjFFkNEC7XdEItq2GgIt/6Ftsjff98pLtby69D04NYYG6HtbrY029tdaEpdGGKXDsyTYuVoWRfVZZJivQiRUxDmgxC7OG4Kt3bYecD7/Z5uLYtS+DPwi2CXQP9vVoTRnNu8ICkGg6GuDcF9vyEeERZTLEoR2u6iRQiqHBFdq7q6ury8nO3fwG8IVw2LhpjV3CEtwu3AjdQQboqJCP4P0maHFItqC6quU6fuFhY2u53rmfrh3jUWQxDMNoHJfWdjBxbXterCEK4UoR1YhCEmtSfCEItPQNGGUKIjYiiKEurOI9Qvhq4pdmREXbijMiLo/+vCixOASYhHXbij0obUqTuqiSFmS7Ddi5NW0qS67OuOmp+f//LLL58/f/748eN1ZwjMtbvdvTituRNt9OZrmIZAuDefSdfilmCjOyqAGTPim5s76nffXWDqR4QXJ7fd7e6Oak3X4qbUtSEQ1YGF3nci3FG5UuzujsoWQdxRCQQCgUAgOADijkpodsjl8qioKKFvAggEAoFgX8gUhNDs8PT0nD17tpub5WWwCQTb0euN+fkaAFKpxNdXVRci8vOrPDwU9M4vXKqq9KWlWtaa7pRcLvH25lsik0CoH8gUpOnAdVF2OA1QJbA8Xu276iWh6cHuwHq9vrq6WiaT8S/UbYJeb8zKKurUaaNEQoWEqI8eHc5sDmdHkpI2bNzYLzHRx+zZ7dtvzJhx6M6dyspKnVotUyikiYk+u3YNtrsadqdhDiBWYuLFSTCL+IgY2heGOcR97xgmhetYTsNOtBgRY1KmSQkW1eAXwS6B/t+sIVyhAEpLS93d3XlKJtQdn3766UsvvcQcCm13xh01IyOjthLMdmBBXQuAwWAwKdPiXSPIECvL5L9rmpIh1vjhCzLEJM/NmzcTExN9fHyee+652bNn85jD0KrVz1OmxFZUTKIPY2LW/PLLo4mJPnfvVnt7/wBgy5YBgwaFxcWtTU0N2rbtRnZ26dSpbc6fL/nzz5x+/UL++GPQvHnHfvvtalyc548/Xvzvf/sMHx5x8GDuiBG7Cgqevny5NDp6TXZ22o0b5cOG/bFhQ7+OHX0pajmAt99OfOWVdh4eSgCPPx7x+OMRdObz58cEB6sB0Nlwf2O89u3XdesW+NVXZwEsXtxly5brO3fe/OijTunpsV9+eXbt2ssnThQC2LFjEL3cO3M5u8a4d41FX0huE1h8cAjtwCK6q10M4Za35F/aAAAgAElEQVRpewcWYYiJUBGGmH0C8leXlYaIj4gRGhkBURExXD98u0fEMCJERMRMxMSJmGi9LIJd+A7fWfQMtxK2Jz/qILSHG9Jl90ASa+5E2wMK6iEiRqghqJeIGBPn/5iYmNzc3PT09I8//njZsmVXrlzhl1hcXH3lSlmnTn5MyqlTI1Uq6e3blUOG/FFWNnHDhqvPPLP3yJEnANy5o1m/vm9enmbw4O3btw+aNy/5009P0Vfl5mqGDg3fsWPQ0KF/dOo0misoJET988+PJib6xMevmzcvuXv3wIULT65YcW7mzPZmFcvP18ybl/zyy+3Wr7/Srt06eoZ0505lWdnEgwdzP/nk1L/+1X7s2Jj09L/S02MB5OVp6FNz5hxp08Zz4MBt8+YlT5/edsOGqxMn7jUajfQWQiICSbgtYhIbiIefmiI6sDVdi5tiuyFctW3swBYNsUtEjDWGwLbqYosgH2LEI4fcCU4UyKu2ekUOvo03rUEikbi7u7P3QagjyGvYxg718C5aEolErVavWrWqpKRk1qxZHh4eU6ZMefvtt9n7zrAxGmEwGEND1UyKs7NMqzVkZ5dmZ5e4uMiffrrF55+fPnQoD0C/fiHh4a7t23vX1BjatPGQyyXBwc6XL5cCaNfOa/To6NhYj549A3fsuNm6ten7V4qiVCrp2bNFp0/fPXVqJID9+29fvlxmViuNRnfgQO5bbyUCmDCh5fvvHysvrwHQt2+wi4u8b9+Qfftux8V5RkW5arV6epmTuDhP+tSKFed+//3a6dN3N27s5+ammDCh5cSJe7VaLc+2qLZAid3FrCFAbn9rIFOQpkA/9LuLu/TvaZg2DMMO4/CbeBPAHMzZiq3HcfwbfJMAy0uSL8binujZAR3qVmOH4uPjs3DhQuKOShCNu7v7119/LZfLly9fvnz58ueff37BggXcbJ6eSgC3blVGRT3obDqdITdXI5Hcez5FRblev17OL87JSerlZa0DCvOJZMCAUGuyAdDpLDzmnZwePClqaowAHrZIZ6VuBIIJxB2viTAO47ZjewYyJmDCZmxeiqVqqFui5RqsyUSmL3wTkLAVW8di7FiMzUMeACOMecijU1ZjNYBX8Mo6rPscnx/G4YM4SJ/6HJ/fwR1H22dP9Hp9YWHhjRs3HK2IY6ipqXnjjTd69+5NHxYUFMTGxiYnJ589exbA008/HRsb26HDvTnoBx98EB8fn5KSAqCiomLjxo1t2rTp3LkzAIPBcO7cudjY2EceeeT69esA6MPExMTff/+dOWzfvv17770H4KeffoqNjY2Li6NLPnbsWGxsbGxsbFFREYALFy7ExsYmJSXt2bOHvjYuLi4hIWHx4sXMYXx8/MSJE5mS27ZtW1NTA+DSpUt0UbRzz61bt2JjYxMSEv7zn/8wmdu1a/fiiy8yh23atOnRowctt2vXrrGxsbSNN2/epIv6+eefARQWFsbFxcXGxr7xxhsAKisraRMGDx4M4IUXXoiIiFCr1YsXL5bL5SdOnODW9rp1fceM2XX1ahmA77+/EBe3tqbGkJTk4+2tArBjx809e24PGsQ3VwBw6VLprl23jh8v2Lv3dmpqUECAs05nALB7dw47W4sW7tHRbtu2Dbp2bexrr8V37epvtjSlUpqQ4L1t2yCjccqxY8MTErydnCx8DsjOLgVw/HhBdnZp//4hISHq5cuzDAbj9u03ATg5OfFfTiDUhsi3IFauOG5xXXP+b1RsKYxHDP/6ymb9YnhEMPmZBdq5ZXKFcg1pUPRBn1M4lY/8V/DKTuwsQlEv9MpH/q/4tSd6tkKrGZjxI36sQc0MzAhGcFu0/R2/xyBmCqZcx/VhGBaM4OmYnoIUL3jtwz4llM/hOUeb9QCLbQTedi8pKVm6dOn169dXr15dWwkmHVhc12JfYmXXEirFmjuRnWIwGK5cubJly5auXbvSiS4uLt99951MJouIiAAwe/bssrIyRujYsWO7detGS1EoFJ07d/7Pf/4jlUrpr87BwcHffvutRCLx8/MzGAzMYUREBHOWoij6bJ8+fWJiYhjFWrRo8f333wNwdXUFEBQURF8bExNjMBhCQ0Ppw8DAQKZkiqLc3NzoQ3p6QVGUwWAICAj49ttvAbRs2RKAt7f3999/L5FIgoODAYSGhn7//fcURbm4uDBaAZDL5UajMSgoaPHixTqdTiqVGo1GHx8f+mxERITBYHBxcaHl+vj4GAwGuVxOa6VSqeiSw8LCLl++7OrqOm7cuF27dnEbqG/f4DffTBwxYqeTk8xoNK5c2dvdXeHkJFuxoke3bpsKCqrmzOkQE2PBsV2r1W/dev2jj0589lnn8HCXigrd88+36dZt05Ah4XQGpVIyadK+77/v9fPPj44du9vFRR4X59m/v/mZjURCBQer+/ff6uurKi2tGTEiqrZoXpYChm7dNpWWat96KzE83GXjxv4jR+784YcLBQVVACQSCTN+mgz7FpcD53Zg7n2Hh9eAr+t7xKwhIqTwGwLOOAZL1WWNITaOjRal8BhifbuzRdThNnXcFEFf9YzmdtzhF2H2EotS2FdZKVSolHpgN3ZnIUsBxTRMa4VWHvCoQlV7tD+JkwooghB0GIe10D6KR/3h/xpeO4qjWmizkPUMnklCUlu0jUCEN7yd4BSBCDXU13ANwCRMeg2vucLV0faZYk33qw2dTnf9+vXz588L6l2CRDD567oDWyyTexgQEPD5558HBwfT6XK5/JFHHmHOtmnThp05PDw8ICCgpqbGaDRKJBIfHx8fHx/GLmdn55SUFEZt+pCRyBzSKQEBAQEBAUzJrq6unTp1Yg5NMtOH9CjGLpl2DnB2du7UqZPRaKQPnZyc6LP02KpUKtklq9Vq+rCmpkaj0ajVarYgJyenxMRE5lCpVLLPyuVythoSiSQlJYX2pKuurh49evS1a9fS0tLGjh0bFRV16NAhbuu4uSnS0qLpzxbOzrKkJB8ACoWkSxd/2hsjMdFHpZIuX949PNzVxUUGYPv2QZ6eSomEmjo1LjDQGUBYmOvEia30emNKiq9CIZVKJc8/H9ezZ1DLlu4JCd6Bgc7ffderokIXHu7i6alcsqQrgOBg54iIh27bwEDn7dsH0W9f5HIJnQ1AfLyXREItXdqd8Vl55pmWXl5Kg0GxffsgNzcFgNBQ9b/+lQCgSxd/pVKalOTz9dfd6cwDBmyFuW7MYPumaLbc7NaXwJ9ijWOH7YbUxTZ1QkVYLMEaTaw0hETE2BQRY72UeqAP+ozDOB+YXxgAwF3cPYuzYzCGPjyLszroAPjAxxOeSUhiZ/aE50iMXId17+CdAAQ8iSejEV2n+gvCxogYxh21riNiGlogyWuvvTZjxgw/P79evXo1akOYFIfsEXP79u3nnntu+/btn3zyydSpUy16Ynp6Kvv3N904Ri6XsBO7dn0wOWPSY2PveUy7uMjatfP097+3q6JUSoWEqENC1AAiI10BdOtm5nITnJxk7FMm2bp0efDVpkULdyZPSYkWgIuL3CQ/+9CWPWL4I2K4w76IO9FRETF23yOmSUbEEF+QZkQCErZhWwYyMpDxNJ72hz8A2i+Ey2zMzkDGeIy/gzv7sb9+Na1baHdU2uegWfHVV1+dOXPG0Vo0bsaMGRMVFZWVlbVkyZIXX3yxjiJB2Lz9duKGDf2Y+Uc94+6ueOONDr/91t8h0glNHhIR00T4B/+UoEQFVQpSTF5p0IzAiMu4PAuzwhDmDvcpmNIf/W/h1hIs2Y3dxSh+Fa+2QisNNKuxWgPNLuy6iquBCOyKrmYLbLxotdorV660bNmyWbnRnTt3Lj4+/tFHH23IbkwNGdp5aODAgfPmzWvVqpWj1SEQmgJkCtIUmIzJGmjo365wlUCSitQKVABIRKIznGMRq4Z6NEYfwREAAzFQDbURxjSkKaAAEInIVmgF4Ek8WYEKP/iNx3j65Ycf/OIR7zDb6oCioqIlS5aMHz9e0PeIxo67u/tbb73laC0aMT4+Pk888QSZfBAIdkT8Au321cNRUhqaV6k4RsN0wcTO6Ez/aIu2bdGW/t0GbdrggbMhBcoVrs/gGfaFIzGS+R2JyDpR19GUlZVt3rx58uTJdSqlod0jgYGBgwcPFqFVQzPEUTg7O5P5h91pMoM8MUScCJG+ICYrS0qlUhO3GqlUauKcIpVKBTnFODk50ZFvNLQHokkJJkJN/GiswcPDg60ntwSzQhuaL2pzg9u1BLVIVlZWeHg4vbhFbSWYdGATB1hrMNuB+dUW14H5y2Q68N9//z158mQRhiiVSmfnB44IDjeEnSJIhEwmM1nG1KLaIqqLC0Utp//VluHvv+9kZhaJK/zvv+/wlFzPcId9i3DbnXvfsdtdRItY07UsPr9ESOE3BMI7sEVDrHl+iZDCrX8bq4stgnyIEY8WWvpjB6E+0UJrYwnDhg0bNmyYXZRpRGRkZKxfv/6bb75xtCLNiOpqfWjoT7/88uioUVF5eRqKWn7pUlp0tFt5ec3q1ZcAjB4d7e6u2LTpmr+/k7+/s7e3kr5w586cqird7duVbdp46vXG8+eLvbyUI0dGAbh7t3rdussA0tKi3dwUmzZdA3DlStk//+QpldK8PM2UKbH79t0+f74YwNCh4V5eqqysoqys4tJSLYBevYJatnQHsHx5Fi1r6NDwgADn9euvBAQ4nT1bBKBLF//r18tv3qzo1MmvfXtvAJculf75Zw6Ap55qoVaTpwbBbpDOJJ7LuLwTO8keMfXMZVy2ZqV5Lkaj8e7duwcOHBg6dKiVl5w5c+bUqVMiZDVAjh07ptVqmdXYGj5jx451tAq2otMZZDJJTk5FQUGVn5/T2LExeXkaPz+njRuvLl+epVLJystrnn8+7sSJgsBAdUVFDTMFWbLkdFiYS05O5dq1l1NS/M6cuVtZqaOnIOvXX/nPf85HRrpWVuqmT2934kQBgPPni99+OyM21lOtlk2ZErty5YVbtyopCjk5lS+80Gb79hsrVpzr1Mnv2rXyq1fLFyzoWFWlX7o0MzbW8/r18pycynfeSZw372hSkm91tT4/X3PpUqlOZ/jnn/y9e2+vXp167Vr5zz9nZ2YWXbtW7uYmT0uL4bOZQBACmYKIJx/5WchytBbNjnzki7swLy9vzZo1R44csX4KsmHDhg0b3hEnrgHSogU+/vgpR2thFSdPNoUpiFotnzIldtWqizU1hlatPD7+uFNwsPrIkfwPPzzx0Ued3N0VQ4ZsHzAg9O23k7y8lGFhDz4SyWSSp59uGRXl5ue3csaM+BdeaPP111mVlbqqKv2yZZnz56ekpgZ5en4/YkTU228n7dyZ4+vrBKBbt4DXXouvrNS5uMg/+6yzSiVt23bt6NGRAFxc5D/9lLp9+43XX//nzTc75OZqXn01fvz4Fn/9dWfgwK1vvJEAQC6XfPttz8zMonfeyZg9u0O/fiEDB277+utu27ffOHw4b9Om/n/9dWfWrMO9ewf7+zejUDJCnUKmIOLpju7P4lnyFqSeWY7lN2/eLCkpcXd379ChQ2ZmpsFgWLp06eTJk1NTU/fu3Ws0Gv/6669u3bq99dZbCxYsMBgMa9asGTNmDIDExMTp06cLEvf883VjBoGX9HRHa2An5s5Nmjs3CcDdu9Xe3j/89dfQq1fLMjOLhgzZTmf45ZfLjz4abHJVixbuISFqX18V/dvVVREY6HznTuWtW5VHjxbQC5ICWL36EnsjGHqxsmPHCtq3927d2gNAt24B58+XAAgOVgNo2dK9psZw82Z5Zmbx+PEtAHTvHtCtW4BGowfQoYM3gDZtPFu18ggKcvb0VAC4erUsO7v099+v0R4noaEumzdf/7//I265BPtApiCERkYmMi/+eLF9+/bjxo2bO3eul5cXRVFt27YF8Oeff7Jzvvfee/QGaTT+/v7+/uY37mpc6PW4dg2HDqHxvyZo4pw9WzRjxsHt2wcB8PJSRke73bxZoVBIuncP2L//wau4v/8WsA3k4MFhmzcP4Lk2KMj5wIE7JSVad3fFpUul9G69bGQyib+/0+XLpfSy8ZculcpkfH9HubnJX3653WefdebJQyCIg6yOSmhkXMGVjh07jhs3DsCwYcO6d+/erVs3Ey/uZohej4IC3L6N27dBrz2m1987vHsXOh20Wty+jaIi3L6NcgubwxPsQ1yc540bFYsWncrMLNq79xZFoWtX/0ce8ffyUi1ZcmbVqosREav37bvt7CzLzi7VaCxved+tW4BKJf3qq8xTpwpDQn7KyMh3dpYB0Gr1TJ6oKLcLF0p27ry5ceNVvd4YFWW6wZNcLmnZ0uPLLzMzM4sWLTql1xtVqlpDM4KD1UlJvkVF1ZmZRatWXUxN3Sw6eIdA4ELegtQhBhhykesPf0k9TvVykSuHnAJVhSpnOLuDbxNOLbSFKAxEYL2pZzst0ZLZ8J1AYzAgJwc//YSyMlRU4K234OWFK1fwxRdQKBARgUGDoNdj4UIkJyM7G506YcgQ1P3a4gScPTsqImL1F1+cAbB//9DQUBcAX33VtUuX3wB89lmXLl385XLJ8OE7fvutPx1+AsDTUymVSgCEh7vIZBKJBK6ucplMAuD99zsOGLD144+xdGm3pCRfikJ4uEt+flVQkJqJVfH2Vr322iEAa9f29fJSubsr/PxUAGQySVCQs1Qq8fZWrl9/ef36y3QemUwSGOjs4iKnL/fwUEqllEwmCQ93kUiogQNDtVr9oEHbAPz4Y2qbNp71WoOEJg3V8FcEqgfo/TYFXVJRUfGqy6v8viClKE1F6m7s5p8H2Jf92N8DPeZj/hzM4c9pgOEUTk3G5Axk1I9udmE5lrdZ3EaoS4c45s2bFxDQ4NxRuR9i9u/H5s0YPBg9e6KgAL/+irAwbNiAmTMRHIy9e3H0KNLSsHAhpk9Hq1Z4/nkMH47+DXjfj/T0RrBYmQldu3Z95x2Pfv3M7xLXVKGo5Y2upQgNB/Ihxv4kIzkZyWuwhj6ch3nJSH4ST9KH53COznACJ0wuWY/19OE4jKNTdmAHnbId2+kUbjwInX4Ih7TQJiP5VbyajORf8SstYiVW0hlykEPnv4iLdIoW2smYDOAu7tZZZRDqD9f7b9zLy1FVBQDM56nqatPMhYX1pRaBQCDUgshXsbm5ueyVH+mNr9hrqNEbE7MvMRqNJikURbm71/p6oKysTKvVsjeipMtkF2IihZ6Mm0jh9xLIy8tTKpUASkpK6BKMRqNFQwBoNBqzBY7AiPfwngtcTuLkIRwC0B/9p2P6L/iFzvAxPn4Db/RH/1Sk/opfgxA0AiN2YdcZnFmMxY/gEQBjMGYgBuYgZzRG90O/ndi5FVsP4dBO7JyFWd/iW7ooHXRjMGYapoUj/H28/zE+PoRDK7FyCIYsw7KBGNge7f+L/y7BklCEDsfwwzh8Huc/wSeHcGgVVn2JL5dhWTrSveDFU0UNEI1GU1xczBwKbXe9Xl9YWEi3O01tHbia++huwDAeHi4uoO/O4mKo1QDA2Fpaeu+Ht3c9ayeYoqIioUOKi4sLz9a1Wq22pKREoVCwy2SLoG9/i1KI45EJzM3IrSuVSsV+UnDhPkpEtIibmxvPGqDWPK3w8ADCFSGXy9X0vWS1FP6nlVkp/B3YoiHc6uKKkEqlrq6m7kFCDYGl6nJycmIPsLWJkEqlIqcgSqWSPXvQ6/V4eLlZvV4vkUjYaun1eoqirF8sViaTyeVypi6MRiNdF+wS9Ho9W6jBYDAajYJWvVUoFG5ubgBoc7glcNWmjWUPZAyXcOkarg3EQADxiC9HOYBO6CSHPAxh9HuIClR0RVc11IEIPIMzRhiv4ZoLXLqh22ZsPouzcYgrQUk1qsMRfhiH6dVH3OAmg2wgBv6KXw/gQFd0BXACJ67h2gRMALABG47hWBu0kUAig4wCJYX0JE4GI7gLugAIROBe7C1EYTnKZZBNwISbuFmAAuvrquGgUqnYjwFu9+OHoiiVSkW3e20l0B2Y5y5qULRrh927kZmJHj2wYwciItChAzZswD//IDERmZnwuj/JPHECbdsCQHS0A/W1Cjc3N4t3oqCbXSKRODk5sddotziA0MMO2ZCBH+Zm5A77FuE+StglcId9ES1izdOKm1LXhkB4B7ZoiDXPLxFSuPUP26qLLYI4pNUV7nDnuonkI18OuT/8AYQi9A7u+MEPgAwyAH7wu4M7/dDvMA4vxmIAC7CgAzoA2I7t27EdgD/8TeYNyUimf4QhjKvGSqxciZX07yI85MoehKBGOgUhANi3D/v23fu9eDFeeQVffnlvOY0lS6BUYv58zJmDffvQsSPGjEFuLgB4eGDGDAwfjhiyxCWBQHA0ZApiT+hJwDmc00CzEzu5O822RVsJJH/gj97ofQRHXsErYQgLQEAFKi7i4j/4ZwEWHMCB8Rj/Bb7IQc4wDPsf/heN6L7o+wE+OIdzX+PrdmhHl9YarUMQMhMz/eH/KT6lJytsWqP1cAwfgzE+8JmMyYlIzEd+FaoA/Ibf9mAP/QaF0LiQShEVhWXLHkp0csKch/2PfXweykNPQeLjkZZW9yoSCASCFZApiD1RQLEIi97EmwYYHsNjKUgxySCDbBImLcKiH/HjbMwOQYgMssVYPAVTNNAMwIAQhPjAZxZmfYEvalDzJt5UQNEd3StROR7jNdCMx/ggBNGlqaH+BJ/MwAw6T2u0NhGngsoXvrMxWw75IAwKQIAnPMdh3HiML0ThF/iCDsctQpEnSKBdEyc0FG+8AT8/R+tBIBAI9xE5BTEajfSHKOYQ9z9NMSn0FyN2Cg07kedLGJ3ZpEyTEiyqwS+CXQL9v1lDuEK5Uhh6omdP9GQOmXjX0RhN/+iFXr3Qi31JDGJ+wk/MoQKKpVjKzuAGt1EYNQqjTGRRoGIQ8xt+YyfSLzaYiNxn8eyzeJY5q4RyBEaMwAiuho0IG9ud7pzWdOCmFG2oVCI83NFKCEHo7Q+A/4O02Xa32JG4UohriAlM/XCHfYuOCNwmsPjgENoi1jytuCkOMcRiBxZhiIlQEYZYfAJyjbXSEIqiyFsQAoGPfJGb4hGaI/37b3W0CgRCY0LkFISiKKEexUJdc+lAIKbMOoqIYUTQ/1sfEUP+EnIgFrufxcslEomVHfiOgO07CPaE28o2BhSYbXc7RsQcOHAAQHFxMX+4ltkUQYYYDIaysjJ22MLzzz8/Z86c4OBgtiHciAxBUsQZIjSQhNvKdo+IseZpVf+GQFQH5lfbLhEx/PedXSJi2CLIWxACgY927RytAYFgiXbt2jk5OTlaCwJBMGR1VAKBQGjc9OvXj73eCYHQWCBvQQgEAqFxExERIehlO4HQQCARMXaOiCHUAyQipjnQSCNixIUtCDKEe8nWrVt79OjBvAihRXBH4KYaSNJkDCERMdZismg8OKvEGznbdtAZBHmsWCzBaMX2AVYawvYbskaoICk0P+PnPuijhfYojnZG593YPQZjhBZiOzro1mO9INHlKN+HfYMxuO60Eoot7U7dh305OJ2ttstfegktW8LHBwAuXkSPHujZs7a8gklPx8yZZOnSewi9/fn7gNl2FzqOWaOz0JFQ6KjFlbJt27YOHTqw9/6oTa59DbEowqJE/qpgRNSpITxybTEEddOBhRpicpW4FrFvB2Y/dsVPQUw8e01SjA/7YzNaCnpbKJFI2I64tN5cKcwhd9se6w2h/ze78Q9XqFApNAuxsBVaOcM5G9nt0G4hFjpkClKDGkGiy1F+FEdXYEXDmYJY7H5CS+C2KbcDMzg5oXt3tG8PALt24cCBe1OQU6fubRSXmHhvl7gbN3DjBgICEBUFAP/7HwCoVGjZEmo1Dh6EhweKi9GlC44eRXX1g51cCDDXRvy3v7gy+QcQ+s87u3ctboqNhoSEhCiVSiaFMYTpwCKGX3GGmDycREhhl2A0FxFjd0OseX6JkMKtfxs7sEVDrHl+iZDCrX+zUqyvLnaB5POh/UlGcjKSl2FZGcoALMOyZCQ/jsfps3dwZyd2XsVVAE/gCToxF7kjMfIjfERfewu3AOzADvpwFEZtwqYTOJGM5ImYOAqjmFPJSP4QHwIYhVELsTAZyS/hpTVYMxVTk5HM7A6zBVuSkTwZk/ORfxM3ATD60IUcwREAJ3BiHMb1R/9N2ESf3YEdL+JFensaApeCAtB/eS5ZggsX0Lo15HJMnw4A27Zh3z506YLTp3HwIDIzUVaGLl2Qn4/581FQgB9+QHk5unQBgBs37u0eRyCIYNasWT70ezkCoVFBpiB25nE8/hJe+gE/nMXZdVgH4AIuLMGSr/E1O5sHPAD8il/ZiVnIykDGN/jmT/xZgYo38MY3+GY91icgYS/20nmew3NrsZY+Re8psw7r9NADyEd+BjIqUbkf+9ORvgALlmAJgG3Y9gf+yEBGB3SYhVkhCAGwERurUU1ruwiL3sJbdPmd0OkH/DAUQ+nDfuj3Hb6bhml1WWeNjOJifPUV0tORno49ezBpEgDcuYPkZHh5oWNH+Pri7FncvAlPTwDo3x8tWiA/H0lJANC+PVxdce0aAERGAkBBAVq3hrMzWpuusE8gEAhNGfHuqNyP5SYpZjOYJPK/umHnp39wS+C6yQgSYXKV2RKsTAFwCZdu4mY7tNNC6wvf67h+FVc94NEO7VzhqoSFnd/plyIJSNiDPedwbiu25iAnBznsPFGI0kNPnzqJk+zNeDujMwA3uLVCq1CE+sIXwEVcPIdzRhiP4zi9K+9+7Kfzn8RJWlsAvvDdjM0hCAlHuDvc0eCx2CJWtjtPSm3uIB4eGDsW8fGYOxdJSaDlyGT46ScoFADg/nD9qVTQ6VBVdS9dKoWr671PNjTl5XB1Be1Rx1oLimCmRfjbyJpXwYIGEBFDijVjI78aFkVwL/npp5+GDh3q/nDPc4ghJinW3IYWW4QrpQG2iJXPpuGAidcAACAASURBVDo1xMrnl8PbnREh3hfE+LAHrJHjgF3bzWziN2sxIsaiFP4M/CLozHR++n+zIozmPJVMpDDIIV+ERfTveMSXo1wBhTOccf/NBw9OeLC4kAqqlVh5BEckkBSjOBaxzCkKFH1KDnkNavjLBCCF9DzO01r54KG3tWxtGxE2tjt9udAObAJFYfRo/Oc/iIxEu3Zwd8ewYYiMhE6H3Fw4O0MqhU4HAIWF0Ovh4oLbtxEWhvJylJQ85Pbh4YHsbPj4wGhEcbH11dDEEXr7w7qIGKEDCFeKxfgLa7qWLYaANXDRHDx4sHfv3ow7qtknt0MMseiIYFaKidrcEbgeDDFRwy6GcKWI6MBCDTGpPYtOG1wpFp+Aog0RPwWxC9a45jpch9rymE2UQ+4P/2VYpoSyGMUSSGpQU4ayPOT5wjcXufyC8pAHoBrVSijLUb4Ga7ZgixTSNVhzGZeZbFpo6VN+8DuDMxMxkadMGWSucO2P/jMwowxl5ShXQ02fUkFFayuDrAAFPvDJQpbF2mgCCPWYq424OCQkYMcOREXB1xdZWZBIUFiItWvx9tsICEBhIXJzsX07AgIQHY0jR6BU4uRJyGS4v5Q2AHh44NgxuLqitPTeexQCQRBqtZr9gKQoimf2XJ/Y5UarhwdBE8b22qvT+hc5BbF+iw12iiDXXOrhDR2MDWyPGLOGhCN8IzYmIxnAY3jsGTwTici2aDsEQ7zhTX8ooZFDDiAFKf/gHybxJE4uxmIAO7DDC16d0XkwBndDtwhESPFAJRVU9CkppO/hvRCE8LwL8YLXREyk3VFboMUreCUFKQCSkZyBDEbbV/HqWIy1vt4cC2XbHjHWlMCz68FHHz34/fTTpj+iotCxIwAMGnQv5Zln7v2gQ20fv+cHjGXLHpTz7P3NjJOTrTeiicNtI/7b35oC63SPGBprxkZuitA9p0ykfPTRR+zuajYipn4MERpIwpVi9z1iGqYhEN7uFg2xyx4xXCnc+odt1cUWQVZHtT8ZyGAfpiEtDWnslB7owc0GYAAGLMRC5vALfFFbyexT/dAPwFqspQ8/xafc/IMxmB1SyxbN/p2AhAQkcC0KRvBGbOSmEwgEAoEgGhIR01BgO5YSCASC9WzdurWiosLRWhAIgiFTkAaBP/zXYm0f9HG0IgQCofGxbdu2kpISR2tBIAhG5IcYNzc39iH3g5Y1Kfyo6AUm72PyYdhsmSJWLHVzc2N/weKWYLshBLtj8tFRxHd09lLWZksgrexwTJrA9jaSyWRqtZqnBO7tb3bY4acexkZuB+7bty9bbmMxxKIUrtpNxhARUiwaYs3zy0YpdjdE/ALt4i5sUCLqTQqhoUHavXnSVAeu/v37m/zNZncRdURTbZFGKqJ+pLBFEHdUAkEY+flYuvTe7zlzIJXi+nU4OcHX16FqEZoxzs7OjlaBQBAD8QWpP5KRfAIn9mP/YAymN3xxiBoaaKwXfRAHJ2MyvY8Me22S5syKFejZE2+/jU6dMG0aKiqg1d5bhYxAcAhbt24tZy+4SyA0EsgUpL7pgR5bsCUOcY5WxCqO4dgADMhAxkt46XN87mh1HE9BATQatGsHAP37QyLB8eNYuBBLluDmTQD39o5Zvx7FxaisRHo6li5Fejo++MCxihOaMlu2bCktLXW0FgSCYMiHGDvzIT7UQBON6PM43wM9+qP/O3gnEIERiKAz7Mf+j/DRXMwFcBiHO6ETgFzkvoAXAhE4HMOv4moQgnqi5xRM6Y3eaqgzkOEBj0EYNBmTX8NrUYj6N/7dG73DEX4Kp/Zgz6/4dQzGtEbrVKSuwRp/+Cci8SquHsTBn/HzMRzbhm1d0OUgDqqgmoAJAA7hUBKSFmGRBhpf+GYj+zN8dgInNmFTEpISkRiIQAAv4AVa7e7ofhiHy1HuAhcHVGuDwccHaWn44w9cuwZ3d0yfjuhoBARArYabGxYvxsyZiInB6tXYuRMpKQDQrx+efRZnz+LwYXTq5GgDCE2RpKQk8i2G0BghUxB7kovcrdj6Pb73gtcKrMhCVgpSdNANwAB/+LNz0quj0vMPhhjE9EbvIhT9F/+NQEQa0jqjswGGfORnI5vOk4KUcITTpzzg4Q//VVhlhBFAKEJ7o/cGbHCGcyISW6DFKqzKRe4JnChHeW/01kG3Fmvpfe8ewSMXcZHWVg31TMw8jdMAWqBFd3R3w0NO0QA+xacpSGnm8w+a1q3h7Y2rV5Gbi02bMHr0vfSyMmg0CA0FAG9vFBWBXqnBxwcyGVxccOeOw3RujFy4cEEmk3l5eXl4eFRWVt68eZOOBPH397d8cTOjf//+Li7k3iQ0PsgUxJ6UoawSlb/gFwCZyAxCUB7yXOASiEAllJ7w5L+8BVoA8IRnNaq10HrDexmW1aAmG9leuLetmStcKVD0KSOMlahkLqe3xpVD7glPNdT0mu6lKC1ByQVc+BAfFqCgFKVXcIXOX4QiRtsCFJzH+RjEqKGmp0dsTuGUCqpH8ahdaqlRc+0acnORkoKAAJSU4MAB5ObC0xMApFJQFGpqoFRCrwcAOkSO3r9Jp8PDAaEEC7z++utqtXro0KEjR448dOjQl19+qVAo2rdvP3v27KNHj3777bdKpXLhwoUkfBpAMHvPIQKh8UCmIHYmBCGzMZs5zEFONaorUamEsghF/NdqoKF/yCArR/mLePE3/OYO91/wyxmcYbJpoX0BL/yG34IQdAu3tmEbf7EucOmBHtMxnZEyD/MAUKAYben/T+CEybVlKFuN1cdwbBmWgQCEh+Orr6BUon17XLiAsjIEBKC6GgB8feHnhwMH0L8/zp9HVBR8fADg0iW0bo3Ll+/tHUOwkvXr1zO/U1NTU1NTmcOkpCSKog4dOkRH92VlZUVGRto9KrXBUl1dfebMmaSkJCZl69atPXr0YF6EHDp06JFHHnGQdgSCAMgUxJ7EICYNabMwywc+JShJQcpQDFVBtQALohEdghAmpwQSACuw4lk8yyQewqFCFN7Bnf7oT+ffgi166C/hkoTlOCyDjD4FoBrVbnDTQ1+bSn7w64VeO7FzOZbnIMcLXmMwBsByLJ+ESbS2rnCtQAUzR2EzH/OzkZ2ClOVY7g3vR/BIMJr731tvvom9e3H9OgAsXAi1GhSF339H9+6YNAm//47ff8eAAYiMvPf+o6ICe/fC2/vejIRgFxITExMTE+nfx44de+yxx4YMGbJ48WLHalU/GAyG69ev37lzZ9CgQfQk7M8//0xMTKSnIIMHD37uueccrSOBYBUipyCVlZUm+0ni4fVGjEajyQon3DwAlEplbSK0Wi29/571UoSKYBtSTf8la0WZdAqT34Q0pN3BHQA90IOOfR2AAXuxVwrpBEzwg58b3IZjuB/8xmEc+zMKgEhEVqLSDW7t0M4ZzhMw4Squ0nvtlqCEvsQJTjLI6FMSSAZgAP1pZiiG0t9xeqGXH/xUUMkgG4dxSihboIUOuj/wRwu06IEeAQigRcsgY7QdjMEBCDDAIIdcxuoVCUgIQACASlS6wMUAA09l1hs6nY5d/0Lb3WAwVFVVWdOB6b0oTXB1xZAhpolMCvtUZSUAJCeDfKYXQVVVlcU7kT4cOXLkrVu3/vnnH4PBwLNEsl6vr66uNml3iwMIdyizckjhUbs2QxhkMhnPByaVStWpU6e0tLQ+ffrQF3p7exsMhurq6iNHjvz111+LFi0yqT1HGSKVSmUyvqcMV4rFBwc3j0Kh4FlQyy6GSCQSudz0C7XdDZHL5Twd2KIh3DK5eSiKUigUdW0IfwdmREgkEvFTEPZSx8ze0OwUi3rzr8Km1WoNBgPT6kajkS6BR4rZJrFoCO1JTptg1hCY6690ullexsvsQ+72s1GI4mYD0Aqt2NvEPI7HTTIwl7BPtURLAOMxnj4ciqHc/LGIjUWsWQ3Zv4MQFIQgtkSTPX4bCAaDgT05ENruRqNRo9GwIwhq68B0yaKRydCjB3gHLkKtmPwFYvZOZA7T09MtfnrQ6/VVVVVOTk7sMvlFwNzwyo81YyOPITT8Di50CcePH9+3b1+PHj0A9O3b19nZ2WAwLFq0KCIiIiwsjN5j3eGGWNw0gyuFoij2HvfWPPDqwRCLEu1iiMXpmghDTFJsbJHapAjqwGwRIqcgMpmMfSfTzwO2VHr4YKtF3xLWb+NCT5+Z77tGo5GuC3YJer2eLdRgMBiNRkHuaYwh9P/cErhqm/3L2Eb84b8O6+xebFNFLpezJxDc7scPRVFyudyaDsw/IlhEocBTT9lSQLNGpVJZvBPZGbp3737t2jU/Pz92y7KRSCQKhcKk3fkHEHrYETekMCLA6VrcFEEiKIpSq9XTp08fMWIEvSJZhw4dJBLJypUrt2/frtFoaEPYI3C9GWIy7IuQwlWb3e5NxhAIb3eLhljz/BIhhVv/sK262CLI0mQEAqGJMHfu3KtXrzpai3ri/fffVyqVL7zwAoBt27ZVVFSsXbt23LhxjtaLQBAAmYIQCIQmws2bN4uLix2tRf2xaNGilStXnjt3buvWrTNnzrx169aKFSscrRSBIADx75m5n8lNUsxmMEm0+OqGyU//4JbAPmTyiBDB/d+iLfzFEuoUiy3C3+7cjsQtgTSxw+G2CH8btWnTpravMNaUwL39bRlSBKUIFUFf8swzz3z00Udvv/22l5fXrl27+vXrx1We/bseDDFJsdKQ2g5Nxv/aLmk4LVLboTXPL2uk8Ktt5fOrIbQ746QicgrCfBBiF8dN4daOiRcnz5cwurUsSuHPwC+CXQL9v1kRRnM+xjzuqLVxCZeCEUyvduoP/xzkxCBGaCG2Y4DhMi5bKVoLbTGKS1EKwCHamsXGdreya8HcbUaoN4Te/gAWL17MM/aZbXeLHYkrxcohhUdti4ZY/LLOXDJ16tQ33nhj8ODBFEWNGzeOPY6BMwLXvyEWHRHMSjFRmzsC14MhJmrYxRCuFEHtLs4Qk9oz8S21RorFJ6BoQ8RPQSiKEurOI9Qvhq4ppkxj3bijMiLo/613RxWxJmMa0r7BNwlIUENdg5o0pGUgQ2ghtlONautFL8XSGtS8htc+xIfucJ+KqXWtnjVY7H4WL5dIJKL90TQaHDqENWsA4PHH8eijImNe0tPx2mto0cI0vaAAR4+iRw/w/j3f9OG2skVvvm3btsXHx9e2VKjZdre7O6o1YyM3Reh4wkh56aWX8vPzP/nkk4MHDyYkJLANsdEdVZwhQr04uVLs7o7aMA2BKDdkfrXt4o7Kf98xswdbqostgixNZmdKUToYg2WQjcTIMRjjA5+v8NUv+CUUoXQGepu6f+FfACZgwvf4Hve3qUtE4h7s0UH3Pb4PQ9hGbFyCJRQof/iPxMhoRE/G5I7oqIX2MTy2BEtkkGmhTUXqO3hnFEYlI3kXdrVG6xSkHMfxozg6FmPTka6Fdgu2fIWvohE9G7PptT2extM/4IcylA3GYCmkczG3F3qdwInP8XkZyiZj8gAMADAJk1zhCqAt2p7CKUfVaoPizz/xzz/48EN4emLmTNy+jQkToNdDJoPBgMpKuLqiqgo1NQDuLVym1UKng8EAV1fodNBowNytBgMqKuDqCqMRGg3oCDC9HhoNdDo4OcG2oJzmxZw5c+bPny90tfLCwkLmVajtU5CSkpIauu0B1PJ4s/FRZDAYKioqtFotffjSSy+dOXPGaDTm5+czGWyfglhjCDdF6JObLcXX19f6CwlNAzK82RMjjOMx/jk81wEdlmHZJmyaiImXcfkDfBCFqMEYzOR0hzsAev7BkI3sndh5Cqf2Y//jePwTfLIUS93hvgqrDuBANKIBTMTEFKR0RdelWNoWbXdj9+t4/U28CaAIRTuxczImH8bhZ/HsQAx8Ha9PwZRd2LUXe3di51IsnYd5X+ALACuxUgMNrW0YwhZgQXd0B5CEpFEYxWyq5wpXI4x66LdhW2/0rqd6bMAYjThwAOnp9/aFmT0b77+PwkKcPo1OnXDjBj7/HEuXYt06HDwIAG++CWdn7N2Lv/+GRoN//xtnz2LZMjCLQt29izlz8NVXKCvD0qV49lkAyMrC8eO4fRtPPYXOnR1kaiNE0MOPIT4+vqggz+7K1DN/bN3saBVsQqPVke+ezRAyBbEn2cjOQc5TeApAO7TLRe4t3HKBS2u0trhHHYBBGAQgHvG7sTsTmQdwAEA5ygMRWIhCOk8kImtQQ58ywtgGbZjL6X133eDWCq1CEOIDHwCXcOk8znvAA0BndD6Jk4dxmM5/GqcZbSMRuRu7/eAXhjCTbXILUPAzfj6MwzMww/YqauxkZ0OhQHj4vUN62fWrV1FVBZ0OOTno3h0A9HrMnAm5HHPn4uOPAcDLC6+/DgBbtyItDZ07Y9q0WqVUVGDYMISE4I03EB9P9rezlrCwMHF71leun2R3ZQiCoIYsd7QKBAcg3h2VuzylSQrXq4vrD2zRZ9CkTJMSLKrBL4JdAv2/WUMsprAJQlA5ygGkIU0KaSEKKVAUKNzfF4YHOhsAGWRGGLugyw/4wQ1uWmjZ2fTQ90TPH/BDAAJMlng3ixpqHXTlKI9BzCIsYhZZp0Ax2n6MjxVQZCKTe7kvfKdh2vN4/mW8/DSepleddyw2tjvdOa3pwNb8WUZRMBpx4QIiInDpEp59Fpcu4cgRHD9+72xWFoB704jsbNTUoHt3UBTfljEpKWjZEk5OiIvD9euIja01ZxNG6O0PYMOGDRad4EzKrIuVBkUQ/MyqiiodgG3vDuzc2v/JhbsNRrw6rF2nVn52lHLwXO5zX/718cRH+ieGWM5d7+j1emseHNxWs3KQZw5hxSAvwq9W6BOQa4hFL04RhpikiDCEqzZXilB3VPpyiqLIuiCWsf71YAQiJJAcxdESlHyOz1dgRSACc5GbgYx85FvcYOUojgI4i7PucHeHuxbaKERdxMX/4X8mOelTznD+Ft/yl+kDnyAE3cVdF7jsxM4ZmHEN1+hTsYiltc1BzlRMvYiL3MuXYMlSLAXwF/7SQsveaa95EhGBqipk3p+q3b2LggKEh6O0FJmZ8PAAfXePGoW5czF3Lj788CGHU1dX6PUoKbl3bW1UVYH+0F9QAFF/1TdT9uzZc+fOHUdrIZinPtm97vW+mUtHf/BMytD3/vjnQl5lta6ySqc32PnDhN5gLNPU6PQNYqcnQv3QwD9viXwLYk1AAdflyvaIGLYUOoU92xIRq8IYYpeIGBlkX+GrSZikgKIDOvRETymkHdFxIRYGIKADOrBzAhiJkex12bXQDsfwalR/ja/94d8BHUZhFL29y108eF4poaRPSSB5Ck+dxuka1KAWJJD0Ru8qVA3HcC94jcIoeje74Ri+HutpbWWQDcGQGMRkIcvk8p7o+Rt+G47hlah8H+/7okH4i9VPRIzZ6DWZDJ07Y8MGBAXBwwOLF6N1a/j4IDQUGRno0wcAwsNx5gx0Oshk+PRTTJz44HJvb8hkOHIEvXvf20eX9inR6ZCdfW9bOwA3bqCgAEYjCgruZWiGWOOZb/LH1gcffPD6668HBATUViC73ZkS6swCqzhxpfC3Q9e+SO/m5aoc17tFn/bBob5qACeuFKR/+ZdWp/92eq+usf5Xc8v6v7MVgK+b04tD4kZ0iYx7Ye2TPWL+u/8SgH8WPXHrbuXsHw53iPb5775LAxJDpwyIjQvzPHqpYOwnuwH0bBu4fFoPRmhVjb79i/dGntWv9UmKaRCbOEulUhOHViZ005aIGGtudm6K0EASrhT+QBKzHViEISbVZXtEjFBDINwNmS2iDn1BxLmG8ZdgEt/MTXH4jC8IQduxnZ0yERMnYiI7pQd6AOCGxQ7AAPY2dStgutAhcwn71BN4AsBarKUPP8Wn3PwjMXIkRnLTTbTl7qjXHu3bo71ZS5s8tXXggQMRGopZs4D7QblSKVq2xPnzCAsDALkc5eWYMwcAJk+Gl9eDa6VSTJqEefOwcSPi4u6lTJ6Ml15CaiqYd5k1NfjpJ+TkYOZMuD3kmUO4B/f2B1BYWFjbFtZWllD/7D9zu6Ja5+IkB+DqJHcNdqfT1Sr57JEJP+65sHrvxfgIr21Hb2ybOzAqwG3Mx7veWHlkeOfICzklB8/nnv96zIB3tuYWa6pr9Nfyyqtr9Oe/HhMy4afoQLdAT+fkVzbsen+wk1L27uqjjMQaveF4dsH/9W09c3j8wLnbkl/ZYPx9imOMt4QDh/T6f37ZS0rjgrijEgjCUCiQmIhlyx5K7NoVXbs+OBw3DuzNOoYNe/A7ONj02o4d0bEjAIwZcy/l1VftqnGzITw8XJw7qgO5kV9uNr1FoHukv2tUgBsAVyf51EFt1uzPjn52DYBQX5dreWUAUtsFA6Dz0KTGB9P5AZy5dhdAQqS3zmDs2iZgzf7sEJ8Hjs2zvj+85/St7e8OqjvTCASLkClIg4DslEsg2M6vv/7qaBUE0yHaB4BWp1fIzL8tL6nUHsi6s2rPpY4tfI2/Txnz8a6D50xDiG8UlLuoHlogr7C0qrhCC2DniRw3Z3lyjE/rEI9bdysByKWSji18t7wz4PbdSmrIcl831fXvnlIpBK+1SCDYjn0WaOemMIvBsVPAWfyY/xuVwWBg8jNOufzrK5t1zbXGEGZhY26ZXKEURYlYoJ1gLyy2Eaxu99pKsD4ihlBHWNlG7EtOnjwZHh7uxf70ZalMh9/IPdoGto/0LiqvdlHJ/5eV+/mm0+8+ZRp0pq0xVFTV0O8wDmbl/T97Zx7fRNE+8GdzNz3S+6LQmx5AOcp9CogcgsghgoCgopw/FRTwFUReFAX0Vbx9eaWCoIAIqKggVYEChRaEctMCpZTeZ9qkuZP9/TGwLrvpJtkmTVvm++HDJ5nsPsfO7O505pl5wL6hdxRTEuYvD/OT7z6Rnxp3N5DLYLKcy682mckpg2Iv3q756OdLLaSdozuO/uKw57EPTb7ZrR7DeH/x2NechyPcWuy5I5rn2WhVL70V2elIk3LEsFfpsNsxo8Shhm5VJreKxszg1kI/y36lLeSmfWCx2di4z7Vag7hOWxoO3f4A8Oyzz77zzjujR49uTBq73t1e6REBnjkfT/J+4mu1zggAx9Y/lhjhyzimU6TfjKHxI1f9BgD9k0IKylVlSq1NydHB3sfWPzZo+c8AMDQlfMWU7tdL6gBAIhJ0jvTrveTuiNH62X08pC1iOJyqC0fr3aZYfi8ORonNLgiPN6BzVdjz/rIZO2LnPdIULXQVLlwR0/QcMezwdafniHHuihhM8+DeHDGY5oFHjhju+rKZI8aNqHbfF7H+08qR6EP/pLv7FD/SPYIRNEp9/Xz+QPQh5+NJ6MPVL6agDwOTQ+lnDUwOzf9qGuP0lgN7RQz7sU8214oYR29/than54ix6QheEfNgkQ3ZjE3DMM1ADuQkgTv36rJYoLYWMjIAADw9YehQEIshPR3i46FdO54p6zBOYcWKFZ3QQiMMBtMawF0QnojF4kdXPGr7OACTyUSSpPjeq4kag6L3TFEHmTFx6FDXVa/Xi8Viel+VIQF1XamS9evXjxs3LjEx0X4tZrPZbDZLJBKbjvz++++enp6DBg3i4YjBYBAKhfTRL4aEMEtYL7SAxE2UlMDJk9DQAL6+UFAAx47BsGGQkQEyGYSE4C6IO5k0aZK7TcBgMA6AuyA8kUgkb7/9tj1HGgwGs9nscS/zuj0DWTxmlFQqlVwup06xOSL3wQcfTJ06ddKkSfZrMZlMer3ek5awpLEBzLq6uuDg4FWrVvEYNdVoNGKxmN5jY0hw+47ap05BZSU8+SQEBEBuLuzaBT163HfAX38BAERFQYcOIBLB1atQWgoA0K4dJCRAaSnk5oJCAd27WxGOaQoFBQWBgYFeXl6OnogWj2AwmGaGfziqc+1wl5bmUeH2kDc2YrE4OjraoVOax5GWebkoqqrg7Fl44QUICAAASEiAVavuO2DlShg0CBIS4JdfIDoaHn0UjhyBiRNBIoHXXoO1a6GgAH755b5dQzDOYuLEiWvXrm0sHJWDXov3usIeTEsAv61amha6Cp5dEF/f+2K22X/m2lPCDTVsgGDEplmVyWOvZYYjbAlNd0RK5WUHAJc54u3tzS2BoaIO5SlxBPrghFWZ7BKrznLjeX9aWLaEpteIQCDwuX/PUYdkCoWN7lhaXAyVlTByJABAbCxUV0NVFcyfDwB3c74gxOK7+6hiOHB6vYtEIsYACSXh+qapjhuIcSYoU67NBwiPR0ozvK1sarHnsd9EFWDf+6uJWpzuCJ6IeUBRKpU+Pj5uT5DR6ggMBIkEysv/2Xa9sPC+HolEAp9+evdzhw7g4QH//S/odICvdDMwadKk9u3bu9sKDAZjL7gL8oCye/fuMWPGtGvXzt2GtD6io+HqVYiOBpkMamvhp59gxIi7P0mloFDArFkgk0FVFRAElJaCVAozZ4LJBEuXutXuB4AVKDEPBoNpJeAuyAPKSy+95OfnN3nyZNuHYu5nyhS4dAleegkAIDAQVq4Eas4wMBDefhvmzgUA6NMHRo2CuDjYvh0WL4aoKAgKglu33Gb2g0BGRkbHjh0by5SLwWBaGrgL8oDCIxwVg7Capu6tt/75zPhp9WqmhH79XGIYZuXKlUuXLh03blzTRb20KfPj/ZfQZ3L/C1X1ui1/5O7PLjy6zgnCTWbLhYIajd40ICnE0e3vDCbzyavlE95Jr9kxq7Fjpqz7IzxA/sqEru0DPRs7hk6HZ7/7csHAYSntnJspJr+s/o3tZ9ZM7xkbhtM9Y6yDuyAPKDzCUTGYFo5MJisqKqqrq1MoFE2RYzJbVFrj6Q8m9IwP+uK3K8S4TTf/N02pMRhMZvRrWa0WAIIUMqlYaDBZKpRamUTo4yGWiIVFVQ0A4CMXe3mIBfe6F0azRaU1anQmAAj0kckkwi6R/haSJAgCne7tIdYYTAq5RCISlNVqxSKBb8BldQAAIABJREFU0WSRSYSBPjKT2aLWGtU6EwB4yURy2T8PbZXWWNdgAABfT4lcJqLUfbFwkFBAeEpFRVUNUrFAb7SIRYIQ3/sC/JGdAIBSz+iN5nKlRigQKDwl3h5iZBUAiEUCbw+xh0RYXK3xkonUOpNAQIT7y9FFQCXecrG3TCwQEJRYJITSZTRbymu1ACASEr6eUpwSD0OBuyAPKC1na2oMxllERETodDqtVkvvgjQ0NBiNRg8PD8baNA6KqhpCfD3CAzzNFnL+mOTXv8nedPDqx/svCgUCALh0u7b/sp+kIsGOpcOHd2t37mZV31d/HNe7w8one3SO9O84d6dULHxxXOeFj3YKvvfWv3pH+Z99F37OKrCQ5NcvPfRYn8iLt++Oghy7XPrYW7/PH5O869jNdbN690sMiX1+Z2pcUF6xsl9iyO9rxlwvqf94/6Vvj1w3W8ipg2M/m3d3O3aLhfzwp4sf/ngBAJZP7vb8I4kBPjL00/zPjoUHyJ99OKHri3uGd213+nplXJjP3xsnUg6SJJkwb5dEJNAbzdXfzQKAo5dK39h+5la5atmkbm9O63HmeuXIN38TCYiYUJ8Xx3We2D+q/TPfzh+T/N2RGwpPye20pwor1fFzd80dlbTj6I3nRiQun9wtSCGr1xg6LfzeQsLSCSmrpqXe1QVw+Xbt0Nf3kwCRQV6rn+o5oV9UEyoZ06bAYfoPKKdPn9ZqbWe6wmBaEWlpaYsXL2bEgjz55JPBwcEffvihyWSyMy9uVIj3rmM3l3x18sKtapPZUrNj1qsTU9ZM79kjNpAEeO7jo/95tm/Ft0+PWX0gr0hptpAAMP2h+F7xwfO/OL5meq/anbNP5VZs+TOP2v7gr/PFSrW+dufsnI8mrd7xN6WIJGHK+j/SXhri6ykxmv6x7aMX+mWse8zbQ0wCHL1UUlipzv5gQtpLQ9LSc0tq7o5eFFSo/v3d3zU7Z9funL350LXCKrVVX+aOTsr5aNKgTmH03R4q6nRpLw2p2TF7zfReS7/OAoBypfbnN0alvTRk9XdnSIAdGTcO/nt07c7ZnTr4HTx7p7JOBwACgsj/atqL4zojUQSAgCBqd87e+ldeZZ2WJKH7y3vPbpyUvubRjMtl1N4PKo3hz/PFNTtnl26dsWpa6ls7z9pTBZgHBDwK8oAybNiwb775BoejYtoYZ8+e3bNnz9q1a6mSX375xWw237x5c8WKFdu2bRs0aNCuXbtsyrn5v6kmC2mxkMcul41c9dvhd8ei8swrZWqtcd7oZIKAEd0j9p8u7NMxGAB6xQddLKi+Wli7K+Pmyu2nTWaLWCjonxQyMDkUAKYOjtMaTLKJmwHgxxUjKS27T9wK85c/OSiWJGF/9m2qvEukv9FsCfeX3yqr75sQcvxKebcX9zD2jIoO8flj7aOyCV8RBLHhmT5RwfftDEQxrEu4RCyMC/O+VVYfE+oDAFqD6eS18icHxQLAqxNTSBJ+zr49c2h8uL+8V3wQAKi1xvF9ooav+BUATGbLEwNjkKglj3fxlIm6RPrfKqsHAIGAWPJ4FwCQiARFVQ0qnTG/tL7Twt3orPf3XZjUPxoAvOWSpx6KQ3bGhyv+82xfmxcf8+CAuyAPKGKxODIy0t1WYDBOJjw8PDc397nnntu0aRM11SgUCuPi4t58883nnntu5MiR0dHRY8eO/eSTTxoTsvdkgYdEODq1PQhhUKfQdoGeNSo9+inEz8NothRXqyMCvQoqVGF+chQDgQj1kx/49929WSVCoYf0rgHBvrKXx3d5YVTS7XLVsx9n/Nj+EVQe5udRXNUAAKU1DXqj9RGa74/f1OqNOR9P0uiMqYv3UeUEAYOSQ0u+mQEAg5b/HB+uGJoSLhM7PLvKDoe9WVafln4tc8NjkSHea78/V1qjsVNUVIj3mQ8noM9yqQidSACE+HqUfDNDazD/db74X99kP9IjwlEjMW0Vnl2Qqqoq+sQqIwUaVUIP9kZdeEb4t09j20wCqNVqo9EoEomo0xtLisZbBXIE5V1TqVQuckSr1Wq1WnvS1DXFkdraWoFAYDNNHSUzMzMzODi4rq7Ofi0Gg0GlUlFp6qCRy0UQhMFg0Ov19fX1PBypr6+nJ4Wx6Qg4frnMZnNtba09DViv13OYinEpdXV1NuudUelyuTwoKGjp0qVPPvlkWVkZfdsbgUAgEon8/Px+++23tLS0PXv2/P7779nZ2UKhkL0j9cjuEUu/PhUX5hMfrjhw5k5RVUOHIK/cIiUARAV7Kzwl6TnFM4fG55epUqL9tfq7SYsS2/v5ekkyr5SP6xM599NjQb6y+aOT2wV4AsD7ey8oG/TvPN27rsFgMJlD/eSoT9OrYzBBEPuzbl8vrauosz4xqjda5DJxfLhi5gd/0cv3Z93+z48Xjrw7DgB0BnOgj0wqsqv/IROLukUHnL5e2TMu6L8Hr+7IuME4wGwhdUZzSnSASCg4crE0oZ1dsb3J7f2EAsJoIjV64zu7c+aOSgrwlgJAQYVq94n81yZ30+pNcqnIaG50LkylUllN2Am26t3Ly4tjl0WnvK1EIpFcLudwn62FhyNyuZx65bnIEYFAwJ1EySmOyGQy+puiMRUCgYBnF0QkEtF3BG8sXRndLEaaNJsIhUKRSCST3Q2wQunKGBIYMZU8srtRjqD/bWZ3s+osNwKBQCaTUc3XRWnq0B1if5q6Tp06OeoIQRBSqZTefBurd4lEIpVKfXx8eKSpEwqF9ObbWJo67hKbjkgkEnsasFQqRZt8YJofLy8vm3ei1Urv06dPQUEBAFy9evXjjz/OysoaNmzY+++/r9Fojh8//uuvv3bv3v3y5ctbtmwJCAh49NFHa2trGRI8ZSKxUNBx7t35mpv/mxoT6lNc3bD06yyRULBr2cMJ83Y9+9HRY+sf6xoVcPpGJTpMIhJ8s3go2mj82REJ04fEo/4HAAxNCX/z2zPop783ThTdGziRiQW/rR7d79Ufpw6ORTElbIamhL3+zWnR+P/tWDo8O6/y0u1ahVwMAOP6RB48dwfJ/G7psKT2vnYu7yUIaB/kFT1nB/pK7n+hw7Pf0Q/oGK4YltJO/PhXALBobKeqet3N0nqbYiUiwY1NU5E9cx5J7BUflF9WDwBRwd5eMjEq7xzp/83ihxqT4O3tzXgSsh/7PB4p9ryt2CWM9xcPLdyOgONrAmw6Ys/7i4cW9vWHpl0uugqCX04apVJJ3+bdFV0QrVZLEISruyBKpVKhUAgEAnQdXNEF0ev1ZrPZ1V0QRzPlpqamvvvuu8OHD7dfi9Fo1Ov19nRB/u///o93ptyGhgaxWOzSLojFYlGr1fRhEpsNmIcjVhswt9n8GrDVO3HZsmWff/55VlZWYmJiE5/gVhtwszlCL3H0CW42m9VqdUVFBQDEx8frdLri4mK1Wn3t2rVffvnl/PnzL774Yq9evUaMGFGRNsF+U51ISXXD0x8eUWuNygbDS+M7TxkYE+Atc4slbocYt4kkSVd0QexpWuwSR7sgbC1O74LYdMQpXRC2Fqd3QegqcCzIA8rVq1eVSqW7rcC4hH379h0/ftxoNL799tvbt293tzluQygUKhQKaoGuSCRSKBQffPDBmTNnRCLR/PnzJ06c6Ofnx0i+2Jz4eUvfmNrDZLYAQEqUv5+nvcuGMZi2Ae6CPKAIhcKQkBB3W4FxCUePHhUKhRMmTDhw4EBlZWVwcLC7LXI/DQ0Np0+f3rZtW05OzqxZs3r06NG5c2dvb29HNyd1Lh4S0ZDOYW40AINxLzy7IGjEjP4V7o0LUSWMJfjkPeiFHMNQ6GCGTIYEm2Zwq6BLQP9bdYSt1FEtFovFocvVFEc4VNAdUSqV7CvsLEcoyfwcYWuxqdQhLVZVWHWEcZZDjoC1y+VcRxqTeeTIkZdffnnmzJl9+/bdtm3b4sWLOe6aluyIQ7c/ADQ2GpyTk/PEE0+Ul5cPHz48OzubQwLGjaAnhs0Xh6MNmEdzZZthczqDrYWHI9zTGfwcYSjl4YjNNyDbWTsdIQgCb02GwbQ1UlNTe/bsCQCbNm06e/Ysis18YJk+fXr37t0HDRp04sSJrVu3utscDAbzDzxHQQiCcDScx9G4GLQQiL440xXhqJQK9L8rwlEBQCAQMBwBZ4ejIkfsD0edPXv2okWLunfvztsR4Kx3ZA/peOwYMpJxuZy+IsZ+Rxozwx4cdaQpDZiSmZSUtGXLlvz8/IULFx49etRsNr/33ntr164NDAxsXY5Ak8NREd9+++37778fFhZmMpl0Oh1DJk5T0HIQCoWuCEe1p2mxSxwNR2VrcXo4qk1HnBKOytbi9HBUugo8CvKA8v333+fn57vbCoyT2bVrV2VlZWJiYn19fUlJCQD07t37+vXrhw8fdrdp7iQsDMdbYDAtEdwFeUARCARNzCaKaYG8++67jzzyiL+/f1hYGJqL6dOnT0BAwMGDB91tWivjz/PFG/acR/94nP7r6cKjl0p1Bp6BJvuzb/+RU1yvMXAcU1Td8N7e8wCgbDBcvaOkp5jBYFoLuAvygKJWqx9++GF3W4FxJv/617+USuV3330HAMOHD9+xYwcA9O/ff9q0aRcuXHC3da2MrX/mDe4UtmxSVwBA22o5xI6MGwf+LtQaTPy0j+sd+XC3dj7yRveXBICCctVrW7IBwNdTktTeVyzCD3NM6wOviHlAV8RUV1crFAo0+ep0R6i64+cIXhFjvxa6zKtXr27duhWVlJeX37x5s3///iRJDhs2rLa29vr16zExMa3CkcZkNn1BAbcjFJV1WgtJKhv0tWr9skldrxTWpqXnZuVVTH8o7tzNagtJ9k0Ifuhf+6cNjiuoUAUpPHa/9jAATN3wJ0mSN8vqP503EADOXK9a/d3fOfnVoX7yT+cN2Jx+rahKrdaaPpk3YE/mrS9+uyITCwckhywe30WlNa7YdtpDIiqubvD1lO5aPnzae38G+sge6R6x58StO9Vqg9Hy/MjEU7kVt8pVfp7SkpoGf2+p1mAmSXLZ11nzRidl5VWM6x159mbVkq9Odu7gLxIJZjwUlxjhG/b09jkjE2tUerXW+PuaMRzXvyWAV8Q8gCti+IejMhSQ9+8STzayjbxDESt0CZRA7q3p2SV2OkJXxG22o45YNRusXZymOGJVC4fZW7dunTBhQlRUlNMdoR/MwxHiHhwqbJrhkAoORzjMsF+RnSqoQt41Mn78+MGDB6PC8+fPf/rpp/v37ydJ0tvbu3///rGxsfxUgB1Ny7mOWJXZ2J3oqAp7JAQpPExmMi0998odZWSw11sze5nMFpXWeOl2bcbl0qUTu5IkKSCILYsf+iOn+Il16Q06o9ZgfqR7xMR+0UculZy6Vg4Acqlo6uDYMT07jHrzt/881xcAxvWOGtkj4vyt6vU/5Lw1o2eon3zcmoMjukVEBntFBnu//FjnoqqGXkv2pb00GJnRNTpgXO/IzenXzt+qjgtT/Jx1+4M5/SICPPdm3npl86kfVz5y6GzRhmf6oH3QtXrz+3svLB6fMv2huEnvpB86VxSs8ACA6UPi4sMVX/x2pUFn9JS5bRM2eyAIorH7run1Tj8dbDVX9jE2NXJrcaMjTX9b8Xh/2amCaEoXhBHZyyghSZLRD0JWOhSay8i7xo4oJq0lMHM0+hcdj/5nS2CbTbKSzNmjgu4IuixsLdTl4u0IdYpNR958883IyMjo6GjejoC1S0HVOzoY1VpTHGFLsKoU+Na7TUcaM8MeFQQrkpxbaVMaMAA888wz6G8LgUBQXV2dl5eHqoAgiKSkJEqpo7ch2xGbV6+JjliVaVWvQyqsamlMwtszen179Pqhc3dq1YbhXcMXje0cpJD9eb74ekldamzgmRuVIqEAAGLDfIQCQblSW1KjSYzw9fWSPN43qrRWc+ZGZXIH38QI31q1HgDqNHoAiA/3AYA7lWqV1jioU1iIr0dMqE9usTIy2GtYl3A/LynqwJcr/8lXV6vWn8+vHtw5rEds4HvP9s0rrssvrbea0K6sVlNaoxnWNRwAOkX61TUY0GFdIv0lYmGon0e5UhsT2qK7IKi52lwRw6MBczcte95fPLTYXBHjaAPmcd855XKxr79VLfZfLrpAvDvqA4pYLI6Ojna3FRhX0atXr8WLF7vbitbKzoybHlLhm9NS0de4F3Y+2iuya3TA8StlMx6Kt3l6mB9XSlWJSEiSJAoT0RhMUjHXJIL/tK03Nk2NDfOprtfFzNlx839TIwI9vWRWntsSkUAgAK3eBAAGkwUAUCcJg2nJ4Db6gFJXV9ejRw93W4FxFQkJCQsWLHC3Fa2VqYNj950suFJYCwA7M27eLK2PC/Px85IGKzz6J1lPazAwOfRCQbVSrd+w53zcCzs5hMeE+QQpPH7Our0z4+aNkvqu0QGNHbnt8PX1s/vEhv2TTzEm1Ke4WrPq2zPsg9sFesaE+vxw4hYAZOVW+HpKwv25ekIYTEvAhaMgPKac2RJs/krXwn28u2DE8rhUkf0H63Q6kUjkaAWxg5KcaBJ1iqNaXEQTG7B7W6NWq1WpVG04O0zTLy/1ALH6a0yoz2Nv/Y4+F6Y9FeLrodYaU6L8ByaHmswWmUQYHeoNAGIhERXiJRYKAODA33fe33sBAG78b+orm08GeMsEBCEWCmJDfSQioZ+XFB0WF+bz2+rRg5f/DADH1j+WEuVfWqPxkAoJAoRCIjbURywUhPh6+HlJCQI2Hby66eBVAOjYTjH74Y5xz+8MD5DPHZW8I+PGwOTQ2DCfuOd3Hn5nrJdMLCCIHUuHxz2/c9PBq/NGJz89LF4qFsaG+ggEhIAAH7lE3AoHRVrv7W9TAvv95QotLR+CXx3X1tbSc53bGV8JrNgZjkhmjUYDAFLpP6kjbWpxVAVyxNvbWywWm0ymxlTYLOHWotfrjUajh4eHSx2pr6+XyWT0LSy5zU5PT+/du7ePj4/9WoxGo1ar9fT0tOnIiy++GBwcvHLlSh6OqNVqkUhET15q8+I4qsVsNqtUKm9vb5uO0M9il3A7otVqSZJkNGDnOgKN34lHjhz56quvtm/fbo9r3CqsNuBmc4S7hKGCe/7eagMmCKJDhw7F/x3LYRsAmC1kQblqf/btl8d34T4Sww9i3CaTyWTPi8PRBuyUpmUzooKthYcj3A2YnyOMEh6O2KOFnyMEzhHzwDJx4sT09HRXa2nV3fNWTUlJyZkzVobrMfwordFs/Svvx1MF7jYEg2lT8JyIcTTFBvDKEcPOTMFeidPEzBSUCtfliCHuz95CtowcMWKxOCYmhrg/HYBDKsA1OWJQjbSBHDFWG7DTU6s05kjv3r0XL16M9n1hL8xpRY7QS7hvf0cdcUhCRKDnmuk97deF4YGLcsTY07TYJY6uiGFrcXqOGJuOOCVHDFsL+/pD0y4XXQVeEfOAUlJSIpFw7b2IadXEx8ejjcgwGAymxYInYlo6Cxcu7NChQ/fu3VGMRUVFxapVq4KCgqguJxpy+Pbbb1Uqlf1iPT09Hd1TAdOKEAgE9HgaDAaDaYHgl1AroLKysk+fPp999tknn3xy9uxZAJg2bRpJkgaDQSKRjBkzZtWqVStWrMjLy7Nf5unTp3U6nctMdhu//vorDkABgIyMjFmzZrnbCgwGg+GCZxfEy8uL/lUoFDL+pGbPDDE21rSJVCqlzxQQrK05gbX9oqMqAMDLy4tup1UV7BKHJvDEYjF9WURjjnCYMXTo0AULFixYsCAwMHDbtm0AMGnSJAD48ssvjUZjSUnJzz//rNVqly9fbr8jQ4YMOXDggEOXSygU0pdFNKbFoehrNjKZTCQSAcCdO3dWrVo1bty41NTU7t2779u3Dx2Qmpqampo6YMCAPXv2AMDSpUv79euHjrlz5873338PAL169eJQIRAI6MsiXOSIRCJhN2CbSnk0YKsSCgsLMzMz2TJ5OCIWi2UyGYcElzrCXeKQCqFQKJfft1UGHghsaVi975rYgG02LXveXzy0cDsCjjc/fveIc7XY8/5ySAXPWBD2O5i9hIn7AJuwL5w9Mh3V0gyOoIkSR2XSSzQajVKpBICGhoagoCD6MSKR6JNPPkFf6Sup2DIZX0UiUVhYmEO+NN0Re6Dq3WAw3L59+/jx47/88su+ffu+++67lJQUnU4nl8tXrFjxv//9b9WqVbGxsTt37vzss8/8/f1zcnKKi4sHDRr0zTffbNy4kVsLo95d6khjEqwKbGIDpk5PTEycMmWKVYFOb8AudcShEm7sacAY99IMD3l7miuPhtEMDbhNOoLDUVsB+fn5p06dqq+v1+l0vXr1ys3NReVjxox55ZVXLl682LFjx82bNw8fPjwlJcVOmXv37u3SpRXscBAfHz9w4MAOHTo8+uiju3fvbteu3QsvvPDII4/4+vqOGDFCqVTW1NR4enoOHDgwOTmZIIjq6moAGDBggLsNdzNJSUlteF8yDAbTNsBdkFaAWq3+5JNPioqKPvvssxEjRlBdkNjYWIPBgHqg06dPf/jhh+2X6dDBbiQuLg4AOnTooNfrr127VlVV9f777wNAQkKCt7f3kCFDPvroo0mTJtXV1QHAjRs33Gxui8HT05Mx2YTB8KZWrffzkto+DoNxENwFaQUMGDBgw4YNVLLTNWvW0H/lsb/tX3/9tX379rS0NOfYx8Lf3x+FzTYdJOfPP//09fV94oknAGD58uVvvPHG999/X19f/+2332ZnZxcUFPj6+h49evTixYtozTpm37597733HgoHwXCzcePGrdUa18k/dOhQcXHxM8884zoVLiUvL2/fvn2TJ0+OjY11nZYtW/q7TjimxYK7IC2dJ598UqVShYaGOlHmoUOHDh8+7ESBDIKDg2/duuUUUTU1NYsWLbp48eL48eP79u1rNBoXLlxYVVV17ty5yZMnR0ZGHj58+JVXXvHw8CguLn7nnXdQwOyiRYs+/fRTpxjQSmloaKisrHS3Fa0D1LV1HbW1tXK5vPUuUNqzZw/q8bdeFzAtFtwFaekMHjzY6TL//vvvnj1duNVjREREWVmZU0TFx8e3b9++ffv2U6ZMCQgIAID58+cDQOfOnYcNG9a1a9dVq1aVlZVZLBZ0mJeX17p165yiulUTERExcOBAd1uBAQBITU117p8Qzcn169ePHj3q5+e3Y8eOxYsXR0ZGutsiTJuCZ5q6NgZB4OvgTIqLi9u3b3/27Nlu3brxFnLz5s01a9YYDIYdO3Y40TYMBmM/H3/88c6dO1999dX169cbDIZz58652yJMmwK/egFwF8QF9OvXr6amhoqcxWAwrZGhQ4d269btww8/vHjxYkpKyoULF1rFSjpMawHvzPMA8cEHHwwfPhxNZLiajIwMiUTy4YcfFhYWNoM6DIPffvtt1KhR7rYCAwDwxRdfLFiwwN1W8OHYsWMhISEokLZLly6vvvrqsmXL0Lp3DMYp8IwF0el09N1F0BACfX8SewYVCILgSGNhNBotFgu1vxMl0FEt3MnYKEeMRiPwdYRbi9lsNplM9I2qGFquX7+el5fn5+fXpUsXLy+vkydPlpaW+vj4oHWzf/zxR319vUwme/zxxwHgzz//rKysDA8PHzx4MEmSx44dKykpCQkJ6datm6enJzrX19e3U6dOISEhJ0+eLCkp8fDwiIuL69ix48WLF3v37v3UU08ZDAYejlgsFqPRyOEI3H+5Fi1a9N1331VVVc2bNy8kJMQeFQCAbKNnmORQwQGHFpIk9Xp90xswtyNWG7BzHYHG78TKysobN24YjUZ7tIjFYo7Nhaw24GZzxCEt3I5YbcDN4EhDQ4Ner0dPGDu1iEQijk0trTZgVzjy1ltvjRo1KikpCTWkefPmTZgw4ddff502bZqdWhi5ta1q4ah3Ox3hrnenNC2BQIB2beanxU5HuOu9GV67ztJipyMEQfDsgqhUKvquA41l1qbbjVIVMxoKx7XQ6/Vms5k6oLGszYwHCkmSDM+5bzO1Wo3WUKAHRGPJjhmOAGvvSw4tBoNBp9NRe7RTyY5ramrQVqcHDx7cuXNnv379QkNDpVLpwYMHMzMzY2JihgwZAgC7du0qKCgICgpCXZD9+/efO3du8ODBgwcPtlgs6enpGRkZffr0CQ8PDw8PR+d27NjR09PT19f34MGDWVlZ4eHhY8eOjYyMfOONN1BXgHLWIUdMJlNDQwO1V3djWZupyzVjxoxbt26dOHGCJMmUlBSJRCKVSmUymUKhaLQ+AFCyPXotM+oUNQPGWYxHMLC2GaZjNpvr6+vpnrIvBVuLQyoAQKPRmEwmeo57tiPA2ljQIS0kSdbW1tK3/6ccKSgoEAqFmZmZ9jgil8u5nxd6vZ7+/LV63zXxctXU1Fh1hF5iU4WHhwfHC89oNDY0NNCfOc3jSHl5uUajoRZI2+OIVCrleDZabcDOckQgEKANy9HNu2LFCvS4MJvNwcHBiYmJaWlpkydPhnuPfXYdMbRwd0HYrxL6bt/ogcx+AjOaK/c71Z63lU1HhEIhdxeErYX9trLpiKPXCu7fHB1dLm5HBLYSWNrjCLAuF8MRgnMffUqFQCDgGQOhVCp9fX3pVgKrUhn7xjM8sYlWqyUIgvHCY0gwm810pewOhD2OKBQKgUCArkNjXRCGUrDVVuigvhSVnIIkSZVK9dNPPy1ZsoRaNmn1xnPIEZVKJZfLqVNc4YjRaNTr9fTHls16R7UmFApPnz7922+/Xbp06fbt2xxjMNDIU8zpMFqOK2gzjljt2Tsd7EgL0WI0GnU6ndlsLiwsFAqFFovFx8dnzJgx33zzDQDk5ubOnj07Ozsb7Hvs24T9KmE/QNivQEcf8jbfVs3vCDheiTYdseexz0OL1S5IUy4XXQVelOsGamtrt2/f/kBt29CrVy/u1HEU6O9U6i889hPHnicINxaLRa1W01Pq2N+XslMFNNKH5jabXx/a6lNJpVIJ7SrGAAAgAElEQVRVVlbGxMRYfYI4pILdh25OR+glTXyCm0wmnU7H6ENzm+2UF15lZaVer6eWs1p1zSEVFotFpVLRRxOt/g3TlAa8adOm1atXZ2VllZSU7NmzZ+fOnUVFRQAgkUgWLly4Y8cONBeDwTQR3AVxA+Hh4SihKwbjIrKzs7/88svdu3e72xAM/Pjjj5cvX6bSSbZ8lEpldnZ2eHj4O++8AwAajSY0NPTdd98FAIIgVCrV+fPnH3/8ce45bgzGHlzYBWFPPTpdvs2SFkhdXZ1YLOaeTuYBGmR2rkybGp1yjKsl8Bbr6gbsUkpLS3NyctxthQvh1zCsPjQ4atkpzU+j0eh0OpuGOb2x8ZZ56NCh6upqs9l8+vRpStSZM2eoz1Kp9MqVK03Z9cdO3PhIb3qNNEPTsqml5cOzC0KSJBpOpL7CvQFGjhL2a5JjYBAdzC3BphncKugS0P/2mM1Di8VioY4fPHjw1KlTly1bxtBCT27CQwVDSzM40piWJjqCJDBkOtrYuLVYbVo2ZTJOsekIWLtcznWEQ2aPHj1eeukls9ls865p4Y7QS2w6wj0hbbXebTZXRy8XW8XTTz+tVqu5701GbiObM+v2OMLWYqcjU6ZMmTJlSm1tLX2ykmxkZQS3IzYDEbgdAfvqvelNy2YJD0fYMpvegNkquBswWykPR2y+OBxtwJQK/itiCIJwNJzH0bgYFMpHX1DginBUSgX63xVRnHAvyBx91uv1SUlJ7AvYxHBUJNCl4agMR6xKaHoIBTKSUe/OjQVhqHCRI3D/5bLHkaY0YIbM5OTk5ORkaCSarBU5Qi9pYiyI1Xp3eiwI2xE/P7/AwEB6CTQtFsSqFufGglhVwTabXeJoFCe3I+zHfptxBHg1YEfvOx7hqGwtTg9HpavAW5M1N2PHju3Ro4e7rcBgMBgMxs3gLkhz8/7770dERLjbCkwbJyMjA+c1bSFs3rz5xRdfdLcVGExLBHdBMJg2SGFhIbUXFsa9qNVqrVbrbiswmJaIC8NR2VFFjGO456h4hPM0JQiOIxzVZon9WrKyspYtW3bkyBG2TPblakrIFbuk2WIGm+5ICwlHbaIj4NYozuTk5JkzZ6JwVLYWVzvCQ0vzRPO5xZHx48cPHjyYOxzVIUesamE3V+c+Uux8Njo3rrYxLc3vSPPE1fIIR3VLXC27pLnDUflBOpjIwOYBzQPpjNVZ6IPJZNLr9fYf33SNjEJnOeKi45uNFmuYs0hISAgLC0Ofm17vjtLmL69DREREhIeHN6fGlnP9ndL2mr8BtyWc8th33fXn2QVxdEEB8FoRw47Dd/qKGEqF61bE0NeqJCQkPPXUU+iytLoVMQwVViU0fSEJqpE2sCKGx9KepjRghkxPT0+UhaHpK2Lc6wi9pFWsiGGrEIlENl1ryholcM2KGHtqhF3i6EISbkfYj/024wg4Xu82HXHKihi2FqeviKGrwLEgzUpISMjLL7/sbiswbR8cjtpywOGoGExj4C5Is1JaWvr555+72wpM2weHo7YccDgqBtMYuAvSrJSUlPz444/utgLT9omKihoxYoS7rcAAAPTv33/s2LHutgKDaYnwXxHDHYBNTX3RS+D+3WQBgHuOymKxsHefZWuhf7UammuPI+h/tgSrSgmCsF8LEoiO12g0SqWSLYERLM3bEfrUoz2OgCM1QneEQ6ZTHKFOseoI+/rzrncOR9gN2FEVVm8KbqXOciQpKemFF15Ac8NWXXOiI1bNcEWNNNERq1q4zXaKI126dElKSqI3afbtz15/YXMhiT33XRMbMI8aoZvhLEfYWpzriNVjGFePhyM234CuqBGbx/BwhK2F+/1lUwulgv+KGIY+9JlkhWEzStgHcKuwR4I9ZnBroZ/FQ6lDWmJjY1GSa6c7AvdXip2OOKqFUe9WJTilRrgtt/rVfi1WVViV0JQGDNYul+saMKPQ19fX19fXzhuThxZus53oCMdXqwdwP/gcdaQxvRywVUilUplMxlbEocJmZJ89jrDFOr1G7FFh84XH43nrXEfsrHdHHWFLcEoD5pBg52O/GWrEfhV4RUyzrogJDw9fvHixzYhivCIGr4ixk8YcycjI2Lx589atW/GKmMYcYUtw0YqYzZs3X7p06eOPP+ZwDa+IsSqB/dhvM44AXhGDPttvGabpKJXK9PR0d1uBafvgcNSWAw5HxWAaA3dBmpXCwsJPP/3U3VZg2j6BgYGdOnVytxUYAIC4uLiuXbu62woMpiXSrLujYurr60tLS91tBabtM2rUqFGjRrnbCgwAwKOPPuroPAsG84DAPxzVuXa4S0vzqKC0xMfHP/XUU67W6CKsBkO1Ui3NAL5HWqCWZqDNXC7sSEvT0iYdIdrMnd8UCAJfB0ybIj09/fPPP9+3b5+7DcHAf//734sXL+IZWAyGDY4FaVb0ev3t27fdbQWm7VNeXn7p0iV3W4EBANBqtfYkp8RgHkBwF6RZyc/PX758ubutwLR9ZDKZn5+fu63AAAD4+PgEBAS42woMpiWCJyAAmnEi5vjx40uWLMnOzm4GXRgMBoPBtGTwKEizEh8fj3ZHxWAwGAzmAQd3QZqVkJCQxYsXu9sKTNsnIyNj1qxZ7rYCAwDw1Vdfvfjii+62AoNpieAuCAbTBsG7o7Yc8O6oGExj4C5Is5KZmdmvXz93W4Fp+3Tr1m3u3LnutgIDADB16tQlS5a42woMxi727dsXEhISEhLS2DJynU534MABO6W9/vrrr776KscBeHfUZsVisaDcQhiMS0lISOjQoYO7rcAAAAQHBwcGBrrbCgzGNr/88su8efP++OMPT0/PXr16VVRUrFmzhnEMSZL2LzJXqVQGg4HjADwK0qx06NBh9OjR7rYC0/YRi8U+Pj7utgIDACAQCEQi/McephWwYMGC9957r1OnTjExMdu3b//ss8+KiorS0tIWLlwIAEVFRRMmTMjJyXn55ZcfffTRwsLClJSUr7/+Gv2vVCqLiopSUlI0Go1SqUxJSSkqKtqxY8eBAwc2bNjQmEaeN0Z5eblMJqO+ouy99IzAqISevReteqWXEAShUCgaU4F6T9StS+3bzdDCrQIAfH19uR2RSqUAUFdXx9sRbi0ajUaj0YjFYgBQKBRLliypra11uiPV1dUCgYCeUhll63aiI3q9vr6+XiKRMGQ61xGlUklPxu0KR8xmc3V1Nap3DkfYWhxyxGoDdq4j0PideOLEiW3btn355Zf2OOLj48ORzpvegCktzeYItxaGCi8vL46XvcFgqKurYzTgZnBk27Ztly9fpp7C9jgil8vpdjKw2oDpjlBPy6Y0YKfUiFQq9fDwcEgLQRD0HPf2OMLdgJ3ythKLxZ6enq52hLsBO8URoVDo7e1tVf6FCxfu3LkzcuRIlUoFAP3791coFGfPni0sLLxx40ZdXV11dfW1a9dEItHbb789duzY/Pz8ixcvfvvttxs3bpwzZ45AIOjatevFixdramoIgrh48aLBYJg2bZrBYFi2bJlVR4RCIc8uiFQqpfce0OQCPRWT2WwWCAR0z81mM0EQHA2FgUgkEovF1BUnSRJVKl2C2WymK7VYLCRJOpQRinIE/c+WwDab7Sw3QqFQLpfL5XK6I8B5uXg4IpFI5HI5dYorHBEIBB4eHl5eXhwSGI4gZx1yRCwWi8Vi6vnLlmBVqUOOEAQhk8nogwSucMRqA+Y2uykNmCGzpqbmzJkzCoWCUe88HLHagJvNEXoJ9+1vE6sNmNtsHpeL7YjJZLJYLFShVdccUkEQBFsL+wHSxAZsT42wSxiPfR5a2GY3sQG3TEfA8Xq36Yg9j32HtHTs2NFgMEilUpFIpFAovL29hUKhl5eXXC739fVFj9DVq1f369fvkUceycvLGzRoEAAoFArumRq6CjwR43J27txJ1cfp06eHDx9O/bRnz54vv/zSTXZh2jJxcXHjxo1ztxUYAIChQ4dOmTLF3VZgMDaIiooCgFOnTqGv5eXlx48fj4+P5z4L/ZVVVVVF/ZXiELgL4nK+//77v/76C33W6/VojAvx0UcfnT171k12YdoyycnJeEVMCyExMbF///7utgKDsYGPj8+CBQvWrFmj0+kAYN68eX379o2KivLx8WloaAAAq/t6Hz58+NatW/n5+e3atQsODgYAtVptfyo03AVxOSKRKCMjAw2EBAcH9+rVC5X/9ttv58+ff+qpp9xqHaZt4uPjk5CQ4G4rMAAAEomEO4wAg2khLF68ODU1ddGiRQsWLCAIYtWqVV5eXl26dAkLC1uwYEFhYSEAiMXiqKioBQsWoFNu3bq1fPnygQMH9urVy8vL69lnn126dOmPP/6Ifg0MDDx+/HhaWlpjGnnmRqmtraVPpdsTaGM1sItjJkyj0QAAPeTKphZHVSBHvL29xWKxyWRqTIXNEm4tW7du/fDDDydOnLhixQq6hNDQ0AkTJqCJmKY7Ul9fL5PJ6FGcTnfEaDRqtVr6w9QVNaJWq1EUhf0yHdViNptVKhU9JsvOBuyQI1qtliRJRgN2riPQ+J2YkZHx9ddff/311/a4xq1Cr9cbjUZ6UGFzOsJdwlDBPX9vtQHbNNvRy8V2JC0t7eLFixs3bnSWIxaLpb6+ntGAm8ERttk2HbEZiMDWYvPF0YYd4a53fo4wSng40pjMGzduJCYm5uXlRUdH83OEIAj+S8W423djT3DGtbApny3T0feETS8Yiqw6wl3CzciRIwsLC//888+VK1dWV1dnZGSMHz++pqYmNjb2v//9r7McoftivyNgqxZsqgDOm4ogCMYaGVc4wj7GHvmOPoNcUSNgx3vCHi1smcXFxSdPniQIwp67pomO2FnCzxGGQJvvCZsqmt8RtDsq4wnTNmqEXeJojdiU4KzLxWE2W6a7HLGnAfNwhPFM5uGI1ZLAwMDVq1f7+/vbKZatguDdBSFYkb2Mksbsdig0l7g/EBoJZGhhL0lySAV1PPqfLYFtNslaG8yNn59fnz59zpw5YzAYiouL09LSRo0alZWV9eqrr7K94+0IMpI6xRWOAKve2RIYjvCrdHa9cyvlEfXdDI6AtQbMrZR3vbNlhoaGpqamCgQChl5XOMK+/k50hF7Cffvbo8LRB0gTn1pIQqdOnXx9fekXkK3F0RqxaifjAdL0O9FmjXCbwU8L2+wmNmAeD5BmcAR4NWBHHyBOuVzs64+0BAQEvPnmm3DvAtp/uegC8YY5zUFSUtJDDz30008/tWvXrqKiora2Ni0tbd++fe62C9Nm6dKly/z5891tBQYAoH///kaj0Y0GXLt27ciRI44OHmi1WsbsGzg+CsJDC/vP+iZqca8j8+bNc0jOg8aD2AWpr6+/efNm9+7dm01jQEDAE0880aFDh6tXrw4bNuz9998/f/58s2nHPICgLA/utgIDAEDfsMctZGZmHn7vvV0PP+xGGx5M3jl3DnAXhJMHcUVMbW3tyy+/PGDAgOZUGhERERsbu2jRounTp+/bt2/ixInNqR3zoJGRkTFr1ix3W4EBANi8efOLL77obiswmJYIz1EQkiTp6dbQQBajBM1L0UsQ9EKOPw7QwQyZDAk2zbCqIiIi4pNPPhk8eHB0dPTcuXNR6lp0llVH2Ert0UIHZaf76quvxowZs2rVqtjY2HXr1nFcLh4q7KkRZznCraXpjrC12FTqkBarKrgdYZth0xGwdrmc6wiHzNu3b2dmZprNZpt3TQt3hF5i0xHuOHweTcuqFkcdUavVGo2GKrTqmkOOWNXCvu+oEsZT110o9fqdN2/OP358ebdu63r3Nlosb5w5sz4n5/OBA2fEx3vTFsFZpbihYefNm7fq6z8dOLB5DHYK9HpvegN29L5jK7UZGkJpQXNJdAl0OYz2zHhaWtVCTU5RKviHowLfYGmHIlboEiiB3DN27BI2QqGwXbt2Y8aM2bFjx7/+9a/IyEgAqK2tVSgUVPgeh9ls1+zxhSCIQYMG9e3b99y5c6+99hq4YDKS++I40RFus53riJ0qHHKEuIf9MnlcKx6OAN/LxZbp5eUVFhZGsFbEtDpHGAJdeo+wS3hfLrqEoKCgiIgIRy+go440XWbzQBDEkZISvdlMAhwpKZHd68+VaDSFajUABMpk4XK5XCSq1umu19cDgJ9EkuDru6+g4N9//z2qfXsAUBmNl2tr0Yl9goONZvPZ6mpfiURpMER7ewfKZMIW4zj10gU7mp+d0qjTwdZ9Z89rl5FgiCpEJ1ISUDeXOpLyiyqktDC6I1QhSds8njqYZxeEvvgCrIXmkvdnKABeobl0LRcuXGBrsZplyh4VFotlypQpO3bsAAC03cq2bdsGDBiAdnFgyGRUoaPR/kaj0Ww2o11sx40b9/XXX/fv3//y5cscjqBep0PXSqPRyGQyetwyaSva31FHzGazwWCgQq66dOlis94ZrdYeBPdoTIJVpQ45AvZF+zfREdRsHHKEx0KSxu7E7t27L1y40OqKmNblCL2EXWvNsCKGXwOmSxg3bpxWq+VeEeNosIhVRxjvAKqkRXVEpAJBVkXF9bq6ULk8q6Kia0AAABgtlvfPn/+tsFBlNPYJCXmta9duAQFpublfXr1qtlg6+voeGjNma16exmQ6VlZmMJv33br1WnZ2oExW3NBQOmNGmVbb78cf+4eEqIzGld27j42MlLeY1MSomkhrOWIcbcA27xEeK2IsFovJZKLnRBQIBMhUlDCP6oKgjDboV3QYSZImkwk1XaqxWX0ao9FHKgMf3ZGWUk826frKK7BundPE6XRwLyCUBACxeEnnziAUgsnkNBV0BAIwGAAABg2CQYO6uUKLSOQq4+kIhXcd6dmzhYzuYqwSFRUVFRXlbiswAADe3t7cOWkfKPykUrlI9PmVK+08PQHgtW7davV6sUDwQb9+vYODp/35575bt/oEBQXKZMuysmK8vZd36zY/ORkA/p2aOuPw4UlRURsvXVqelXVr2rQob+/jZWVb8vIGhYYCgLdYfGL8eDe713ogSVKv1wsEAkbuaI1G4+XlRe8Tm0wmk8mEUsBQj320ZTva6I+alNFoNCRJ0nf/M5lMRqORIAh6jl/6u+NBDEcFkoSaGvjsM5DJICQEnnsOTp4Ef38HJFgsUFv7zz+dDsxmqK8HrdYu7QYDKJVgMkFt7d03OgbjVA4fPoz3/m85DBkyZO/eva6Tv3fv3lu3bmntef60AB7t0OHAnTt/FReP7dABlWRVVBCbNi08fvzTAQNifXwAIMbHZ2nXrvVG46unToVv366/P2YCAFL37g3+5puJhw7VGgxmkkSnNLMjrRqj0cjof5AkqdVqhUIhvf9hNBoNBgM1gIG6I2iYhJF2ACUhYew+bDAYhEIho//xwHdBGhrgxAmorYWZM+Hnn/ksmiothREjYOxYGDsWRo2C776D69dh7lz47jvb5+p0cPgwTJwIV67AuHGQkcHDg9YCj5GStjS44kZfiouLT58+7S7tbQZn1aBerz9z5ozrFC1dunT48OEfffSRTqdjxAm2QAaEhhaoVMfKyoaEh6OSCzU1AJD1+OOWe0ZbSPLfqam5Tz65vGvXSq32x4IC6nQU55H1+OMVTz9dPGPG0pQUH9p7FGMnQqGQMf6h0+mEQiEjp4TRaBSJROhIrVabmZl55coVtVrNyIur0+lMJhN9ZxQA0Ov1QqGQkW0D7WNGlfCciOG3oIDR/QFbyxbMZrOZ1fl1AnV1cPAgzJkDc+bwFyIWw4kTAADr1sHnn8P06bBjh2MSUlLg+HH+BrgbtNoCXLAixmw2M6YzW+OKGNTaXb2QpDFH6B8Y9x0PR5phRYw9NWLTkZawIsaqIxMnTjx+/DjHsjtGY7O5Ioah5e+//16+fPmGDRs2b9787rvvPv7446icrrHl0DMwEACEBNE3OLiooYEqP1NVdfDOnfz6egDILC8f9PPPR8eNmxoXV6LRtPP0rL83YDwhKurVU6c+v3LlP337vpSZ+UzHjgG0P7JbGk5cEWPPPcIuYSilQkMYzViv15Mk6eHhodVqKQkNDQ1isVgkEpnNZpPJtGbNGhT8kZiYOHPmTOpcNP8ik8moZiwQCHQ6ncViYYyUoEkZkrYihmeaurq6OoVCQX1F4uguobcI/Wo6uos2CuCiemTEiBHOjAVpIsXFMHkynDwJAJCTA3PmwGefwfr1MGoU9O4Nc+bAf/4DBAE7dsCCBXD6NBw7BlOnQnY2pKfD779DRgasXw8ffADPPw9r10JwMHzxBSxdCnv2wE8/QWYmrFgBej2sXg0ffgj+/rBwobsdZtGzJ9WMOOqdEQVtDw0NDRKJhOo4syVYVQp2rCylsFgsarWanorJqkx2DKZDjqCE19QIJFsCWymPy9XYnUhFmTXdEYPBQM0EN78j9BLGAwTFx9mvwmQy6XQ6Ly+vxiSwzXauIzdu3NDpdElJSWzXbPY56FhtwOjKaDSaysrKoUOHAsDkyZPfe+89AEhLS/t97Vq3b01GAhgtFp3Z7CMWq4xGkiR9JBKjxUICiAUCtdFoIUkhQVgAJAKBTCg0WiwakwkAhAThJRabSVJvNhstFoVEYiLJhnsbziokEgtJqoxGiUDg0WKiUBHvnDv3enY2NBKO6mgDtnmPWH1a2vPa1Wq1UqkUHYa0GAwGtIoCmZ2bm7tlyxaTyYSk+fj4rFy5Ep2r0WhQYlGqAaMnBn15BADo9Xr0GCEIgu7IAzkR41yOHAEAYIwERkdDp04QEQGXLkFuLgQGQrduMGIEaDTw999WhCQmgr8/hIbeDQ0pKoK4OPDyghEjID8f8vJc7oVr4BGKzzjFjcH8TVftRuMZs7wYfji3Brdt2zZixIgVK1bU1NS4QhGanu/QoUN6evrTTz/9yy+/DBw48MqVK02X7BQIAIlA4CMWA4C3WIxmT8QCgUQgIAC8xWKFROIlFvuIxWilrlggUEgkqBAAhAQhF4kUEgkAiAgC/YS+CghCIZG0tP5HqwDFn1L9DwTVh0DN8vr16+np6SiZPKM3o9Pp6Ku9ECaTSSQSMZbqmEwmqVTKbue4zvhiMgHa4bSmBpYsAdr8GQCAUAgiEQiFUFwMJhOcPg1z5wLqtldUwP1jUwAAIhEQBKA6Ky8Hsxl274ZDh0Cvh4gIUCqbwSFMW+L06dM//PDD+vXr3W0I5h8WLVoUExPz2Wef9e3b9/HHH1+4cOH169dJknz99deHDh26du3aU6dO6XS6lStXDhkyZNeuXT/88INSqfz888/j4+PPnj27fPlyAHj33Xd79OihUqkmTZoEAOjgN9544/z58waDAX09evRoRkaG0WhUq9VTp041m82d3e07pgVCkqROp2MPk5jNZmpUIzc3988//ywpKQHWSLNWq7VYLOnp6UVFRTKZLCgoaNy4cQKBAA2K0KUZjUaZTGZ1yAd3QfgiEgE9xP3q1ft+1WoBjfcGB0NpKfTvD8uW3V10o9XaCEFFa2unTWtSqArmwSY3N3fv3r24C9KiCAoKmjVr1owZM9DXwMBAg8FAkqSfnx8AhIeHR0ZG6nQ69DUgICAyMlKhUKApME9PT7SJIpp/EQqF6Cs6uF27dkql0mAwoK/BwcHdunULDAw8c+aMyWTyZP/Ng3ngoRblMparaDQaT09PagnMX3/9VVhYyJ69Rf0PT0/PhoaGiooKACgsLMzOzpZKpa+99ho1BIv6H9D4RDnugriG27ehpgYKCmDUKNBqIT0dMjLg2jX44QfYs8f26WFhkJUFc+bAunVgNML//R/gfQUwmLbFv//9b/QBTeo/88wzzzzzDPXrww8//DAteiMhIeGrr75Cny0Wi1wup74CwLx58+jRJO3bt1epVIcPH+7SpcuPP/64Z8+ePf/+9436eld7hGFQo9e724RGYS/KBQCNRoOGMdDX33///fbt2ygchH4YCm1hLIpBsahGo/Hjjz8eNWpUz549AcBgMLC10IOveYajGo1GxkobsLUtN/sYbhhxNC0rHFWng7NnoX//f0rUasjLg8BAqKmBOXNgwwaQSsHPD5KTwWCA0lIoKgIA6NIFPD2hpgby8yEpCS5ehIQEkEigthbCw6GiAgoKIDUVSBJu34bqagCA1FRogfHePXtSgdYO7XhtE3b8FGlrz2xHmxYKpBXRZo5bqSPQ+J3Y0NBQVVUVGRlpj2vcsGPcmtMR7hKHVFitd0d3vG7Jjly7du2DDz7IyckZMWLE4MGDExMT0UhJWlratjfeWJ2aar8KjFPYfv36/+4NkDe93vk1LWjkTmRo1+v1FotFIpFYLBaxWFxXV5eWllZcXAysfeUtFou3t/ebb76Jvt64cePGjRsFBbfu3Cky3osRBoCYmJjRo0dHRETQO8cooIQkScoRnqMg4vtTCrE9tKeEG/emt7aBTHZf/wMAvLygRw8AABRolpAA7drd/UkigchIiIz85+CgIAgKAgCgsvWi4PZ27f45KzHRVcY7j+apd5sBqo6qoPYedkhmC3QEGr8TPT090fB707Www+mb6MiTTz5J/7plyxYPD4+ampoXX3wxLS3NTrPNZvO1a9cSEhJEdgch2qx3q2Y7erma4dnIduTq1at79uw5efJkbW3tc889N3r06PDwcPoxwTLZkLAwh7Rgms6JsjLqc9Pr3blNi/4TWv8iFovRvmQ6ne7s2bPFxcUkK9EK+oOE/kyIiory9vZOSkpUqdQnTpzIz89Hf53euHHj119/nTt3LnU62mVDJBLRWyaeiHE23boB5x5EGEwzkJGRsXnz5q1bt7rbECt8//33O3bsmDp1Kvo6Z86cdevWhYSE7Nq1y34hJElWVFTEx8e7xsZWxpAhQ6KiotavXz9s2DB324JpZZw6dSonJ0ckElF9hYqKitraWvZydDSyKxQK6Z0Sk8kUGBiIjuzcubNSqVy3bh2a5SkoKEhPTx85ciRBEGiXVXZQKl6Ui8G0QQoLCw5336sAACAASURBVDMzM91thV3s3bv38uXL+fn5BEEcP358yJAhKSkp6Bm3Zs0aNAicn5+PDs7OzkYl9fX1w4YNS0pKUuL1YgCXL1/OzMzE/Q+Mo5w8eXL37t35+fl5eXm596iurmbvWYIilhhjomgfM/qRvr6+Xbt2pbop+fn5ubm5JEkaDAaJRMIeG249oyA3b8Lnn7vbCAymdRARETFw4EB3W2EXwcHBt27dat++PVUyfvz4CxcuFBQUlJeXFxQUNDQ09OrV69ixY5cvX964cSNJkqdOnUpPT//rr78GDBiAtz8BgODgYB5nna+u3nXzJgAMDgsbFBrqef84P2L/7dsmkpxgR8rDUo3mk0uX3undm16INuYCgHd69zZaLLlK5cGioldTUnhYe6ayMrO8fHJMTPj9UZAY3hiNxgsXLrCz2gIr3S57RsZoNKLYlEOHDplMJh8fn9TUVLlcbjQaJ06cGBMTs2fPHgAoKCjIzMz09vYOCwuzukNa6+mCiMVA2xgOg8Fw0Llz53k8kh+1DFBe2aKioqtXr27fvh0V5uTkVFVVoXC2vn37xsbGXrp0yZ1WtnKu1Na+m5MTIJX6SaVfXLlSpdON7dDBl7G/EcChoiKDxWJPF6RCq303J4feBfn8ypU7DQ2RXl6VOt3ac+eWde0KTRh4v1BTk5abOzgsDHdB7OfYsWODBg2y+hPa7p0RasrubVBbvDM6EEajEeV/KSsry83N9fDwUKlUw4cPF4lEUqk0MTFRJBKZTCaSJIuLi3Nzc9tRYY73R8K2ni5Ihw4wfbq7jcDc48MP3W0BhovAwMDAwEB3W2EX1dXV0dHRVn8ym82VlZUAMHPmzLCwsKqqKuontAEGhjcbzp8nSXJNz54BMtmyrKyvc3PjFIokX98teXkLkpNNFsuma9dmd+x4vrpaSBB/Fhdfqq0dGBp6vKzMSyx+LiGhzmDYdv36zPh4hUSy+dq1hyMiDhUVAcAdtbq9lxcA1BkMb545c3js2M7+/qUaTfj27dPj4mRCIcrnUqLR7M7PB4CBoaHhcrlcJNqSl5fi73+hpibR1zc1MDBQJsurqztw5w4A+EulM3HQDy/Onz9/+/btbt26de7M3J0ORYYyVrqh9bdWOyX0c9E2IfQBSI1Gg0Y7hgwZAgAKhaJz587nzp0jSbK+vr68vJwhkFKBY0EwmDZIRkbGrFmz3G2FXSxatKhr167s8oEDB3bs2HHWrFmTJ0/+6KOPQkJCOnfurFKpAGDDhg2peIlpEzBYLFvz8nY9/DDqEGzo08dDJMooLa3W6V7OzNSZzQ0m08uZmdU6XdeAgI6+vn2Cg1/OzFyRnf1sQoJUIMivr6/W6ZacPFmt0wHAqjNncpXKwWFhAND+XgoehUSSGhj4+unTZyorw+Ry8oUXQjw8cqqr3zp7FgDabd8eLpe/1Lnz5mvXClQqpHd3fn63gIDVf//98+3bAJCwa9f4yMjR7dufKCvLx5ua8GLRokUvvPBC165d4+LiGD+h/HPUV4vFgjoWjCw2AECPP0ULwkmSpHZb9/DwQOeazeYDBw7cvHkTHTl27FiqQ6NWq1GhyWQymUx0FbgLgsG0QVp4OOq0adOIeyxdutS3kZ332rdv36NHj0GDBu3YsSM5Oblfv35r164lCGL58uXnz58fMGCAVCpl51vB8KC9p2fdvVS0jbGyRw9vsXhwWNgPt27ZI/PgmDHeYnGvffuITZt23nszAcDxsjIAeCImBgDocSGvpqQkKBT+UmmlVptfX0++8EKUt3eIh0e0tzcflzAAADB9+nSLxXLz5k2JRPL8889bPQb1KtjbtAMr/hRFitDHTp566imFQkHN3Rw5cgTuZeCjdnlHOTtRul2GwNYzEcPGbL6bqxYRFgaxsWAwQHY2pKQALY2kDVQqOH8eGLF7x4/f/TBwIJjNUFYGNTXQpQsfOwsLQa2G6Gjw8OBzOgbjOL6+vo3Nbrgdq9shxsTEoPKjR49ShatWrVq1ahX11cPDY8KECdTpEomE386KGPQSKNFoUFyF1mS6Vlc3CWWQaBx/qRQALCTpYcemTSUaTZFa/e2wYd8OG6Y0GNpt395+zBj0U5VOF3YvniNULi/Xatmn+0qlzx49WtTQQAAUqtWov9IaefbZZ91rwI0bNyQSCYoe3bx58+7du8eOHbt69WpqXARNi7DjT9mF7GS/FovFaDT27NkzKytLo9EAQHV1tdFoNJvNUqnU29u7rq4O7sWuGo1GqVTKWBTDswuCdl3ld+596hvfVshsNrP3hb0PnQ4++gj8/AAdExAAb74JOh1s2wZLlzrQBSkogJdfvm8zj0uXYNMm8PAAtRo8PKBTJ7hyBc6f59kFOXAArl6Fl18GO0K6WhEoMJAH3HtJ8RZrvxaSJNGyddepAHsasDO0NHYndurUae7cuXZeTG4VVNiaPaJ4a3HKI4WxYwGDVuSIQCDgEOJoA6bvh40QCQTJfn7/vXr1ta5dPUSiP4qLVQZDnI8PSlFrtFjUtG0uKa4qlQm+vjV6fcy9I+uNRgAwW+sIXlMqX8vK+mvsWC+xWCYU+kokxnuHxfr4lGo0lTpdkEx2uqJCYq1Dc6W29uvc3PrZs2sMho8uXrTT0xYICmaCRnreDLgbMKPSG9sLlUFdXR0az0AHBwUF6XS6kydPoi4I6lgwugWoC8IopIeJkCRpMpksFgtKctTQ0EC1MaFQqNfr0f5jlF64t7UrkkndIwRB8OyCaDQa+tgpNWNEL2Gs4WHvV82NwWAgCELGvTf588/D8OGA9ObkwPHjkJgIf/8NajUsXQr5+WCxwL59AAA9ewIA/PTT3e1Hy8pg7FgAgJMn4aWXAADu3AG0LLC4GGbPhqNH7+az7dkTvvwSysshL++uljlzQKGAKVPuShg/HiZPhh9+gKlTYeZMCAmBQ4fg9dcBADp3hi1b7PS31UG1MI56t9q+udHr9WKxmAp0YkuwqhQc2U4X5Yf0oXVSXeEIowHb4wh7K3SbNHYnRkdHo1EQxn3HwxH0Nw2VD6KZHaGXMB4g7K0LuLFYLHq93utesAJbgtWt6B29XPY4wi5xSAVJklqtVkFbIchortQWlqjE6lP38hNPZJSWytPSAGB5t24HxowJkskAYMfw4QFbtz5+7++laB+fV06eLNNoAODP4uLJ6elR3t63pk0DgLQhQ7rv2QMAvhIJAHQLCACAn2/ffiwyEgCGhYdnT5hAbNqE5NycOjVMLv+1sBAAuvj7H3vsseBvvgGA+cnJVkNNB4aGjoyI8NmyZVT79p39/bPvvchbHfv374dGhhAcrXelUsndtNgN2Gw29+jRA0Wevvbaa2+99RZdoE6nM5lM7P0/GD1g9jIZgiDQrIqHh8f3339/7tw5yoBHHnlELpcLBAKNRoNCQCwWi4eHBz2hDP0eac0TMQy6dYM9e4A+nZmUBLNnAwA8/jh8+CEkJsLo0XDmDNy5A//6F7z3Hty5Ax98AOvXw/z5QG1L0K4d9OsHGzfCjBkQGQlnzkBDA1y7dvfXOXPgk08gKQk++ug+7Rs3woYNMHw4hITA66/DoUNQUQFffQXFxa73HINh0pJ3R8W0EAaHhZEvvMAonBobOzU2lvq6pEuXJV26qI1G76+/fjUl5XPahPWM+PgZ9/ce2NIYJZNjYibHxADAwNBQ9NPOmzdjfXyCPTyoI38dNQp9OHhv4obi2YQEB13EwKVLl7p377506dJp06bRy1E+F8am76hbwxhZsbpMxmQyoa1O0fwLKpRIJMnJyaj7UlRUBPd6Rd73R/PQh+XaUBcEADQaoI8fhoRAcDDk5EBRESQkAElCWBgcOAAkCUolDB0KAFBWBhUVTDmffAKvvw7z54PFAs89ByNH3i0/exaEQujXD8xmoOe5mDkTRCLw8IDKSigrg4wMUKtBJAKcIxvjJlp4OCqmdUEQRISnp8gZk+8AUKhWD/jpJ+prwVNPOUUshs2CBQsOHjw4YsQI9k/sSQZ2qCncixRhd0rYW637+vouWbIE9WnMZvO2bdvQ8IlUKqUPgTDS47WhLojZDF5eYHWrRIHgnx5DXd19YSKhocAY4jOZwGiEd94BACgvh3Hj/gkBqa6GkBAAAKEQgoJAp7OiKygI0tLg228B/r+96w6Pqkr7v7l3ep+BmfReIJQ0QgelBMTF1ZWyuquCyCquCMrKWj9AkXWXsu5aELCgKIuCEEB0KYrgLqCEligLIsUUAgkhkAxpkyn3++Mkl5t7J9OSkATv7+HhyTlzzvue99xzz7xzzlsAux2CnwU3DZxOJzmyo2maOGWxHxHHLTSdAJNPySGkRCJhG5PjPl6R9CXHgxKJhKjb5HSRLFyn00leCbYvIU7TNHk3yJkhIcUrkhquCOAcU7Nm4ewwuKPikmKFYovcvmhu+036cl9vUmRN0FlS5CqXN12EMhGQ/RRNFglut5sw4pIijBQKBfspmTF2ujp1DkgRnQ8aqbS47cIyRWu1bUhNhBe89dZbLRmX8EyaPF6eekz3TbYptiXxfNHr9b/73e9UTS4XxcXF9fX1ZB+LjIxko5II7bFuIhUkPx8JCeBc9DZCIkF4ODZvhkQClwsUhR07AIBhGv/xsGcPtm7FG29AIoHVivBwNPk0w2rFhQtgGLhcuHgRHoMj/fADVq3Cf/6DhgasWNG2InYq7N+/3+12R0VFJSYmlpSUkCwe/fr102g0ly9fPnHiBIC+ffsaDIbCwsKioiKVShUVFRUWFkaKFEVFRUXFxsYWFxcXFxe7XK7o6Oi4uLjy8vKLFy86HI709HSDwVBVVZWXl0dRVM+ePUNCQoghlVQqjY6OjomJKSwsPH/+vNPpJMMoLS0tLi6uq6sjpCorK4uKiiorK0mxrq6uqKiorKwsNjbWZDK53e79+/cDiIiIIGYThw4dstvtpHFFRcX58+erq6tJsaampqCg4MqVK6TodDoJayICRVEHDx50OBxWqzUlJQVAXl5eRUWF0WgcMGDAtWvXioqKLl++HBkZmZiY2NDQUFhYeOHCBZYvmZDQ0NCoqCiFQkGKJpMpOjraaDT+73//u3r1qlqt7t+/P4DTp0+XlpbSNE3irxcXF1dWVoaHh8fExMjl8sLCwuLiYovFkpiY+PjjjxcWFhYUFOh0uujoaKvVWlhYWFhYKJVKSV+i3MCXfaWIG4BA87aLENEmYH8yoQX/W96yFEYqS09PHzNmTPfu3VkDvvr6+iNHjrC/o0JDQ5OTkwnBhoYG3m4T5NbD/kZki6wYbA3PDJuN88qt9PJrjDTm0vSA+fPx4ouNfz/8MB58EBUV/DZpadiwAUOGQCLB//0fxo1DdjYsFgwZArcbe/agd28AKCho9FgZMwa33oqhQ8kgsG4dLJZGW5C0NKxYgSFDoNVi2DD84Q8ehpSaioEDkZ2NcePAMDhxwtv4uzKysrKI1uxyuSwWi9lsBiCXy91ut8FgyMrKAiCTyRiGCQsLs1qt5He8y+WKjIwMCwtD09MPDw8PCQlhi2az2Ww2S6VSuVzucrk0Gk3//v1JdnJiVEWKhBShzA7DbDYbDAZWl9fr9T179mSLSqUyPj4+NjZWIpHU1dUxDEMGyR4/pKamsqSMRqNOp2OLSqUyISEhPj6eFMmwIyIi2OOHfv36cd/MPn361NbWkjMMlUqVkJAQFxdHURQ5N4qMjAwPD2fPWogUFEVJpVJ2usjxksvl6tGjB/f7KS4uLiYmhn0KYWFhiYmJZBgulysiIiI0NJSmaalUmpmZ6XA4LBYLS4pQRtOrarfby8rKzp49O3z4cIVC8dBDD1EU9e677wqfNfntwhb9ef15NfBlL+wPTd4GItwfeCbwQhaBCuKRS+sFEdbwdkvvggi5DB8+/E9/+lN2dja5dGeP07gcRXQI2MfUJgs4iKXFY8o71Zg6deqePXvOnj3L8nU4HFeuXKmsrBT637IHvWRnI43j4+NVKhU5kwZgs9kWL17MWrmOGDFi3LhxDMPU1tbSNE2uflhBgveIYY+FCdrDI4YcHXt729Vq7Nx5vahUQiKB2Yzdu6HR4KWXQFEgKQ/k8saTD7UaFAWKQnr69RoAu3c3Oz6Ry7F9e+PfOh0kEkyejN/8BgAyMrBjB+rrsW8fwsIa+xJbm3ffhVIJisKSJXA6IZNBIoFUiuHD4XLdfEFBNBoN+9zZx8RezRCNmKxa3o0jObhjizKZjFuUSqVcjxiyBrjLgJz1kRryv3AYLCNuDUVR7Kjq6+tpmtY0GesQCurmuSdkMhm7XMmLx6XG0+UVzZNrkEsQdvBEFWNvQEhf4bBbmi5ukZeVTS6XazgmR+RTmqYPHDjwr3/9a/ny5dz3jr2rIjTVanVMTExkZCSZ/2nTpk2aNOnYsWMZGRloDq7sQieRNvGI8WdLaaVDgXBL8ekR4/F2vPWCCGt86hzeuVgslpkzZ0ZHR69cubJfv35EEHa6xPOVDgR5TExbeMT4XFoePWK8f+3a7fasrKyhQ4eyi6SystJut3/99dcnOL+f2cMPthlN08RXTqlUsnrJli1b8vLyyF05aTZy5EiKosh1MLtJcgXpygewEomHxHUU1VjJO1vmtZRKm9UI6fBqFAooFCgtBYkuxzCQSjFxYrOWrNEvzwrVU/7JXwiIMUfHUmiJbJu06bQoKirixvhqCVzvu4EDBy5durRLS+0TgUrXTsvPI6PWdF+1atWPP/64fPnyO+64IzMzc82aNSaT6eZ+lCJaD7vd7na79Xo9b6lYrdaRI0eyKohQ/wDgdDpJqA9yK33mzJlTp06Vl5fX19eTlhRF3XfffUql0uFwEPcZjwuyK6sgNx6hodi2raMHIUKEbzidTrvdHlAXuVw+ZcqUdhqPiHaFxWIJCQkZMWJEfn7+ww8/3K9fvxkzZkydOpWbnlSECC4cDgfDMGq1mqsZ1NXVkYONmJiYCRMm5OTksPc4PKcYu90ul8tlMtlHH3106tQpCNx3n3rqKYvFQoKiSqVSbnfutaOYI0aEiJsQkyZN2scmGQgEs2fP/vWvf/3ss8+2+ZBE3ACkpaXl5uZ+8803GRkZixYt6tOnz2uvvXbhwgVhy/yKioxNm94+efLgpUsLjhz53e7dpyorfdK/5nCsPX3ae5tLdXW/272bJIIhuFhbm/TJJ/8uKjp46dKGc+eW5Od77LivtPTfRUU+x0BaGppHfZz45Zez9u8/eOnSkvz88Tt2ALC7XOdsNrt3a8IWcM5mm7V/fxHriHAzQiqVck8mHA5HbW2tTCZj76MHDRo0d+5ci8UiNApxu91qtZq9QGcdBokj3sMPP7xgwYLu3bsTkzuVSsUNNcmL8Rq8OSrPCRPNVRtWIfLSBi2E7fPSXkTnAVlz8PrciQbt/0MXdhFS8MgUgSwtBL6AgxCEx8VPQYKYLo805XK5xWIRPiOfLMaOHbt58+b8pi+JV1999fPPPwfw1VdflZWVbdq0acuWLRqNZvPmzS6Xa+vWrStXrlSr1W+++WZkZGROTs7KlSuVSuXs2bNHjRq1cePGlStXymSy22+//fHHH3/ttde++OILiqJ27doF4OOPP37vvfcAbNq0yWAwfPbZZx9++KFSqXz++ecHDRpESCkUiokTJ06bNi0nJ2fFihU0Taempi5ZsoR8yjDM9u3bpVLp9u3b//GPf5DRpqam5ubmPv/883K5fOrUqffcc8+mTZtI36ysrGeeeYaMSiKRmEymdevWbdmyZfXq1bW1tVqtdtOmTfv371+4cCGAJ554Yvz48T/++OOsWbMkEsnYsWPnzp17+fLl3//+98TP8P3339+0adM777zjdDq1Wu2WLVv27t27Zs2an3/+2Wg05uTkHD9+/OOPP87NzdVqtZs3b7548SLJXdyjR4/XXnutvr7+jjvuAKDRaDZt2rRz5841a9ZcunRJq9Xm5OQcO3Zs3bp1+fn5hHJRUdH69et37txJijU1NevXr9+wYQN5EAAmT55ss9lUKtXWrVsBLF26ND8///Lly5MnT3799dfdbndPwTfxvMOHB1itv01IMMrlkRrNtG+++eHKlR5GI4DsL74A8M/Bg/uYzatPndpfWtpNqTx6+fLDPXv2MZv/lpe36/z5p9PS5nz7bb/u3Q9fvvzV+PHTv/mmsLoaQM7YscJVeqi8/PE+fbIjIuQ0nWww9N248YGkJLvL9Yf//OejkSMpieSpb79dOmjQkwcOGORyWiI5WF7ew2B458cfh4SEPJCUFKHR3Llz54bsbK1UeuTy5Vid7skDB+qczql7964ZMQLApbq67cXFX48fP9BqjdfrD166tOfChZ5G46aff74/Kamivv7Jb7+N1mr7ms0nr159KSvrgT17xkVF7SgufqhHj0nx8XKK2nPhwl+OHQMwwGKZmpwsa6MIKGh69dizBOEmw23Mi8DBQxAbiJe9kcuooaHB6XSSAOosBYfDoVarMzMzDxw4wKa6JSzIBSUhTv5XKBRms3n06NEajSYmJkYmk9ntdoZh2Ex1aNI/SF/W3Sb4ixjhFanPmkBvVXmmvCI6FdhH4+W5c9doQJR9rhx/arzT75AF7J1F0NMlrNm2bVtKSgqbBsJnFxYjR45MSEi4evUqKY4ePTo6Opq47+p0uuHDh0dERBDPHYlEkpaWNnPmTKlUShyRSJGmaeKDR4oURcXExDAMM2rUqPj4eHY/ysrKIr+3iH1x3759CanY2FiWlFQqTUhIYIsURXXr1o0toslWo1evXqQYHh4OIDY2dtasWTRN9+zZE0B6evqsWbNIX3ZUEomEGMf17dv3kUceIbfaDMPEx8cTUr1792YYxmq1ksbR0dEMw2g0GiIgifKenp4+c+ZMt9tNfg4mJSXdf//9paWlZDZCQ0PvuOOO/v37E8p6vZ5QJqGpaZomRdK3R48eU6ZMqaurI42joqImTJhwyy23kE9NJlN2dnZycjIpyuXyzMxMi8VCGgOYPn06cXckxUmTJmVkZHz99dc7duxITU2VSqVObg4swM0wX5eUfDx6NImtHqHRLMzKIinrHv3vf++KjXW4XH/ct+/T7OxzNtt3ly7dm5CQ3q3bwqNHvxo/fmxk5K+ioysbGvZcuDAmMnJW797P5+a6gfuTko5fufKfCxdSm6e7u2q3n7h69eGUFJILxiCXuxjm+4qKSK12d0lJndNJSyQHysrqnM5J8fFuhgnXaI6fOvVTZeWs3r03FxR8fObMQz177i4paXC53FLp5fr6EJVqUnz8ycrKKU2xWXUyWU+DYd7hwxuysy1K5QsZGSEqVZ3TeeLq1XqX64/79g20WnubTNuLi3+qqqpzOneXlPQ2mR7v3Xve4cPjo6PlcvnTBw9OjItzMsz2oqKeRuOw0NCWX7jAIHzBW/oUfpgEBbGB+MPC6XSSrC6SphQwLpeLrChinP7dd9/ZbDZW/+DaSA0ePDg9PV2lUimVysjISLIIHQ6H2+1WKBRcdna7XSKRkDXMdg9SBeF5B7STRwyPiweQzC8Ezd8xv0Dyv2RkoD0iNVVVYcUKjBuH9HTPDfLy8MgjyM1tA163344FC5CZ6TkyW9AoKcGqVZgxA55ulFn31LZNrUIeekD+F4HmiBEurfYQhMfFH0GCcCRpSZDdu3ezLsSSQHLEaDQaEtqEIC0tLSUlhbjYabXatLS01NRUlkJSUlJSUhLLlBRZQdgiSyotLY0t8j6Nj4/neuIkJCQkJCSw40xKSiLqCxGE5UsasAlxCKxW61133cUjBcDpdNbX13P5ulwu9lMy7LCwsLvvvpvt261bt7vuuosdhkaj4X7K7QsgIiIiIiKiqqqKZG+xWq1Wq5WdHJ1OR/qSGqlUypJyuVyxsbGxnDSWpC9b1Ol0GRkZ7PzIZLLk5OQszu43btw47nL97LPP1q1bJ5VKc3JyBg4cuHr16p1Hj4IDBqhxOntzIhsNsloBnLPZVp08aZs2TSeTvXXixN6LFwGkms0zUlKqHY6/f/99VUNDZvfu2RER+0pLKYlkUlxcvF7/2L59748YcWtYmCI5+cUjR0Kae5bVu1zVDke3Jm8ISiJJM5vzr1yJFMRwGhYaamtosKpUAB7t1WtYaGidy/VVScmBsjJhSylFjW7al1RS6dGJEz85e9a8Zg2Ax3r1Wj5s2DmbDUBJTc2+0tL/3nlnrdMpp6il339Puszp2zdGp/vtV1+dtdmMcvmhu+8GcLG2du+FC1cCNKLyjjb0iPG5awXhEQOgrq6OeLWwXIgKolariW/jqFGjwsLCPvjgA27IRLopUmJsbCzJf8suP7vdzs0qRVBTUyORSEglV5CubAtSW4vZs/Hddzh8GLNnN1NHRIj4BSM/P7+goCA1NbWjByLiRiM/P3/AgAE5OTlPPPFEbm7uwIEDPTajJRIAF5qye7AgNTqZDECiXu+nMYSLYSI1GgVNA6h1Oms8Zdnl4ozNFi2MIdkc4c2/wPzBvQkJzCOPnPjtb89du8ZaolxzOBL0egBqqTSshYwZ0Vrtkvx8ydtvh69du/sXltWLxDDl6SgOh4MX0SAlJYUE/yAt2YBm5NyOZ2pKzj+4BIlTrtrTM+2yHjEMg5oaFBbip5/QowemTAFNw27H3r3YsQNZWThzBmPGoG9fjByJSZNgMKCgAIsXA8Df/45Ll8DboK9dwz//CbMZRiOqqpCejiFDsH07fvgBGg3OnEFYGJ5+GllZmD4dGg3On0doKBQKnDqFixexaBFmz0Z4OLKyUFKC/v0bI54BOHEC27c35q+RyTBvXmP9rl1gGHz2Ge68E888g6QklJfDZsOzz1539H3ySSQnA8Dp03jxxev1q1ejoADJyThypDFh71df4dQpnD2LiRORlob161FYiIgIfPcdevfG5Mm47Tbcfz+0Wpw7h1deQUkJJkzA3XcjKgr//S9eegkhIVi9GvX1qKlBbS0WLGjXByii/dCrV6+33nqrofvWAgAAEfJJREFUo0ch4sZhzZo1Bw8ePHnyZGZm5uzZs++++27u71qPWDZo0AuHDn0wYkScTvdtWdkrx449kpJyS1hYN6WyqLpaIpEcvHRpfr9+/tiHWlWqvRcvhqnVBdXVYWq1tXkMpDC1elxU1PgdOz4eNUovl5+vqQlRqW6Piqp1OgEUVVfXu1xCo9HPi4pm9+lz/MoVh8vVx2QCcKm+XkpRP1VV9RaEpT5ns43+/POc227L6NZNSdN6mYxq+lKM1GjO2mzHKiq6KRTbW5DlUHn5MwcPVj744I7i4oXNj4tuYpBYpRRFcQMREa1Cq9Vyj29dLpfb7Z43b96333577tw5rVabkpJCTD1IphhyHkPuX4hDDauUuFwukg9PxVkV3LuhLquCSCQwmVBTgw8+QEwMaBrZ2aiuxr//jenTkZqKl1/GsWONNwhpaRg0CFu3wmYDgNxczJ2LzEz84x/XCdbW4sQJPPoobr0V166hpAT19TAYMGUKpFJ8+un1OKeJiRg1CmfO4PhxTJiA/Hz84Q8g9j7du+O++1Bais2bG7PJEHaXL+PRR+F0NoZwJVl5x47Fxo24807YbBg2DKNGobISDzyAc+dATlxtNvTpg3vuQUMDNm5EdXWjCuJ0Yu1avPMO4uORmtqYjDc6GnfdhZ9/xsWLiIuDxYJbb0VoKIqLG2UBMHQoevXCnj2N80BRSEvD7bfj/fdRUQGGwdq12LoVtbVYvhxnztx84dR+Cdi1a1f//v2j2MzPIn4BWLt2bXh4+G9+85t77rknIiKCNUP2gsnx8ScrKxceORKt1Z612YaFhmZZLAa5/MV+/f6al+d0uyfGx6cYjTwVREFRYWr1gsOHx0RGspV/Sk3dWlBwpqqqsLr6T3376gWRkPqYzWFq9YtHjuhkshqn84WMDINcrqTpyfHxb/zvfwOs1ga3G0C0Vvtsbq6SpgH8WFm54PDhC7W1I8PDY3W6yfHxr37/fZxOR25JorVau8v14pEjL/brByBer5/Ws+eio0f7mExF1dUGuTzFaLxqtwPQymTTe/ZcdPRoksHwU1WVx6mI0GgS9fpXv//e4XYraLrG6Qx0/rsiSLBp3q1NQ0MDTdNc5ZVN0SWTyYYNGxYTE6NQKLp3797Q0EDuX7gtnU6nXC7nHop4zMfbBiqIMM4x2iFAu8vl8hagXSrF3/7W+HdeHu69F+++i8pKPPRQY+XQoSDvT2oqFAoYDLh2DeXlcLvRvz8AREaCnayQELz0EhYuxFNPAcCWLVAqoVY3njEAGDy48Y/o6MY0dQkJkEhgsZAZAdBINjQUdXWNX/MAKirw5Zf48svGYn4+eF8P584hMxMaDTQa9O6NH35oVEH0esjljRl9gesjcTphs4FcQqemIjUVr7+O5GSoVLBY8PPPjWl72fa33974R1wcZDKYTLh2DQAoqvEoiKJQU4OGBths19klJmL06BYnn5NhxMtzFzaAL6MNsrR4iZHaNhw44ylQt3dBhMPwKYhHLm0e15zL4uzZs7fcckt1dfWRI0dMTb8Uhe9d5xekJZo+BekMAdr9EURYE5AgQi67du3i/u5k/AjQHq3VvnvLLcL6x9njWwDAIrKnAVaVinnkEQBxej0xwmhoylDxYHLyg+SwtgkfN986jHK5kJeCpjdkZ5O/n2kyElo3alRZXR2Auamp8Zx8omxLFvXTp3OL8zMzeQ1MCsX7I0YAIKxLamrW/PQTTVHxej3TlD2UFeH0vfeSP14ZMID88QbJ0dFqtGGA9uCWFo8paxrCi9VBAngoFAqpVMquHBJVjHjKELIRERFOp7O2tpYEZSaVLpeL5KMgRx3sBk68fLkBnclJCduxVR4xHQy7Hbt341e/aiympyMyEg4HundvZpdKvmu5sFjgdKK0FKGhOH8e3JczORlr1wJASQl27sTQodi6FVu3wmjE5s04eND3qFjHepq+HiNVq8XUqZg1q8VeFgtKS2G1QiZDcTF+/evG+rw8vP46du+GVIrPPvPNnUVhIT79FFu3IiICb7yBS5f87RgZiS1brhdbuhatqAAwY8YMg8GwePHi8vLyZcuWXb161Wg0Ll68uLKyct26dXl5eaRYW1s7Z84cAEOGDHnwwQcdDseMGTMAhIeHL1y4sKysbNGiRXV1dUajkRBZtWrVqVOnzGbzkiVLqqurd+7cuXPnTqPRuGTJkoaGhvz8/HfeeScuLu65555jGObRRx8lnhrLli0D8MorrxQUFJDG165d27JlyzfffEMo19fX5+bmfvjhh2RUbre7qKho0aJFBoNhwYIFGo2mrKxs/vz5Wq321VdfBfDee+/l5uYqlcrXX38dwJdffvnpp58Syk6n89y5c8uWLTOZTIsXL6Zpuqys7IUXXtDpdDNnzkxMTCRFqVR655133nbbbdu2bdu2bZtMJnvzzTcB5OfnL1++XCKRrFy5EkBZWdm8efP0ev2cOXPCw8PJMNRq9eTJk4cOHUqKcrl88ODBDzzwAKFMsszMnz+/tLT06aefttlsb7zxRnh4uEajGTVq1Ntvv60Sj69EiAAAVDU0GJsiiAwOCflUoMr8YsHTP1wuF+9Ug+gfcrmcZ0JL3Me4pMiFDi93BAmTyqu02+08Db7LesQoFBg9GosXo1cvUBSOH0dSEjIycP48Fi9Gnz7Yvx+pqRBqshERGDwYS5Zg5EhYLNdPQU6fxpo1SEyExYKrV9GjB6xWdOuGvDxcuYJDh+DPyHNzodGgqAh9+oA1aB84EF9/jZUrwTA4ehQvvwzi8WU2g2HwxRcYPx4rV+LsWZSVISoKTT87YDbDYsG+fbh6FYcOITW18V5JqcTIkVixAlFROHDg+o0PC60W3bsjLw95eTh+HFYrBHZnHpCejpEj8cknsNtx8iQee6xFRyGGAWA2m1UqFXlMJBq0RqMhRa1WazabNRoN3ZR5DgCxr3a73eQHOlGiGYYxGo1KpZItkr46nY7YQ6lUKpPJRO4myYJmiwzDmM1mhmHIMGia1uv1LF9SbzKZ2BQqMpmMFNmlRRqzvwbMZjO52iSjNZvNcrmcFBUKBZevVColfZvmgzGZTCqVirV+N5lMJCcCTdNKpdJsNhOLcXKeaTab2QAAFEWZzWYS54e8HWazWaFQkL5kbmUyGZveiVBmp8tkMsXGxhoMBpqmIyIiPvroI3hNrdLlXHtaEgRBpdgQcvE+7KBdurwLIqwJiIVHLtz9ls0oRmq6VqT2EJVKeOYRNAxyOXvm0SHo/B4xxM+WVTUIF7fbTXKFMpxkQ2SZETMj7oZAwqRy/QddLhe7ebKV7IEKt3uQGRBYx7OW5qL1KkhdXV2zxDZjxly/dmHx5z9f//u550D80UnlgAG49VbodJg/H889B40GeXlISoLZjLIyLFsGmm606oiNbVQv9u7Fvn0g94Xz50Onw5Ej+OQTJCcjIgJlZZg2DX/+M558EhERqK5GeTni4nDlCv76V8yZgzlz0K8fyssbu1MUdu1Cejri4nDoEDZsAID77mvmo0uGunQp/va3xhy/jz0Gjnsh3n0Xp04hKQlRUQgLu96XMCVYuhQvv4x77kF8PGw2nD6N9HQcOoStWwFgyBDU1aF/f7z9NubPh0qFM2ca1aNlyzB3LsxmLFyI3/8eiYnXhzR4MCZMwJUr2LULY8agWzf+zGdlsaeIbevLSs7ueHH32tYp1+12V1dX6znHvO0hSH19PRt8wk9Bgvjm9udNbKUKQsIWsdbsnUQQBL6DE6dcLccXoz1UEH8EEdYExMLjAvaigqxevXrnX/6yXjwAuOF45dix53Nz0UYqiM+lFZwKwo2qTrjo9XqmKf4HS4EVgegMXNUKza+QPL7+3NFyBeniKkjnQVkZZs/G9OnwFBzwJoSogviCqIKIKkhLgghrRBXkpkTnV0EYQf4XooKwlVwVhOUCjgpCani7Je/gjceFK0iXtQXpbAgJwfr1HT0IESJEiBAhwl94vKTzUsk7s/Czu5erwOBzxATXsRNyEdGpwLPf7rq4ad6Rm0aQGwNxukS0E26apdXMQ6erLOXOfhHzS0NWVldZOSJE/MKxceNGMfVxR+HMmTMdPYRODVEFEREURBVEhAgRIkS0Dl05R4wIESJEiBAhostCVEFEiBAhQoQIER0AUQURIUKECBEiRHQARBVEhAgRIkSIENEBEFUQESJEiBAhQkQHoMt4xOTl5XX0EEQ0Qzo30rwIESJEiBARILqMCiJChAgRIkSIuJkgXsSIECFChAgRIjoAQQZoLysrI9nDCdhcebwabmR4YTociUTCTbrDw7Vr1xoaGqRSKdudUOBx8c4CgNFo9C6IQqHgpncKQhDvXGpra0nqNR7NthWkoqKCoihuNjKSp6oNBbHb7TabTS6Xt6sglZWV3MRg7SGIy+WqqKhgE8i1JIiQS0CCeFzAbSsIgn0TeSz0er2XRFYeF3DnFESr1bITLkRDQ0NVVRVvAXdOQdRqNXecPHhcwFwW7G7ZmgXcJoIoFAqVShUQF27WVj8F8b6A2+TbSiaTaTSa9hbE+wJuE0FomtbpdEEL0hIXniAqlYq7PltiQdN0kCqIQqFo70y5UqlUJpOxc+FPpsEg8nMSQbxkGfaYnxOB5GWlaVqtVvMSjcLrdAUhiFwuV6vVbJf2EISiKJVKxUs06l2QIBKNkjS57P7bHplyJRKJUqls70y5HhdwmyeY9edNbGWmXI8LuMMFQeCJRj0u4DbPlOuPIMKagFiQDMw8Ll4y5d5IQXjbfhBchMNu5QLunIIg8OfuU5AgMuX6w0U4/2jddHFZiBcxIkSIECFChIgOgKiCiBAhQoQIESI6AKIKIkKECBEiRIjoAARpC8IwDLmIYotouppia8iNEbeGNclh4eUmjDTm0eRR8DkM7yxYCtwbO6EgQqaBcnG73QFNV9CCeGfRVQQRcvHJNCAuHll4F0Q4DJ+CwNN0ta0gftL0/tbcTIJ4v5AOYml55NJ6QYQ1AQnikYvwvWvlAg5OEB5Tn4YI3gVBWyzgLiSIzwUchCA8pkEI4vOLQyisn4JIJJIgVRAIrMSZ5jaxTAvWvwEZ+PDaCykwAkNcYY0/LLzQbIlpZxOkJS7emULwHANlAV+m0a0UxM+FFBAXjw9dyMUj36AFEVLwOP/BcfE57HYVxM8af7hwuwtrfA7DJ8dABQniHWkTQfxh4VMQj3wD5eKdoE8W/nD05x1pV0G88PVIITgubbWAAxWExzS4J9IeCxitUUEkAsteXg3T3B6bHaX/prlESK4hLq+G5cIWhU5K/oBnSc6jIBw2I/AN9kcWniAeuXgZhp8s2C43QBCPFHiCEO04UBYSgQG2d6ZBWH37IwjPoD1QFvD03L0zDfq5exfE+zBaL4hw/m+AIBC8/v6wCHQDCW4B+xREWBPoExFS8LiBtGYBBycI78spCC7CDaSVC9inIP58fwXBRTj/rV/AgW4gbTJdgX5/BcRCtAURIUKECBEiRHQARBVEhAgRIkSIENEBCN4WhGuf4rHGYwNepc+jG7Y9+UNIgVtk2wTHoiUK/tQExMXPmoBYME3wTvAGCxLcE/FJwZ8af6bLO4XWLy3vNNuKS3svLfh67/ysab0gPofRSkGE899pn0igNG+YILyaVr4jvH2gpS6d84l4nP92FcTP3bIzPHemyZAleI8Y7wbYLb3MPLtZnx4xPrn4tAP3x/+Ce2MnZMF4slQKiIvb7W5vQdA8OHpLT6SVXG6AIIRCQDTbaWlBsICDeCLtKoifNIULOFBBhFw6RBBhTaB2+IEK4pFLhwvikYuQBVq3gNtEEJ+GCB658IbdygUcnCC8YbSJIEIugS7gIAThzZ5Pow0hF5/fgEELIpFIOvVFTEDWQO3HovXDCJTCjefYTmRvwBMMAoFazHV13Hhhf1HT2wnReea/TUbSecTpiui03yYEQZ6CUBQVaIz9QN0WSGNuujKfMfaDyEwhkUhomuZakjNtnVrFoyDwOl3CBn4Kws0RI2TRtoJ4pND61CqEBW+62jZHDJqmq10F8fjc2zy1ij9PhGfQfmMEQYBPJFBBEFRqFSGXNs8R448gwpqAWHjk4tGzr/VvYqCCBOpI4l0Q4bZ/0wiCoJIcBbqBBOEtKOQinH+0brq4LP4fUtXo7UarlEgAAAAASUVORK5CYII=;" parent="WIyWlLk6GJQsqaUBKTNV-1" vertex="1">
          <mxGeometry x="250" y="-10" width="726" height="351" as="geometry" />
        </mxCell>
        <mxCell id="8tcFqLYshYYFTFdqs2hX-60" value="Interface (Abstract)" style="swimlane;fontStyle=1;align=center;verticalAlign=middle;childLayout=stackLayout;horizontal=1;startSize=29;horizontalStack=0;resizeParent=1;resizeParentMax=0;resizeLast=0;collapsible=0;marginBottom=0;html=1;whiteSpace=wrap;" parent="WIyWlLk6GJQsqaUBKTNV-1" vertex="1">
          <mxGeometry x="410" y="575" width="180" height="79" as="geometry" />
        </mxCell>
        <mxCell id="8tcFqLYshYYFTFdqs2hX-61" value="Controls" style="text;html=1;strokeColor=none;fillColor=none;align=left;verticalAlign=middle;spacingLeft=4;spacingRight=4;overflow=hidden;rotatable=0;points=[[0,0.5],[1,0.5]];portConstraint=eastwest;whiteSpace=wrap;" parent="8tcFqLYshYYFTFdqs2hX-60" vertex="1">
          <mxGeometry y="29" width="180" height="25" as="geometry" />
        </mxCell>
        <mxCell id="8tcFqLYshYYFTFdqs2hX-86" value="pure Virtual Methods(semantic)" style="text;html=1;strokeColor=none;fillColor=none;align=left;verticalAlign=middle;spacingLeft=4;spacingRight=4;overflow=hidden;rotatable=0;points=[[0,0.5],[1,0.5]];portConstraint=eastwest;whiteSpace=wrap;" parent="8tcFqLYshYYFTFdqs2hX-60" vertex="1">
          <mxGeometry y="54" width="180" height="25" as="geometry" />
        </mxCell>
        <mxCell id="8tcFqLYshYYFTFdqs2hX-62" value="Track (audio/midi)" style="swimlane;fontStyle=1;align=center;verticalAlign=middle;childLayout=stackLayout;horizontal=1;startSize=29;horizontalStack=0;resizeParent=1;resizeParentMax=0;resizeLast=0;collapsible=0;marginBottom=0;html=1;whiteSpace=wrap;" parent="WIyWlLk6GJQsqaUBKTNV-1" vertex="1">
          <mxGeometry x="240" y="793" width="140" height="54" as="geometry" />
        </mxCell>
        <mxCell id="oKRzAN5yuzPkAz9cU-W4-11" value="-vector&amp;lt;float&amp;gt; signal" style="text;html=1;strokeColor=none;fillColor=none;align=left;verticalAlign=middle;spacingLeft=4;spacingRight=4;overflow=hidden;rotatable=0;points=[[0,0.5],[1,0.5]];portConstraint=eastwest;whiteSpace=wrap;" vertex="1" parent="8tcFqLYshYYFTFdqs2hX-62">
          <mxGeometry y="29" width="140" height="25" as="geometry" />
        </mxCell>
        <mxCell id="8tcFqLYshYYFTFdqs2hX-64" value="Session" style="swimlane;fontStyle=1;align=center;verticalAlign=middle;childLayout=stackLayout;horizontal=1;startSize=29;horizontalStack=0;resizeParent=1;resizeParentMax=0;resizeLast=0;collapsible=0;marginBottom=0;html=1;whiteSpace=wrap;" parent="WIyWlLk6GJQsqaUBKTNV-1" vertex="1">
          <mxGeometry x="750" y="550" width="190" height="229" as="geometry" />
        </mxCell>
        <mxCell id="8tcFqLYshYYFTFdqs2hX-65" value="-const char* session_name" style="text;html=1;strokeColor=none;fillColor=none;align=left;verticalAlign=middle;spacingLeft=4;spacingRight=4;overflow=hidden;rotatable=0;points=[[0,0.5],[1,0.5]];portConstraint=eastwest;whiteSpace=wrap;" parent="8tcFqLYshYYFTFdqs2hX-64" vertex="1">
          <mxGeometry y="29" width="190" height="25" as="geometry" />
        </mxCell>
        <mxCell id="hWnJI4IfWUACmpFcas3W-2" value="-Metronome metronome" style="text;html=1;strokeColor=none;fillColor=none;align=left;verticalAlign=middle;spacingLeft=4;spacingRight=4;overflow=hidden;rotatable=0;points=[[0,0.5],[1,0.5]];portConstraint=eastwest;whiteSpace=wrap;" parent="8tcFqLYshYYFTFdqs2hX-64" vertex="1">
          <mxGeometry y="54" width="190" height="25" as="geometry" />
        </mxCell>
        <mxCell id="hWnJI4IfWUACmpFcas3W-3" value="-Handshake hs" style="text;html=1;strokeColor=none;fillColor=none;align=left;verticalAlign=middle;spacingLeft=4;spacingRight=4;overflow=hidden;rotatable=0;points=[[0,0.5],[1,0.5]];portConstraint=eastwest;whiteSpace=wrap;" parent="8tcFqLYshYYFTFdqs2hX-64" vertex="1">
          <mxGeometry y="79" width="190" height="25" as="geometry" />
        </mxCell>
        <mxCell id="5Ky6F6QJATN6FZENjKMb-44" value="+get_user_input() // thread #1" style="text;html=1;strokeColor=none;fillColor=none;align=left;verticalAlign=middle;spacingLeft=4;spacingRight=4;overflow=hidden;rotatable=0;points=[[0,0.5],[1,0.5]];portConstraint=eastwest;whiteSpace=wrap;" parent="8tcFqLYshYYFTFdqs2hX-64" vertex="1">
          <mxGeometry y="104" width="190" height="25" as="geometry" />
        </mxCell>
        <mxCell id="5Ky6F6QJATN6FZENjKMb-47" value="Channel Master" style="text;html=1;strokeColor=none;fillColor=none;align=left;verticalAlign=middle;spacingLeft=4;spacingRight=4;overflow=hidden;rotatable=0;points=[[0,0.5],[1,0.5]];portConstraint=eastwest;whiteSpace=wrap;" parent="8tcFqLYshYYFTFdqs2hX-64" vertex="1">
          <mxGeometry y="129" width="190" height="25" as="geometry" />
        </mxCell>
        <mxCell id="5Ky6F6QJATN6FZENjKMb-45" value="-Channel ch1" style="text;html=1;strokeColor=none;fillColor=none;align=left;verticalAlign=middle;spacingLeft=4;spacingRight=4;overflow=hidden;rotatable=0;points=[[0,0.5],[1,0.5]];portConstraint=eastwest;whiteSpace=wrap;" parent="8tcFqLYshYYFTFdqs2hX-64" vertex="1">
          <mxGeometry y="154" width="190" height="25" as="geometry" />
        </mxCell>
        <mxCell id="5Ky6F6QJATN6FZENjKMb-48" value="-Channel ch2 ..." style="text;html=1;strokeColor=none;fillColor=none;align=left;verticalAlign=middle;spacingLeft=4;spacingRight=4;overflow=hidden;rotatable=0;points=[[0,0.5],[1,0.5]];portConstraint=eastwest;whiteSpace=wrap;" parent="8tcFqLYshYYFTFdqs2hX-64" vertex="1">
          <mxGeometry y="179" width="190" height="25" as="geometry" />
        </mxCell>
        <mxCell id="5Ky6F6QJATN6FZENjKMb-46" value="+get_channel()" style="text;html=1;strokeColor=none;fillColor=none;align=left;verticalAlign=middle;spacingLeft=4;spacingRight=4;overflow=hidden;rotatable=0;points=[[0,0.5],[1,0.5]];portConstraint=eastwest;whiteSpace=wrap;" parent="8tcFqLYshYYFTFdqs2hX-64" vertex="1">
          <mxGeometry y="204" width="190" height="25" as="geometry" />
        </mxCell>
        <mxCell id="8tcFqLYshYYFTFdqs2hX-66" value="Metronome" style="swimlane;fontStyle=1;align=center;verticalAlign=middle;childLayout=stackLayout;horizontal=1;startSize=29;horizontalStack=0;resizeParent=1;resizeParentMax=0;resizeLast=0;collapsible=0;marginBottom=0;html=1;whiteSpace=wrap;" parent="WIyWlLk6GJQsqaUBKTNV-1" vertex="1">
          <mxGeometry x="775" y="470" width="140" height="54" as="geometry" />
        </mxCell>
        <mxCell id="8tcFqLYshYYFTFdqs2hX-67" value="Tempo" style="text;html=1;strokeColor=none;fillColor=none;align=left;verticalAlign=middle;spacingLeft=4;spacingRight=4;overflow=hidden;rotatable=0;points=[[0,0.5],[1,0.5]];portConstraint=eastwest;whiteSpace=wrap;" parent="8tcFqLYshYYFTFdqs2hX-66" vertex="1">
          <mxGeometry y="29" width="140" height="25" as="geometry" />
        </mxCell>
        <mxCell id="8tcFqLYshYYFTFdqs2hX-68" value="Menu (LCD SCREEN) (Singleton)" style="swimlane;fontStyle=1;align=center;verticalAlign=middle;childLayout=stackLayout;horizontal=1;startSize=29;horizontalStack=0;resizeParent=1;resizeParentMax=0;resizeLast=0;collapsible=0;marginBottom=0;html=1;whiteSpace=wrap;" parent="WIyWlLk6GJQsqaUBKTNV-1" vertex="1">
          <mxGeometry x="960" y="460" width="170" height="104" as="geometry" />
        </mxCell>
        <mxCell id="5Ky6F6QJATN6FZENjKMb-19" value="+ Options" style="text;html=1;strokeColor=none;fillColor=none;align=left;verticalAlign=middle;spacingLeft=4;spacingRight=4;overflow=hidden;rotatable=0;points=[[0,0.5],[1,0.5]];portConstraint=eastwest;whiteSpace=wrap;" parent="8tcFqLYshYYFTFdqs2hX-68" vertex="1">
          <mxGeometry y="29" width="170" height="25" as="geometry" />
        </mxCell>
        <mxCell id="5Ky6F6QJATN6FZENjKMb-38" value="-Config cfg" style="text;html=1;strokeColor=none;fillColor=none;align=left;verticalAlign=middle;spacingLeft=4;spacingRight=4;overflow=hidden;rotatable=0;points=[[0,0.5],[1,0.5]];portConstraint=eastwest;whiteSpace=wrap;" parent="8tcFqLYshYYFTFdqs2hX-68" vertex="1">
          <mxGeometry y="54" width="170" height="25" as="geometry" />
        </mxCell>
        <mxCell id="5Ky6F6QJATN6FZENjKMb-29" value="+setters() // LCD latter" style="text;html=1;strokeColor=none;fillColor=none;align=left;verticalAlign=middle;spacingLeft=4;spacingRight=4;overflow=hidden;rotatable=0;points=[[0,0.5],[1,0.5]];portConstraint=eastwest;whiteSpace=wrap;" parent="8tcFqLYshYYFTFdqs2hX-68" vertex="1">
          <mxGeometry y="79" width="170" height="25" as="geometry" />
        </mxCell>
        <mxCell id="8tcFqLYshYYFTFdqs2hX-70" value="Config" style="swimlane;fontStyle=1;align=center;verticalAlign=middle;childLayout=stackLayout;horizontal=1;startSize=29;horizontalStack=0;resizeParent=1;resizeParentMax=0;resizeLast=0;collapsible=0;marginBottom=0;html=1;whiteSpace=wrap;" parent="WIyWlLk6GJQsqaUBKTNV-1" vertex="1">
          <mxGeometry x="790" y="383.5" width="110" height="61" as="geometry" />
        </mxCell>
        <mxCell id="8tcFqLYshYYFTFdqs2hX-71" value="from&amp;nbsp;&lt;span style=&quot;background-color: initial;&quot;&gt;file (defaults)&lt;/span&gt;" style="text;html=1;strokeColor=none;fillColor=none;align=left;verticalAlign=middle;spacingLeft=4;spacingRight=4;overflow=hidden;rotatable=0;points=[[0,0.5],[1,0.5]];portConstraint=eastwest;whiteSpace=wrap;" parent="8tcFqLYshYYFTFdqs2hX-70" vertex="1">
          <mxGeometry y="29" width="110" height="16" as="geometry" />
        </mxCell>
        <mxCell id="5Ky6F6QJATN6FZENjKMb-6" value="+setters" style="text;html=1;strokeColor=none;fillColor=none;align=left;verticalAlign=middle;spacingLeft=4;spacingRight=4;overflow=hidden;rotatable=0;points=[[0,0.5],[1,0.5]];portConstraint=eastwest;whiteSpace=wrap;" parent="8tcFqLYshYYFTFdqs2hX-70" vertex="1">
          <mxGeometry y="45" width="110" height="16" as="geometry" />
        </mxCell>
        <mxCell id="8tcFqLYshYYFTFdqs2hX-72" value="Controls (json?)" style="swimlane;fontStyle=1;align=center;verticalAlign=middle;childLayout=stackLayout;horizontal=1;startSize=29;horizontalStack=0;resizeParent=1;resizeParentMax=0;resizeLast=0;collapsible=0;marginBottom=0;html=1;whiteSpace=wrap;" parent="WIyWlLk6GJQsqaUBKTNV-1" vertex="1">
          <mxGeometry x="210" y="575" width="180" height="79" as="geometry" />
        </mxCell>
        <mxCell id="8tcFqLYshYYFTFdqs2hX-73" value="enum" style="text;html=1;strokeColor=none;fillColor=none;align=left;verticalAlign=middle;spacingLeft=4;spacingRight=4;overflow=hidden;rotatable=0;points=[[0,0.5],[1,0.5]];portConstraint=eastwest;whiteSpace=wrap;" parent="8tcFqLYshYYFTFdqs2hX-72" vertex="1">
          <mxGeometry y="29" width="180" height="25" as="geometry" />
        </mxCell>
        <mxCell id="8tcFqLYshYYFTFdqs2hX-84" value="keyboard / button methods ()" style="text;html=1;strokeColor=none;fillColor=none;align=left;verticalAlign=middle;spacingLeft=4;spacingRight=4;overflow=hidden;rotatable=0;points=[[0,0.5],[1,0.5]];portConstraint=eastwest;whiteSpace=wrap;" parent="8tcFqLYshYYFTFdqs2hX-72" vertex="1">
          <mxGeometry y="54" width="180" height="25" as="geometry" />
        </mxCell>
        <mxCell id="8tcFqLYshYYFTFdqs2hX-78" value="Channel" style="swimlane;fontStyle=1;align=center;verticalAlign=middle;childLayout=stackLayout;horizontal=1;startSize=29;horizontalStack=0;resizeParent=1;resizeParentMax=0;resizeLast=0;collapsible=0;marginBottom=0;html=1;whiteSpace=wrap;" parent="WIyWlLk6GJQsqaUBKTNV-1" vertex="1">
          <mxGeometry x="450" y="690" width="140" height="254" as="geometry" />
        </mxCell>
        <mxCell id="8tcFqLYshYYFTFdqs2hX-79" value="vector&amp;lt;Track&amp;gt; tracks" style="text;html=1;strokeColor=none;fillColor=none;align=left;verticalAlign=middle;spacingLeft=4;spacingRight=4;overflow=hidden;rotatable=0;points=[[0,0.5],[1,0.5]];portConstraint=eastwest;whiteSpace=wrap;" parent="8tcFqLYshYYFTFdqs2hX-78" vertex="1">
          <mxGeometry y="29" width="140" height="25" as="geometry" />
        </mxCell>
        <mxCell id="5Ky6F6QJATN6FZENjKMb-0" value="float gain" style="text;html=1;strokeColor=none;fillColor=none;align=left;verticalAlign=middle;spacingLeft=4;spacingRight=4;overflow=hidden;rotatable=0;points=[[0,0.5],[1,0.5]];portConstraint=eastwest;whiteSpace=wrap;" parent="8tcFqLYshYYFTFdqs2hX-78" vertex="1">
          <mxGeometry y="54" width="140" height="25" as="geometry" />
        </mxCell>
        <mxCell id="oKRzAN5yuzPkAz9cU-W4-2" value="#void mix_tracks()" style="text;html=1;strokeColor=none;fillColor=none;align=left;verticalAlign=middle;spacingLeft=4;spacingRight=4;overflow=hidden;rotatable=0;points=[[0,0.5],[1,0.5]];portConstraint=eastwest;whiteSpace=wrap;" vertex="1" parent="8tcFqLYshYYFTFdqs2hX-78">
          <mxGeometry y="79" width="140" height="25" as="geometry" />
        </mxCell>
        <mxCell id="5Ky6F6QJATN6FZENjKMb-49" value="+monitor()" style="text;html=1;strokeColor=none;fillColor=none;align=left;verticalAlign=middle;spacingLeft=4;spacingRight=4;overflow=hidden;rotatable=0;points=[[0,0.5],[1,0.5]];portConstraint=eastwest;whiteSpace=wrap;" parent="8tcFqLYshYYFTFdqs2hX-78" vertex="1">
          <mxGeometry y="104" width="140" height="25" as="geometry" />
        </mxCell>
        <mxCell id="5Ky6F6QJATN6FZENjKMb-55" value="+mute() // unmute()" style="text;html=1;strokeColor=none;fillColor=none;align=left;verticalAlign=middle;spacingLeft=4;spacingRight=4;overflow=hidden;rotatable=0;points=[[0,0.5],[1,0.5]];portConstraint=eastwest;whiteSpace=wrap;" parent="8tcFqLYshYYFTFdqs2hX-78" vertex="1">
          <mxGeometry y="129" width="140" height="25" as="geometry" />
        </mxCell>
        <mxCell id="5Ky6F6QJATN6FZENjKMb-50" value="&lt;div&gt;+void record()&lt;/div&gt;" style="text;html=1;strokeColor=none;fillColor=none;align=left;verticalAlign=middle;spacingLeft=4;spacingRight=4;overflow=hidden;rotatable=0;points=[[0,0.5],[1,0.5]];portConstraint=eastwest;whiteSpace=wrap;" parent="8tcFqLYshYYFTFdqs2hX-78" vertex="1">
          <mxGeometry y="154" width="140" height="25" as="geometry" />
        </mxCell>
        <mxCell id="5Ky6F6QJATN6FZENjKMb-51" value="&lt;div&gt;+void stop()&lt;/div&gt;" style="text;html=1;strokeColor=none;fillColor=none;align=left;verticalAlign=middle;spacingLeft=4;spacingRight=4;overflow=hidden;rotatable=0;points=[[0,0.5],[1,0.5]];portConstraint=eastwest;whiteSpace=wrap;" parent="8tcFqLYshYYFTFdqs2hX-78" vertex="1">
          <mxGeometry y="179" width="140" height="25" as="geometry" />
        </mxCell>
        <mxCell id="5Ky6F6QJATN6FZENjKMb-52" value="&lt;div&gt;+void playback()&lt;/div&gt;" style="text;html=1;strokeColor=none;fillColor=none;align=left;verticalAlign=middle;spacingLeft=4;spacingRight=4;overflow=hidden;rotatable=0;points=[[0,0.5],[1,0.5]];portConstraint=eastwest;whiteSpace=wrap;" parent="8tcFqLYshYYFTFdqs2hX-78" vertex="1">
          <mxGeometry y="204" width="140" height="25" as="geometry" />
        </mxCell>
        <mxCell id="5Ky6F6QJATN6FZENjKMb-53" value="+void undo()" style="text;html=1;strokeColor=none;fillColor=none;align=left;verticalAlign=middle;spacingLeft=4;spacingRight=4;overflow=hidden;rotatable=0;points=[[0,0.5],[1,0.5]];portConstraint=eastwest;whiteSpace=wrap;" parent="8tcFqLYshYYFTFdqs2hX-78" vertex="1">
          <mxGeometry y="229" width="140" height="25" as="geometry" />
        </mxCell>
        <mxCell id="8tcFqLYshYYFTFdqs2hX-85" value="&lt;div&gt;#include &amp;lt;thread&amp;gt;&lt;/div&gt;&lt;div&gt;&lt;br&gt;&lt;/div&gt;&lt;div&gt;callback_process()&lt;/div&gt;&lt;div&gt;&lt;br&gt;&lt;/div&gt;main()&amp;nbsp;&lt;div&gt;&lt;div&gt;&lt;br&gt;&lt;/div&gt;&lt;div&gt;//calls menu.load()&lt;/div&gt;&lt;div&gt;&lt;br&gt;&lt;/div&gt;&lt;div&gt;// handle session menu&lt;/div&gt;&lt;div&gt;// initialize a session&lt;/div&gt;&lt;/div&gt;" style="rounded=0;whiteSpace=wrap;html=1;fillColor=#60a917;fontColor=#ffffff;strokeColor=#2D7600;" parent="WIyWlLk6GJQsqaUBKTNV-1" vertex="1">
          <mxGeometry x="970" y="600" width="160" height="184" as="geometry" />
        </mxCell>
        <mxCell id="5Ky6F6QJATN6FZENjKMb-59" style="edgeStyle=orthogonalEdgeStyle;rounded=0;orthogonalLoop=1;jettySize=auto;html=1;exitX=0.5;exitY=0;exitDx=0;exitDy=0;entryX=0.5;entryY=1;entryDx=0;entryDy=0;" parent="WIyWlLk6GJQsqaUBKTNV-1" source="hWnJI4IfWUACmpFcas3W-5" target="8tcFqLYshYYFTFdqs2hX-62" edge="1">
          <mxGeometry relative="1" as="geometry" />
        </mxCell>
        <mxCell id="5Ky6F6QJATN6FZENjKMb-60" value="pre" style="edgeLabel;html=1;align=center;verticalAlign=middle;resizable=0;points=[];" parent="5Ky6F6QJATN6FZENjKMb-59" vertex="1" connectable="0">
          <mxGeometry x="0.1321" y="-4" relative="1" as="geometry">
            <mxPoint as="offset" />
          </mxGeometry>
        </mxCell>
        <mxCell id="hWnJI4IfWUACmpFcas3W-5" value="Effects" style="swimlane;fontStyle=1;align=center;verticalAlign=middle;childLayout=stackLayout;horizontal=1;startSize=29;horizontalStack=0;resizeParent=1;resizeParentMax=0;resizeLast=0;collapsible=0;marginBottom=0;html=1;whiteSpace=wrap;" parent="WIyWlLk6GJQsqaUBKTNV-1" vertex="1">
          <mxGeometry x="240" y="900" width="140" height="54" as="geometry" />
        </mxCell>
        <mxCell id="oKRzAN5yuzPkAz9cU-W4-12" value="-vector&amp;lt;float&amp;gt; signal" style="text;html=1;strokeColor=none;fillColor=none;align=left;verticalAlign=middle;spacingLeft=4;spacingRight=4;overflow=hidden;rotatable=0;points=[[0,0.5],[1,0.5]];portConstraint=eastwest;whiteSpace=wrap;" vertex="1" parent="hWnJI4IfWUACmpFcas3W-5">
          <mxGeometry y="29" width="140" height="25" as="geometry" />
        </mxCell>
        <mxCell id="hWnJI4IfWUACmpFcas3W-7" value="&lt;div&gt;callback_process(){&lt;/div&gt;&lt;div&gt;&lt;br&gt;&lt;/div&gt;&lt;div&gt;// fill master buffer&lt;/div&gt;&lt;div&gt;&lt;br&gt;&lt;/div&gt;&lt;div&gt;}&lt;/div&gt;&lt;div&gt;&lt;br&gt;&lt;/div&gt;" style="rounded=1;whiteSpace=wrap;html=1;" parent="WIyWlLk6GJQsqaUBKTNV-1" vertex="1">
          <mxGeometry x="1230" y="537" width="120" height="310" as="geometry" />
        </mxCell>
        <mxCell id="hWnJI4IfWUACmpFcas3W-8" value="&lt;div&gt;Data (json?)&lt;/div&gt;Config File&lt;div&gt;sample rate&lt;/div&gt;&lt;div&gt;bit quantization&lt;/div&gt;&lt;div&gt;buffer size&lt;/div&gt;" style="rounded=1;whiteSpace=wrap;html=1;" parent="WIyWlLk6GJQsqaUBKTNV-1" vertex="1">
          <mxGeometry x="630" y="370" width="120" height="90" as="geometry" />
        </mxCell>
        <mxCell id="5Ky6F6QJATN6FZENjKMb-5" value="" style="endArrow=none;html=1;rounded=0;exitX=1;exitY=0.5;exitDx=0;exitDy=0;entryX=0;entryY=0.5;entryDx=0;entryDy=0;" parent="WIyWlLk6GJQsqaUBKTNV-1" source="8tcFqLYshYYFTFdqs2hX-73" target="8tcFqLYshYYFTFdqs2hX-61" edge="1">
          <mxGeometry width="50" height="50" relative="1" as="geometry">
            <mxPoint x="300" y="417.5" as="sourcePoint" />
            <mxPoint x="350" y="367.5" as="targetPoint" />
          </mxGeometry>
        </mxCell>
        <mxCell id="5Ky6F6QJATN6FZENjKMb-8" value="" style="endArrow=none;html=1;rounded=0;" parent="WIyWlLk6GJQsqaUBKTNV-1" edge="1">
          <mxGeometry width="50" height="50" relative="1" as="geometry">
            <mxPoint x="1095" y="110" as="sourcePoint" />
            <mxPoint x="1115" y="90" as="targetPoint" />
          </mxGeometry>
        </mxCell>
        <mxCell id="5Ky6F6QJATN6FZENjKMb-9" value="" style="endArrow=classic;html=1;rounded=0;" parent="WIyWlLk6GJQsqaUBKTNV-1" edge="1">
          <mxGeometry width="50" height="50" relative="1" as="geometry">
            <mxPoint x="1095" y="140" as="sourcePoint" />
            <mxPoint x="1115" y="120" as="targetPoint" />
          </mxGeometry>
        </mxCell>
        <mxCell id="5Ky6F6QJATN6FZENjKMb-11" value="" style="html=1;labelBackgroundColor=#ffffff;startArrow=none;startFill=0;startSize=6;endArrow=classic;endFill=1;endSize=6;jettySize=auto;orthogonalLoop=1;strokeWidth=1;dashed=1;fontSize=14;rounded=0;" parent="WIyWlLk6GJQsqaUBKTNV-1" edge="1">
          <mxGeometry width="60" height="60" relative="1" as="geometry">
            <mxPoint x="1100" y="200" as="sourcePoint" />
            <mxPoint x="1120" y="180" as="targetPoint" />
          </mxGeometry>
        </mxCell>
        <mxCell id="5Ky6F6QJATN6FZENjKMb-13" value="" style="html=1;verticalAlign=bottom;labelBackgroundColor=none;endArrow=open;endFill=0;dashed=1;rounded=0;" parent="WIyWlLk6GJQsqaUBKTNV-1" edge="1">
          <mxGeometry width="160" relative="1" as="geometry">
            <mxPoint x="1095" y="170" as="sourcePoint" />
            <mxPoint x="1115" y="150" as="targetPoint" />
          </mxGeometry>
        </mxCell>
        <mxCell id="5Ky6F6QJATN6FZENjKMb-14" value="&lt;span style=&quot;color: rgb(240, 240, 240); font-family: Helvetica; font-size: 12px; font-style: normal; font-variant-ligatures: normal; font-variant-caps: normal; font-weight: 700; letter-spacing: normal; orphans: 2; text-align: center; text-indent: 0px; text-transform: none; widows: 2; word-spacing: 0px; -webkit-text-stroke-width: 0px; white-space: normal; background-color: rgb(27, 29, 30); text-decoration-thickness: initial; text-decoration-style: initial; text-decoration-color: initial; display: inline !important; float: none;&quot;&gt;Assosiation&lt;/span&gt;" style="text;whiteSpace=wrap;html=1;" parent="WIyWlLk6GJQsqaUBKTNV-1" vertex="1">
          <mxGeometry x="1125" y="80" width="80" height="20" as="geometry" />
        </mxCell>
        <mxCell id="5Ky6F6QJATN6FZENjKMb-15" value="&lt;span style=&quot;color: rgb(240, 240, 240); font-family: Helvetica; font-size: 12px; font-style: normal; font-variant-ligatures: normal; font-variant-caps: normal; font-weight: 700; letter-spacing: normal; orphans: 2; text-align: center; text-indent: 0px; text-transform: none; widows: 2; word-spacing: 0px; -webkit-text-stroke-width: 0px; white-space: normal; background-color: rgb(27, 29, 30); text-decoration-thickness: initial; text-decoration-style: initial; text-decoration-color: initial; display: inline !important; float: none;&quot;&gt;Inheritance&lt;/span&gt;" style="text;whiteSpace=wrap;html=1;" parent="WIyWlLk6GJQsqaUBKTNV-1" vertex="1">
          <mxGeometry x="1125" y="120" width="80" height="20" as="geometry" />
        </mxCell>
        <mxCell id="5Ky6F6QJATN6FZENjKMb-16" value="&lt;span style=&quot;color: rgb(240, 240, 240); font-family: Helvetica; font-size: 12px; font-style: normal; font-variant-ligatures: normal; font-variant-caps: normal; font-weight: 700; letter-spacing: normal; orphans: 2; text-align: center; text-indent: 0px; text-transform: none; widows: 2; word-spacing: 0px; -webkit-text-stroke-width: 0px; white-space: normal; background-color: rgb(27, 29, 30); text-decoration-thickness: initial; text-decoration-style: initial; text-decoration-color: initial; display: inline !important; float: none;&quot;&gt;Realization&lt;/span&gt;" style="text;whiteSpace=wrap;html=1;" parent="WIyWlLk6GJQsqaUBKTNV-1" vertex="1">
          <mxGeometry x="1125" y="150" width="80" height="20" as="geometry" />
        </mxCell>
        <mxCell id="5Ky6F6QJATN6FZENjKMb-17" value="&lt;div style=&quot;text-align: center;&quot;&gt;&lt;span style=&quot;background-color: initial;&quot;&gt;&lt;b&gt;Dependency&lt;/b&gt;&lt;/span&gt;&lt;/div&gt;" style="text;whiteSpace=wrap;html=1;" parent="WIyWlLk6GJQsqaUBKTNV-1" vertex="1">
          <mxGeometry x="1125" y="180" width="80" height="20" as="geometry" />
        </mxCell>
        <mxCell id="5Ky6F6QJATN6FZENjKMb-18" value="" style="html=1;verticalAlign=bottom;labelBackgroundColor=none;endArrow=open;endFill=0;dashed=1;rounded=0;entryX=-0.022;entryY=0.234;entryDx=0;entryDy=0;entryPerimeter=0;" parent="WIyWlLk6GJQsqaUBKTNV-1" source="hWnJI4IfWUACmpFcas3W-8" target="8tcFqLYshYYFTFdqs2hX-71" edge="1">
          <mxGeometry width="160" relative="1" as="geometry">
            <mxPoint x="815" y="550" as="sourcePoint" />
            <mxPoint x="885" y="510" as="targetPoint" />
          </mxGeometry>
        </mxCell>
        <mxCell id="5Ky6F6QJATN6FZENjKMb-20" value="" style="html=1;verticalAlign=bottom;labelBackgroundColor=none;endArrow=open;endFill=0;dashed=1;rounded=0;entryX=1.025;entryY=0.039;entryDx=0;entryDy=0;entryPerimeter=0;exitX=0.004;exitY=0.345;exitDx=0;exitDy=0;exitPerimeter=0;" parent="WIyWlLk6GJQsqaUBKTNV-1" source="hWnJI4IfWUACmpFcas3W-2" target="5Ky6F6QJATN6FZENjKMb-27" edge="1">
          <mxGeometry width="160" relative="1" as="geometry">
            <mxPoint x="750" y="550" as="sourcePoint" />
            <mxPoint x="640" y="630" as="targetPoint" />
          </mxGeometry>
        </mxCell>
        <mxCell id="5Ky6F6QJATN6FZENjKMb-21" value="" style="endArrow=classic;html=1;rounded=0;exitX=1.006;exitY=0.16;exitDx=0;exitDy=0;exitPerimeter=0;entryX=0.017;entryY=0.067;entryDx=0;entryDy=0;entryPerimeter=0;" parent="WIyWlLk6GJQsqaUBKTNV-1" source="8tcFqLYshYYFTFdqs2hX-61" target="5Ky6F6QJATN6FZENjKMb-27" edge="1">
          <mxGeometry width="50" height="50" relative="1" as="geometry">
            <mxPoint x="560" y="340" as="sourcePoint" />
            <mxPoint x="610" y="548" as="targetPoint" />
          </mxGeometry>
        </mxCell>
        <mxCell id="5Ky6F6QJATN6FZENjKMb-22" value="" style="endArrow=classic;html=1;rounded=0;exitX=1;exitY=0.5;exitDx=0;exitDy=0;entryX=0;entryY=0.5;entryDx=0;entryDy=0;" parent="WIyWlLk6GJQsqaUBKTNV-1" source="8tcFqLYshYYFTFdqs2hX-61" target="5Ky6F6QJATN6FZENjKMb-24" edge="1">
          <mxGeometry width="50" height="50" relative="1" as="geometry">
            <mxPoint x="591" y="618" as="sourcePoint" />
            <mxPoint x="630" y="660" as="targetPoint" />
          </mxGeometry>
        </mxCell>
        <mxCell id="5Ky6F6QJATN6FZENjKMb-24" value="Buttons(release)" style="swimlane;fontStyle=1;align=center;verticalAlign=middle;childLayout=stackLayout;horizontal=1;startSize=29;horizontalStack=0;resizeParent=1;resizeParentMax=0;resizeLast=0;collapsible=0;marginBottom=0;html=1;whiteSpace=wrap;" parent="WIyWlLk6GJQsqaUBKTNV-1" vertex="1">
          <mxGeometry x="610" y="629" width="110" height="59" as="geometry" />
        </mxCell>
        <mxCell id="5Ky6F6QJATN6FZENjKMb-25" value="+&lt;span style=&quot;background-color: initial;&quot;&gt;methods(actual)&lt;/span&gt;" style="text;html=1;align=center;verticalAlign=middle;resizable=0;points=[];autosize=1;strokeColor=none;fillColor=none;" parent="5Ky6F6QJATN6FZENjKMb-24" vertex="1">
          <mxGeometry y="29" width="110" height="30" as="geometry" />
        </mxCell>
        <mxCell id="5Ky6F6QJATN6FZENjKMb-26" value="Keyboard(dev)" style="swimlane;fontStyle=1;align=center;verticalAlign=middle;childLayout=stackLayout;horizontal=1;startSize=29;horizontalStack=0;resizeParent=1;resizeParentMax=0;resizeLast=0;collapsible=0;marginBottom=0;html=1;whiteSpace=wrap;" parent="WIyWlLk6GJQsqaUBKTNV-1" vertex="1">
          <mxGeometry x="610" y="530" width="110" height="59" as="geometry" />
        </mxCell>
        <mxCell id="5Ky6F6QJATN6FZENjKMb-27" value="+methods(actual)" style="text;html=1;align=center;verticalAlign=middle;resizable=0;points=[];autosize=1;strokeColor=none;fillColor=none;" parent="5Ky6F6QJATN6FZENjKMb-26" vertex="1">
          <mxGeometry y="29" width="110" height="30" as="geometry" />
        </mxCell>
        <mxCell id="5Ky6F6QJATN6FZENjKMb-28" value="" style="html=1;verticalAlign=bottom;labelBackgroundColor=none;endArrow=open;endFill=0;dashed=1;rounded=0;entryX=1.008;entryY=-0.089;entryDx=0;entryDy=0;entryPerimeter=0;exitX=0;exitY=0.5;exitDx=0;exitDy=0;" parent="WIyWlLk6GJQsqaUBKTNV-1" source="hWnJI4IfWUACmpFcas3W-2" target="5Ky6F6QJATN6FZENjKMb-25" edge="1">
          <mxGeometry width="160" relative="1" as="geometry">
            <mxPoint x="700" y="740" as="sourcePoint" />
            <mxPoint x="723" y="547" as="targetPoint" />
          </mxGeometry>
        </mxCell>
        <mxCell id="5Ky6F6QJATN6FZENjKMb-34" value="" style="endArrow=none;html=1;rounded=0;exitX=0.521;exitY=1.11;exitDx=0;exitDy=0;exitPerimeter=0;entryX=0.5;entryY=0;entryDx=0;entryDy=0;" parent="WIyWlLk6GJQsqaUBKTNV-1" source="5Ky6F6QJATN6FZENjKMb-29" target="8tcFqLYshYYFTFdqs2hX-85" edge="1">
          <mxGeometry width="50" height="50" relative="1" as="geometry">
            <mxPoint x="1016.5" y="510" as="sourcePoint" />
            <mxPoint x="1063.5" y="519" as="targetPoint" />
          </mxGeometry>
        </mxCell>
        <mxCell id="5Ky6F6QJATN6FZENjKMb-36" value="" style="html=1;verticalAlign=bottom;labelBackgroundColor=none;endArrow=open;endFill=0;dashed=1;rounded=0;entryX=0.5;entryY=0;entryDx=0;entryDy=0;exitX=1;exitY=0.5;exitDx=0;exitDy=0;" parent="WIyWlLk6GJQsqaUBKTNV-1" source="8tcFqLYshYYFTFdqs2hX-71" target="8tcFqLYshYYFTFdqs2hX-68" edge="1">
          <mxGeometry width="160" relative="1" as="geometry">
            <mxPoint x="750" y="425" as="sourcePoint" />
            <mxPoint x="789" y="426" as="targetPoint" />
            <Array as="points">
              <mxPoint x="1050" y="420" />
            </Array>
          </mxGeometry>
        </mxCell>
        <mxCell id="5Ky6F6QJATN6FZENjKMb-40" value="" style="endArrow=none;html=1;rounded=0;entryX=1;entryY=0.5;entryDx=0;entryDy=0;exitX=0;exitY=0.5;exitDx=0;exitDy=0;" parent="WIyWlLk6GJQsqaUBKTNV-1" source="hWnJI4IfWUACmpFcas3W-7" target="8tcFqLYshYYFTFdqs2hX-85" edge="1">
          <mxGeometry width="50" height="50" relative="1" as="geometry">
            <mxPoint x="1190" y="650" as="sourcePoint" />
            <mxPoint x="1060" y="610" as="targetPoint" />
          </mxGeometry>
        </mxCell>
        <mxCell id="5Ky6F6QJATN6FZENjKMb-56" style="edgeStyle=orthogonalEdgeStyle;rounded=0;orthogonalLoop=1;jettySize=auto;html=1;entryX=0.507;entryY=1.04;entryDx=0;entryDy=0;entryPerimeter=0;" parent="WIyWlLk6GJQsqaUBKTNV-1" source="8tcFqLYshYYFTFdqs2hX-64" target="8tcFqLYshYYFTFdqs2hX-67" edge="1">
          <mxGeometry relative="1" as="geometry" />
        </mxCell>
        <mxCell id="5Ky6F6QJATN6FZENjKMb-57" style="edgeStyle=orthogonalEdgeStyle;rounded=0;orthogonalLoop=1;jettySize=auto;html=1;exitX=0;exitY=0.5;exitDx=0;exitDy=0;entryX=1;entryY=0.5;entryDx=0;entryDy=0;" parent="WIyWlLk6GJQsqaUBKTNV-1" source="5Ky6F6QJATN6FZENjKMb-52" target="hWnJI4IfWUACmpFcas3W-5" edge="1">
          <mxGeometry relative="1" as="geometry" />
        </mxCell>
        <mxCell id="5Ky6F6QJATN6FZENjKMb-61" value="post" style="edgeLabel;html=1;align=center;verticalAlign=middle;resizable=0;points=[];" parent="5Ky6F6QJATN6FZENjKMb-57" vertex="1" connectable="0">
          <mxGeometry x="-0.1255" y="-3" relative="1" as="geometry">
            <mxPoint as="offset" />
          </mxGeometry>
        </mxCell>
        <mxCell id="5Ky6F6QJATN6FZENjKMb-58" style="edgeStyle=orthogonalEdgeStyle;rounded=0;orthogonalLoop=1;jettySize=auto;html=1;exitX=1;exitY=0.5;exitDx=0;exitDy=0;entryX=-0.007;entryY=0.12;entryDx=0;entryDy=0;entryPerimeter=0;" parent="WIyWlLk6GJQsqaUBKTNV-1" source="8tcFqLYshYYFTFdqs2hX-62" target="5Ky6F6QJATN6FZENjKMb-50" edge="1">
          <mxGeometry relative="1" as="geometry" />
        </mxCell>
        <mxCell id="oKRzAN5yuzPkAz9cU-W4-1" value="" style="html=1;verticalAlign=bottom;labelBackgroundColor=none;endArrow=open;endFill=0;dashed=1;rounded=0;exitX=0;exitY=0.5;exitDx=0;exitDy=0;entryX=1.021;entryY=0.28;entryDx=0;entryDy=0;entryPerimeter=0;" edge="1" parent="WIyWlLk6GJQsqaUBKTNV-1" source="8tcFqLYshYYFTFdqs2hX-85" target="5Ky6F6QJATN6FZENjKMb-44">
          <mxGeometry width="160" relative="1" as="geometry">
            <mxPoint x="1100" y="400" as="sourcePoint" />
            <mxPoint x="1125" y="360" as="targetPoint" />
          </mxGeometry>
        </mxCell>
        <mxCell id="oKRzAN5yuzPkAz9cU-W4-3" value="" style="endArrow=classic;html=1;rounded=0;entryX=0.992;entryY=0.106;entryDx=0;entryDy=0;exitX=0;exitY=0.5;exitDx=0;exitDy=0;entryPerimeter=0;" edge="1" parent="WIyWlLk6GJQsqaUBKTNV-1" source="8tcFqLYshYYFTFdqs2hX-79" target="oKRzAN5yuzPkAz9cU-W4-6">
          <mxGeometry width="50" height="50" relative="1" as="geometry">
            <mxPoint x="1105" y="150" as="sourcePoint" />
            <mxPoint x="360" y="719" as="targetPoint" />
          </mxGeometry>
        </mxCell>
        <mxCell id="oKRzAN5yuzPkAz9cU-W4-5" value="«Master»" style="swimlane;fontStyle=1;align=center;verticalAlign=middle;childLayout=stackLayout;horizontal=1;startSize=29;horizontalStack=0;resizeParent=1;resizeParentMax=0;resizeLast=0;collapsible=0;marginBottom=0;html=1;whiteSpace=wrap;" vertex="1" parent="WIyWlLk6GJQsqaUBKTNV-1">
          <mxGeometry x="245" y="700" width="110" height="59" as="geometry" />
        </mxCell>
        <mxCell id="oKRzAN5yuzPkAz9cU-W4-6" value="+&lt;span style=&quot;background-color: initial;&quot;&gt;methods(actual)&lt;/span&gt;" style="text;html=1;align=center;verticalAlign=middle;resizable=0;points=[];autosize=1;strokeColor=none;fillColor=none;" vertex="1" parent="oKRzAN5yuzPkAz9cU-W4-5">
          <mxGeometry y="29" width="110" height="30" as="geometry" />
        </mxCell>
        <mxCell id="oKRzAN5yuzPkAz9cU-W4-7" value="" style="html=1;verticalAlign=bottom;labelBackgroundColor=none;endArrow=open;endFill=0;dashed=1;rounded=0;entryX=1;entryY=0.5;entryDx=0;entryDy=0;exitX=-0.009;exitY=-0.173;exitDx=0;exitDy=0;exitPerimeter=0;" edge="1" parent="WIyWlLk6GJQsqaUBKTNV-1" source="5Ky6F6QJATN6FZENjKMb-48" target="8tcFqLYshYYFTFdqs2hX-79">
          <mxGeometry width="160" relative="1" as="geometry">
            <mxPoint x="1020" y="340" as="sourcePoint" />
            <mxPoint x="990" y="380" as="targetPoint" />
          </mxGeometry>
        </mxCell>
        <mxCell id="oKRzAN5yuzPkAz9cU-W4-9" value="#channels + 1 Master" style="edgeLabel;html=1;align=center;verticalAlign=middle;resizable=0;points=[];" vertex="1" connectable="0" parent="oKRzAN5yuzPkAz9cU-W4-7">
          <mxGeometry x="-0.1107" y="3" relative="1" as="geometry">
            <mxPoint as="offset" />
          </mxGeometry>
        </mxCell>
        <mxCell id="oKRzAN5yuzPkAz9cU-W4-15" value="" style="html=1;verticalAlign=bottom;labelBackgroundColor=none;endArrow=open;endFill=0;dashed=1;rounded=0;exitX=0.491;exitY=1.16;exitDx=0;exitDy=0;exitPerimeter=0;entryX=0.448;entryY=-0.002;entryDx=0;entryDy=0;entryPerimeter=0;" edge="1" parent="WIyWlLk6GJQsqaUBKTNV-1" source="5Ky6F6QJATN6FZENjKMb-46" target="zkfFHV4jXpPFQw0GAbJ--6">
          <mxGeometry width="160" relative="1" as="geometry">
            <mxPoint x="880" y="790" as="sourcePoint" />
            <mxPoint x="860" y="810" as="targetPoint" />
          </mxGeometry>
        </mxCell>
      </root>
    </mxGraphModel>
  </diagram>
</mxfile>
